G04 #@! TF.GenerationSoftware,KiCad,Pcbnew,5.1.6-c6e7f7d~86~ubuntu18.04.1*
G04 #@! TF.CreationDate,2020-06-04T01:08:26+01:00*
G04 #@! TF.ProjectId,scot-resolver,73636f74-2d72-4657-936f-6c7665722e6b,rev?*
G04 #@! TF.SameCoordinates,Original*
G04 #@! TF.FileFunction,Paste,Top*
G04 #@! TF.FilePolarity,Positive*
%FSLAX46Y46*%
G04 Gerber Fmt 4.6, Leading zero omitted, Abs format (unit mm)*
G04 Created by KiCad (PCBNEW 5.1.6-c6e7f7d~86~ubuntu18.04.1) date 2020-06-04 01:08:26*
%MOMM*%
%LPD*%
G01*
G04 APERTURE LIST*
%ADD10R,2.000000X1.500000*%
%ADD11R,2.000000X3.800000*%
%ADD12R,1.550000X0.600000*%
%ADD13R,7.175000X5.600000*%
%ADD14R,1.400000X1.200000*%
%ADD15R,1.500000X0.300000*%
%ADD16R,0.300000X1.500000*%
%ADD17R,1.200000X0.500000*%
%ADD18R,0.500000X1.200000*%
%ADD19R,1.450000X0.450000*%
%ADD20R,0.600000X1.550000*%
%ADD21R,0.450000X1.450000*%
G04 APERTURE END LIST*
G36*
G01*
X140401820Y-91928960D02*
X140401820Y-91453960D01*
G75*
G02*
X140639320Y-91216460I237500J0D01*
G01*
X141214320Y-91216460D01*
G75*
G02*
X141451820Y-91453960I0J-237500D01*
G01*
X141451820Y-91928960D01*
G75*
G02*
X141214320Y-92166460I-237500J0D01*
G01*
X140639320Y-92166460D01*
G75*
G02*
X140401820Y-91928960I0J237500D01*
G01*
G37*
G36*
G01*
X138651820Y-91928960D02*
X138651820Y-91453960D01*
G75*
G02*
X138889320Y-91216460I237500J0D01*
G01*
X139464320Y-91216460D01*
G75*
G02*
X139701820Y-91453960I0J-237500D01*
G01*
X139701820Y-91928960D01*
G75*
G02*
X139464320Y-92166460I-237500J0D01*
G01*
X138889320Y-92166460D01*
G75*
G02*
X138651820Y-91928960I0J237500D01*
G01*
G37*
G36*
G01*
X159045900Y-124265200D02*
X159520900Y-124265200D01*
G75*
G02*
X159758400Y-124502700I0J-237500D01*
G01*
X159758400Y-125077700D01*
G75*
G02*
X159520900Y-125315200I-237500J0D01*
G01*
X159045900Y-125315200D01*
G75*
G02*
X158808400Y-125077700I0J237500D01*
G01*
X158808400Y-124502700D01*
G75*
G02*
X159045900Y-124265200I237500J0D01*
G01*
G37*
G36*
G01*
X159045900Y-122515200D02*
X159520900Y-122515200D01*
G75*
G02*
X159758400Y-122752700I0J-237500D01*
G01*
X159758400Y-123327700D01*
G75*
G02*
X159520900Y-123565200I-237500J0D01*
G01*
X159045900Y-123565200D01*
G75*
G02*
X158808400Y-123327700I0J237500D01*
G01*
X158808400Y-122752700D01*
G75*
G02*
X159045900Y-122515200I237500J0D01*
G01*
G37*
G36*
G01*
X169221140Y-81824280D02*
X169696140Y-81824280D01*
G75*
G02*
X169933640Y-82061780I0J-237500D01*
G01*
X169933640Y-82636780D01*
G75*
G02*
X169696140Y-82874280I-237500J0D01*
G01*
X169221140Y-82874280D01*
G75*
G02*
X168983640Y-82636780I0J237500D01*
G01*
X168983640Y-82061780D01*
G75*
G02*
X169221140Y-81824280I237500J0D01*
G01*
G37*
G36*
G01*
X169221140Y-80074280D02*
X169696140Y-80074280D01*
G75*
G02*
X169933640Y-80311780I0J-237500D01*
G01*
X169933640Y-80886780D01*
G75*
G02*
X169696140Y-81124280I-237500J0D01*
G01*
X169221140Y-81124280D01*
G75*
G02*
X168983640Y-80886780I0J237500D01*
G01*
X168983640Y-80311780D01*
G75*
G02*
X169221140Y-80074280I237500J0D01*
G01*
G37*
D10*
X154940000Y-58572400D03*
X154940000Y-63172400D03*
X154940000Y-60872400D03*
D11*
X161240000Y-60872400D03*
G36*
G01*
X136087600Y-104402900D02*
X136087600Y-103927900D01*
G75*
G02*
X136325100Y-103690400I237500J0D01*
G01*
X136900100Y-103690400D01*
G75*
G02*
X137137600Y-103927900I0J-237500D01*
G01*
X137137600Y-104402900D01*
G75*
G02*
X136900100Y-104640400I-237500J0D01*
G01*
X136325100Y-104640400D01*
G75*
G02*
X136087600Y-104402900I0J237500D01*
G01*
G37*
G36*
G01*
X134337600Y-104402900D02*
X134337600Y-103927900D01*
G75*
G02*
X134575100Y-103690400I237500J0D01*
G01*
X135150100Y-103690400D01*
G75*
G02*
X135387600Y-103927900I0J-237500D01*
G01*
X135387600Y-104402900D01*
G75*
G02*
X135150100Y-104640400I-237500J0D01*
G01*
X134575100Y-104640400D01*
G75*
G02*
X134337600Y-104402900I0J237500D01*
G01*
G37*
G36*
G01*
X170734440Y-84164180D02*
X170734440Y-83689180D01*
G75*
G02*
X170971940Y-83451680I237500J0D01*
G01*
X171546940Y-83451680D01*
G75*
G02*
X171784440Y-83689180I0J-237500D01*
G01*
X171784440Y-84164180D01*
G75*
G02*
X171546940Y-84401680I-237500J0D01*
G01*
X170971940Y-84401680D01*
G75*
G02*
X170734440Y-84164180I0J237500D01*
G01*
G37*
G36*
G01*
X168984440Y-84164180D02*
X168984440Y-83689180D01*
G75*
G02*
X169221940Y-83451680I237500J0D01*
G01*
X169796940Y-83451680D01*
G75*
G02*
X170034440Y-83689180I0J-237500D01*
G01*
X170034440Y-84164180D01*
G75*
G02*
X169796940Y-84401680I-237500J0D01*
G01*
X169221940Y-84401680D01*
G75*
G02*
X168984440Y-84164180I0J237500D01*
G01*
G37*
G36*
G01*
X170745140Y-81826880D02*
X171220140Y-81826880D01*
G75*
G02*
X171457640Y-82064380I0J-237500D01*
G01*
X171457640Y-82639380D01*
G75*
G02*
X171220140Y-82876880I-237500J0D01*
G01*
X170745140Y-82876880D01*
G75*
G02*
X170507640Y-82639380I0J237500D01*
G01*
X170507640Y-82064380D01*
G75*
G02*
X170745140Y-81826880I237500J0D01*
G01*
G37*
G36*
G01*
X170745140Y-80076880D02*
X171220140Y-80076880D01*
G75*
G02*
X171457640Y-80314380I0J-237500D01*
G01*
X171457640Y-80889380D01*
G75*
G02*
X171220140Y-81126880I-237500J0D01*
G01*
X170745140Y-81126880D01*
G75*
G02*
X170507640Y-80889380I0J237500D01*
G01*
X170507640Y-80314380D01*
G75*
G02*
X170745140Y-80076880I237500J0D01*
G01*
G37*
G36*
G01*
X159746940Y-82614280D02*
X160221940Y-82614280D01*
G75*
G02*
X160459440Y-82851780I0J-237500D01*
G01*
X160459440Y-83426780D01*
G75*
G02*
X160221940Y-83664280I-237500J0D01*
G01*
X159746940Y-83664280D01*
G75*
G02*
X159509440Y-83426780I0J237500D01*
G01*
X159509440Y-82851780D01*
G75*
G02*
X159746940Y-82614280I237500J0D01*
G01*
G37*
G36*
G01*
X159746940Y-80864280D02*
X160221940Y-80864280D01*
G75*
G02*
X160459440Y-81101780I0J-237500D01*
G01*
X160459440Y-81676780D01*
G75*
G02*
X160221940Y-81914280I-237500J0D01*
G01*
X159746940Y-81914280D01*
G75*
G02*
X159509440Y-81676780I0J237500D01*
G01*
X159509440Y-81101780D01*
G75*
G02*
X159746940Y-80864280I237500J0D01*
G01*
G37*
G36*
G01*
X167358840Y-83351380D02*
X167358840Y-82876380D01*
G75*
G02*
X167596340Y-82638880I237500J0D01*
G01*
X168171340Y-82638880D01*
G75*
G02*
X168408840Y-82876380I0J-237500D01*
G01*
X168408840Y-83351380D01*
G75*
G02*
X168171340Y-83588880I-237500J0D01*
G01*
X167596340Y-83588880D01*
G75*
G02*
X167358840Y-83351380I0J237500D01*
G01*
G37*
G36*
G01*
X165608840Y-83351380D02*
X165608840Y-82876380D01*
G75*
G02*
X165846340Y-82638880I237500J0D01*
G01*
X166421340Y-82638880D01*
G75*
G02*
X166658840Y-82876380I0J-237500D01*
G01*
X166658840Y-83351380D01*
G75*
G02*
X166421340Y-83588880I-237500J0D01*
G01*
X165846340Y-83588880D01*
G75*
G02*
X165608840Y-83351380I0J237500D01*
G01*
G37*
G36*
G01*
X173082440Y-80361780D02*
X173082440Y-80836780D01*
G75*
G02*
X172844940Y-81074280I-237500J0D01*
G01*
X172269940Y-81074280D01*
G75*
G02*
X172032440Y-80836780I0J237500D01*
G01*
X172032440Y-80361780D01*
G75*
G02*
X172269940Y-80124280I237500J0D01*
G01*
X172844940Y-80124280D01*
G75*
G02*
X173082440Y-80361780I0J-237500D01*
G01*
G37*
G36*
G01*
X174832440Y-80361780D02*
X174832440Y-80836780D01*
G75*
G02*
X174594940Y-81074280I-237500J0D01*
G01*
X174019940Y-81074280D01*
G75*
G02*
X173782440Y-80836780I0J237500D01*
G01*
X173782440Y-80361780D01*
G75*
G02*
X174019940Y-80124280I237500J0D01*
G01*
X174594940Y-80124280D01*
G75*
G02*
X174832440Y-80361780I0J-237500D01*
G01*
G37*
G36*
G01*
X152178599Y-58073600D02*
X153078601Y-58073600D01*
G75*
G02*
X153328600Y-58323599I0J-249999D01*
G01*
X153328600Y-58973601D01*
G75*
G02*
X153078601Y-59223600I-249999J0D01*
G01*
X152178599Y-59223600D01*
G75*
G02*
X151928600Y-58973601I0J249999D01*
G01*
X151928600Y-58323599D01*
G75*
G02*
X152178599Y-58073600I249999J0D01*
G01*
G37*
G36*
G01*
X152178599Y-56023600D02*
X153078601Y-56023600D01*
G75*
G02*
X153328600Y-56273599I0J-249999D01*
G01*
X153328600Y-56923601D01*
G75*
G02*
X153078601Y-57173600I-249999J0D01*
G01*
X152178599Y-57173600D01*
G75*
G02*
X151928600Y-56923601I0J249999D01*
G01*
X151928600Y-56273599D01*
G75*
G02*
X152178599Y-56023600I249999J0D01*
G01*
G37*
G36*
G01*
X155649400Y-55810999D02*
X155649400Y-56711001D01*
G75*
G02*
X155399401Y-56961000I-249999J0D01*
G01*
X154749399Y-56961000D01*
G75*
G02*
X154499400Y-56711001I0J249999D01*
G01*
X154499400Y-55810999D01*
G75*
G02*
X154749399Y-55561000I249999J0D01*
G01*
X155399401Y-55561000D01*
G75*
G02*
X155649400Y-55810999I0J-249999D01*
G01*
G37*
G36*
G01*
X157699400Y-55810999D02*
X157699400Y-56711001D01*
G75*
G02*
X157449401Y-56961000I-249999J0D01*
G01*
X156799399Y-56961000D01*
G75*
G02*
X156549400Y-56711001I0J249999D01*
G01*
X156549400Y-55810999D01*
G75*
G02*
X156799399Y-55561000I249999J0D01*
G01*
X157449401Y-55561000D01*
G75*
G02*
X157699400Y-55810999I0J-249999D01*
G01*
G37*
G36*
G01*
X170897000Y-105566220D02*
X170897000Y-105091220D01*
G75*
G02*
X171134500Y-104853720I237500J0D01*
G01*
X171709500Y-104853720D01*
G75*
G02*
X171947000Y-105091220I0J-237500D01*
G01*
X171947000Y-105566220D01*
G75*
G02*
X171709500Y-105803720I-237500J0D01*
G01*
X171134500Y-105803720D01*
G75*
G02*
X170897000Y-105566220I0J237500D01*
G01*
G37*
G36*
G01*
X169147000Y-105566220D02*
X169147000Y-105091220D01*
G75*
G02*
X169384500Y-104853720I237500J0D01*
G01*
X169959500Y-104853720D01*
G75*
G02*
X170197000Y-105091220I0J-237500D01*
G01*
X170197000Y-105566220D01*
G75*
G02*
X169959500Y-105803720I-237500J0D01*
G01*
X169384500Y-105803720D01*
G75*
G02*
X169147000Y-105566220I0J237500D01*
G01*
G37*
G36*
G01*
X171278540Y-103234000D02*
X171753540Y-103234000D01*
G75*
G02*
X171991040Y-103471500I0J-237500D01*
G01*
X171991040Y-104046500D01*
G75*
G02*
X171753540Y-104284000I-237500J0D01*
G01*
X171278540Y-104284000D01*
G75*
G02*
X171041040Y-104046500I0J237500D01*
G01*
X171041040Y-103471500D01*
G75*
G02*
X171278540Y-103234000I237500J0D01*
G01*
G37*
G36*
G01*
X171278540Y-101484000D02*
X171753540Y-101484000D01*
G75*
G02*
X171991040Y-101721500I0J-237500D01*
G01*
X171991040Y-102296500D01*
G75*
G02*
X171753540Y-102534000I-237500J0D01*
G01*
X171278540Y-102534000D01*
G75*
G02*
X171041040Y-102296500I0J237500D01*
G01*
X171041040Y-101721500D01*
G75*
G02*
X171278540Y-101484000I237500J0D01*
G01*
G37*
G36*
G01*
X160244780Y-104336300D02*
X160719780Y-104336300D01*
G75*
G02*
X160957280Y-104573800I0J-237500D01*
G01*
X160957280Y-105148800D01*
G75*
G02*
X160719780Y-105386300I-237500J0D01*
G01*
X160244780Y-105386300D01*
G75*
G02*
X160007280Y-105148800I0J237500D01*
G01*
X160007280Y-104573800D01*
G75*
G02*
X160244780Y-104336300I237500J0D01*
G01*
G37*
G36*
G01*
X160244780Y-102586300D02*
X160719780Y-102586300D01*
G75*
G02*
X160957280Y-102823800I0J-237500D01*
G01*
X160957280Y-103398800D01*
G75*
G02*
X160719780Y-103636300I-237500J0D01*
G01*
X160244780Y-103636300D01*
G75*
G02*
X160007280Y-103398800I0J237500D01*
G01*
X160007280Y-102823800D01*
G75*
G02*
X160244780Y-102586300I237500J0D01*
G01*
G37*
G36*
G01*
X167523880Y-105037900D02*
X167523880Y-104562900D01*
G75*
G02*
X167761380Y-104325400I237500J0D01*
G01*
X168336380Y-104325400D01*
G75*
G02*
X168573880Y-104562900I0J-237500D01*
G01*
X168573880Y-105037900D01*
G75*
G02*
X168336380Y-105275400I-237500J0D01*
G01*
X167761380Y-105275400D01*
G75*
G02*
X167523880Y-105037900I0J237500D01*
G01*
G37*
G36*
G01*
X165773880Y-105037900D02*
X165773880Y-104562900D01*
G75*
G02*
X166011380Y-104325400I237500J0D01*
G01*
X166586380Y-104325400D01*
G75*
G02*
X166823880Y-104562900I0J-237500D01*
G01*
X166823880Y-105037900D01*
G75*
G02*
X166586380Y-105275400I-237500J0D01*
G01*
X166011380Y-105275400D01*
G75*
G02*
X165773880Y-105037900I0J237500D01*
G01*
G37*
G36*
G01*
X173608280Y-101723180D02*
X173608280Y-102198180D01*
G75*
G02*
X173370780Y-102435680I-237500J0D01*
G01*
X172795780Y-102435680D01*
G75*
G02*
X172558280Y-102198180I0J237500D01*
G01*
X172558280Y-101723180D01*
G75*
G02*
X172795780Y-101485680I237500J0D01*
G01*
X173370780Y-101485680D01*
G75*
G02*
X173608280Y-101723180I0J-237500D01*
G01*
G37*
G36*
G01*
X175358280Y-101723180D02*
X175358280Y-102198180D01*
G75*
G02*
X175120780Y-102435680I-237500J0D01*
G01*
X174545780Y-102435680D01*
G75*
G02*
X174308280Y-102198180I0J237500D01*
G01*
X174308280Y-101723180D01*
G75*
G02*
X174545780Y-101485680I237500J0D01*
G01*
X175120780Y-101485680D01*
G75*
G02*
X175358280Y-101723180I0J-237500D01*
G01*
G37*
G36*
G01*
X164002000Y-126127500D02*
X164002000Y-126602500D01*
G75*
G02*
X163764500Y-126840000I-237500J0D01*
G01*
X163189500Y-126840000D01*
G75*
G02*
X162952000Y-126602500I0J237500D01*
G01*
X162952000Y-126127500D01*
G75*
G02*
X163189500Y-125890000I237500J0D01*
G01*
X163764500Y-125890000D01*
G75*
G02*
X164002000Y-126127500I0J-237500D01*
G01*
G37*
G36*
G01*
X165752000Y-126127500D02*
X165752000Y-126602500D01*
G75*
G02*
X165514500Y-126840000I-237500J0D01*
G01*
X164939500Y-126840000D01*
G75*
G02*
X164702000Y-126602500I0J237500D01*
G01*
X164702000Y-126127500D01*
G75*
G02*
X164939500Y-125890000I237500J0D01*
G01*
X165514500Y-125890000D01*
G75*
G02*
X165752000Y-126127500I0J-237500D01*
G01*
G37*
G36*
G01*
X166401200Y-117534700D02*
X166401200Y-117059700D01*
G75*
G02*
X166638700Y-116822200I237500J0D01*
G01*
X167213700Y-116822200D01*
G75*
G02*
X167451200Y-117059700I0J-237500D01*
G01*
X167451200Y-117534700D01*
G75*
G02*
X167213700Y-117772200I-237500J0D01*
G01*
X166638700Y-117772200D01*
G75*
G02*
X166401200Y-117534700I0J237500D01*
G01*
G37*
G36*
G01*
X164651200Y-117534700D02*
X164651200Y-117059700D01*
G75*
G02*
X164888700Y-116822200I237500J0D01*
G01*
X165463700Y-116822200D01*
G75*
G02*
X165701200Y-117059700I0J-237500D01*
G01*
X165701200Y-117534700D01*
G75*
G02*
X165463700Y-117772200I-237500J0D01*
G01*
X164888700Y-117772200D01*
G75*
G02*
X164651200Y-117534700I0J237500D01*
G01*
G37*
G36*
G01*
X161044900Y-122396800D02*
X160569900Y-122396800D01*
G75*
G02*
X160332400Y-122159300I0J237500D01*
G01*
X160332400Y-121584300D01*
G75*
G02*
X160569900Y-121346800I237500J0D01*
G01*
X161044900Y-121346800D01*
G75*
G02*
X161282400Y-121584300I0J-237500D01*
G01*
X161282400Y-122159300D01*
G75*
G02*
X161044900Y-122396800I-237500J0D01*
G01*
G37*
G36*
G01*
X161044900Y-124146800D02*
X160569900Y-124146800D01*
G75*
G02*
X160332400Y-123909300I0J237500D01*
G01*
X160332400Y-123334300D01*
G75*
G02*
X160569900Y-123096800I237500J0D01*
G01*
X161044900Y-123096800D01*
G75*
G02*
X161282400Y-123334300I0J-237500D01*
G01*
X161282400Y-123909300D01*
G75*
G02*
X161044900Y-124146800I-237500J0D01*
G01*
G37*
G36*
G01*
X168131500Y-120209800D02*
X167656500Y-120209800D01*
G75*
G02*
X167419000Y-119972300I0J237500D01*
G01*
X167419000Y-119397300D01*
G75*
G02*
X167656500Y-119159800I237500J0D01*
G01*
X168131500Y-119159800D01*
G75*
G02*
X168369000Y-119397300I0J-237500D01*
G01*
X168369000Y-119972300D01*
G75*
G02*
X168131500Y-120209800I-237500J0D01*
G01*
G37*
G36*
G01*
X168131500Y-121959800D02*
X167656500Y-121959800D01*
G75*
G02*
X167419000Y-121722300I0J237500D01*
G01*
X167419000Y-121147300D01*
G75*
G02*
X167656500Y-120909800I237500J0D01*
G01*
X168131500Y-120909800D01*
G75*
G02*
X168369000Y-121147300I0J-237500D01*
G01*
X168369000Y-121722300D01*
G75*
G02*
X168131500Y-121959800I-237500J0D01*
G01*
G37*
G36*
G01*
X160623800Y-126127500D02*
X160623800Y-126602500D01*
G75*
G02*
X160386300Y-126840000I-237500J0D01*
G01*
X159811300Y-126840000D01*
G75*
G02*
X159573800Y-126602500I0J237500D01*
G01*
X159573800Y-126127500D01*
G75*
G02*
X159811300Y-125890000I237500J0D01*
G01*
X160386300Y-125890000D01*
G75*
G02*
X160623800Y-126127500I0J-237500D01*
G01*
G37*
G36*
G01*
X162373800Y-126127500D02*
X162373800Y-126602500D01*
G75*
G02*
X162136300Y-126840000I-237500J0D01*
G01*
X161561300Y-126840000D01*
G75*
G02*
X161323800Y-126602500I0J237500D01*
G01*
X161323800Y-126127500D01*
G75*
G02*
X161561300Y-125890000I237500J0D01*
G01*
X162136300Y-125890000D01*
G75*
G02*
X162373800Y-126127500I0J-237500D01*
G01*
G37*
G36*
G01*
X162325600Y-115535700D02*
X162325600Y-116010700D01*
G75*
G02*
X162088100Y-116248200I-237500J0D01*
G01*
X161513100Y-116248200D01*
G75*
G02*
X161275600Y-116010700I0J237500D01*
G01*
X161275600Y-115535700D01*
G75*
G02*
X161513100Y-115298200I237500J0D01*
G01*
X162088100Y-115298200D01*
G75*
G02*
X162325600Y-115535700I0J-237500D01*
G01*
G37*
G36*
G01*
X164075600Y-115535700D02*
X164075600Y-116010700D01*
G75*
G02*
X163838100Y-116248200I-237500J0D01*
G01*
X163263100Y-116248200D01*
G75*
G02*
X163025600Y-116010700I0J237500D01*
G01*
X163025600Y-115535700D01*
G75*
G02*
X163263100Y-115298200I237500J0D01*
G01*
X163838100Y-115298200D01*
G75*
G02*
X164075600Y-115535700I0J-237500D01*
G01*
G37*
G36*
G01*
X148166600Y-127872500D02*
X148166600Y-127397500D01*
G75*
G02*
X148404100Y-127160000I237500J0D01*
G01*
X148979100Y-127160000D01*
G75*
G02*
X149216600Y-127397500I0J-237500D01*
G01*
X149216600Y-127872500D01*
G75*
G02*
X148979100Y-128110000I-237500J0D01*
G01*
X148404100Y-128110000D01*
G75*
G02*
X148166600Y-127872500I0J237500D01*
G01*
G37*
G36*
G01*
X146416600Y-127872500D02*
X146416600Y-127397500D01*
G75*
G02*
X146654100Y-127160000I237500J0D01*
G01*
X147229100Y-127160000D01*
G75*
G02*
X147466600Y-127397500I0J-237500D01*
G01*
X147466600Y-127872500D01*
G75*
G02*
X147229100Y-128110000I-237500J0D01*
G01*
X146654100Y-128110000D01*
G75*
G02*
X146416600Y-127872500I0J237500D01*
G01*
G37*
G36*
G01*
X152191000Y-116399300D02*
X152191000Y-116874300D01*
G75*
G02*
X151953500Y-117111800I-237500J0D01*
G01*
X151378500Y-117111800D01*
G75*
G02*
X151141000Y-116874300I0J237500D01*
G01*
X151141000Y-116399300D01*
G75*
G02*
X151378500Y-116161800I237500J0D01*
G01*
X151953500Y-116161800D01*
G75*
G02*
X152191000Y-116399300I0J-237500D01*
G01*
G37*
G36*
G01*
X153941000Y-116399300D02*
X153941000Y-116874300D01*
G75*
G02*
X153703500Y-117111800I-237500J0D01*
G01*
X153128500Y-117111800D01*
G75*
G02*
X152891000Y-116874300I0J237500D01*
G01*
X152891000Y-116399300D01*
G75*
G02*
X153128500Y-116161800I237500J0D01*
G01*
X153703500Y-116161800D01*
G75*
G02*
X153941000Y-116399300I0J-237500D01*
G01*
G37*
G36*
G01*
X146490200Y-126348500D02*
X146490200Y-125873500D01*
G75*
G02*
X146727700Y-125636000I237500J0D01*
G01*
X147302700Y-125636000D01*
G75*
G02*
X147540200Y-125873500I0J-237500D01*
G01*
X147540200Y-126348500D01*
G75*
G02*
X147302700Y-126586000I-237500J0D01*
G01*
X146727700Y-126586000D01*
G75*
G02*
X146490200Y-126348500I0J237500D01*
G01*
G37*
G36*
G01*
X144740200Y-126348500D02*
X144740200Y-125873500D01*
G75*
G02*
X144977700Y-125636000I237500J0D01*
G01*
X145552700Y-125636000D01*
G75*
G02*
X145790200Y-125873500I0J-237500D01*
G01*
X145790200Y-126348500D01*
G75*
G02*
X145552700Y-126586000I-237500J0D01*
G01*
X144977700Y-126586000D01*
G75*
G02*
X144740200Y-126348500I0J237500D01*
G01*
G37*
G36*
G01*
X148812800Y-116399300D02*
X148812800Y-116874300D01*
G75*
G02*
X148575300Y-117111800I-237500J0D01*
G01*
X148000300Y-117111800D01*
G75*
G02*
X147762800Y-116874300I0J237500D01*
G01*
X147762800Y-116399300D01*
G75*
G02*
X148000300Y-116161800I237500J0D01*
G01*
X148575300Y-116161800D01*
G75*
G02*
X148812800Y-116399300I0J-237500D01*
G01*
G37*
G36*
G01*
X150562800Y-116399300D02*
X150562800Y-116874300D01*
G75*
G02*
X150325300Y-117111800I-237500J0D01*
G01*
X149750300Y-117111800D01*
G75*
G02*
X149512800Y-116874300I0J237500D01*
G01*
X149512800Y-116399300D01*
G75*
G02*
X149750300Y-116161800I237500J0D01*
G01*
X150325300Y-116161800D01*
G75*
G02*
X150562800Y-116399300I0J-237500D01*
G01*
G37*
G36*
G01*
X143450300Y-125546600D02*
X143925300Y-125546600D01*
G75*
G02*
X144162800Y-125784100I0J-237500D01*
G01*
X144162800Y-126359100D01*
G75*
G02*
X143925300Y-126596600I-237500J0D01*
G01*
X143450300Y-126596600D01*
G75*
G02*
X143212800Y-126359100I0J237500D01*
G01*
X143212800Y-125784100D01*
G75*
G02*
X143450300Y-125546600I237500J0D01*
G01*
G37*
G36*
G01*
X143450300Y-123796600D02*
X143925300Y-123796600D01*
G75*
G02*
X144162800Y-124034100I0J-237500D01*
G01*
X144162800Y-124609100D01*
G75*
G02*
X143925300Y-124846600I-237500J0D01*
G01*
X143450300Y-124846600D01*
G75*
G02*
X143212800Y-124609100I0J237500D01*
G01*
X143212800Y-124034100D01*
G75*
G02*
X143450300Y-123796600I237500J0D01*
G01*
G37*
G36*
G01*
X145434600Y-116399300D02*
X145434600Y-116874300D01*
G75*
G02*
X145197100Y-117111800I-237500J0D01*
G01*
X144622100Y-117111800D01*
G75*
G02*
X144384600Y-116874300I0J237500D01*
G01*
X144384600Y-116399300D01*
G75*
G02*
X144622100Y-116161800I237500J0D01*
G01*
X145197100Y-116161800D01*
G75*
G02*
X145434600Y-116399300I0J-237500D01*
G01*
G37*
G36*
G01*
X147184600Y-116399300D02*
X147184600Y-116874300D01*
G75*
G02*
X146947100Y-117111800I-237500J0D01*
G01*
X146372100Y-117111800D01*
G75*
G02*
X146134600Y-116874300I0J237500D01*
G01*
X146134600Y-116399300D01*
G75*
G02*
X146372100Y-116161800I237500J0D01*
G01*
X146947100Y-116161800D01*
G75*
G02*
X147184600Y-116399300I0J-237500D01*
G01*
G37*
D12*
X91000600Y-97561400D03*
X91000600Y-96291400D03*
X91000600Y-95021400D03*
X91000600Y-93751400D03*
X96400600Y-93751400D03*
X96400600Y-95021400D03*
X96400600Y-96291400D03*
X96400600Y-97561400D03*
G36*
G01*
X100449801Y-82319600D02*
X99549799Y-82319600D01*
G75*
G02*
X99299800Y-82069601I0J249999D01*
G01*
X99299800Y-81419599D01*
G75*
G02*
X99549799Y-81169600I249999J0D01*
G01*
X100449801Y-81169600D01*
G75*
G02*
X100699800Y-81419599I0J-249999D01*
G01*
X100699800Y-82069601D01*
G75*
G02*
X100449801Y-82319600I-249999J0D01*
G01*
G37*
G36*
G01*
X100449801Y-84369600D02*
X99549799Y-84369600D01*
G75*
G02*
X99299800Y-84119601I0J249999D01*
G01*
X99299800Y-83469599D01*
G75*
G02*
X99549799Y-83219600I249999J0D01*
G01*
X100449801Y-83219600D01*
G75*
G02*
X100699800Y-83469599I0J-249999D01*
G01*
X100699800Y-84119601D01*
G75*
G02*
X100449801Y-84369600I-249999J0D01*
G01*
G37*
G36*
G01*
X171332200Y-63924601D02*
X171332200Y-63024599D01*
G75*
G02*
X171582199Y-62774600I249999J0D01*
G01*
X172232201Y-62774600D01*
G75*
G02*
X172482200Y-63024599I0J-249999D01*
G01*
X172482200Y-63924601D01*
G75*
G02*
X172232201Y-64174600I-249999J0D01*
G01*
X171582199Y-64174600D01*
G75*
G02*
X171332200Y-63924601I0J249999D01*
G01*
G37*
G36*
G01*
X169282200Y-63924601D02*
X169282200Y-63024599D01*
G75*
G02*
X169532199Y-62774600I249999J0D01*
G01*
X170182201Y-62774600D01*
G75*
G02*
X170432200Y-63024599I0J-249999D01*
G01*
X170432200Y-63924601D01*
G75*
G02*
X170182201Y-64174600I-249999J0D01*
G01*
X169532199Y-64174600D01*
G75*
G02*
X169282200Y-63924601I0J249999D01*
G01*
G37*
G36*
G01*
X171357600Y-66388401D02*
X171357600Y-65488399D01*
G75*
G02*
X171607599Y-65238400I249999J0D01*
G01*
X172257601Y-65238400D01*
G75*
G02*
X172507600Y-65488399I0J-249999D01*
G01*
X172507600Y-66388401D01*
G75*
G02*
X172257601Y-66638400I-249999J0D01*
G01*
X171607599Y-66638400D01*
G75*
G02*
X171357600Y-66388401I0J249999D01*
G01*
G37*
G36*
G01*
X169307600Y-66388401D02*
X169307600Y-65488399D01*
G75*
G02*
X169557599Y-65238400I249999J0D01*
G01*
X170207601Y-65238400D01*
G75*
G02*
X170457600Y-65488399I0J-249999D01*
G01*
X170457600Y-66388401D01*
G75*
G02*
X170207601Y-66638400I-249999J0D01*
G01*
X169557599Y-66638400D01*
G75*
G02*
X169307600Y-66388401I0J249999D01*
G01*
G37*
G36*
G01*
X92409000Y-121762000D02*
X92884000Y-121762000D01*
G75*
G02*
X93121500Y-121999500I0J-237500D01*
G01*
X93121500Y-122574500D01*
G75*
G02*
X92884000Y-122812000I-237500J0D01*
G01*
X92409000Y-122812000D01*
G75*
G02*
X92171500Y-122574500I0J237500D01*
G01*
X92171500Y-121999500D01*
G75*
G02*
X92409000Y-121762000I237500J0D01*
G01*
G37*
G36*
G01*
X92409000Y-120012000D02*
X92884000Y-120012000D01*
G75*
G02*
X93121500Y-120249500I0J-237500D01*
G01*
X93121500Y-120824500D01*
G75*
G02*
X92884000Y-121062000I-237500J0D01*
G01*
X92409000Y-121062000D01*
G75*
G02*
X92171500Y-120824500I0J237500D01*
G01*
X92171500Y-120249500D01*
G75*
G02*
X92409000Y-120012000I237500J0D01*
G01*
G37*
G36*
G01*
X137650000Y-84287500D02*
X137650000Y-84762500D01*
G75*
G02*
X137412500Y-85000000I-237500J0D01*
G01*
X136837500Y-85000000D01*
G75*
G02*
X136600000Y-84762500I0J237500D01*
G01*
X136600000Y-84287500D01*
G75*
G02*
X136837500Y-84050000I237500J0D01*
G01*
X137412500Y-84050000D01*
G75*
G02*
X137650000Y-84287500I0J-237500D01*
G01*
G37*
G36*
G01*
X139400000Y-84287500D02*
X139400000Y-84762500D01*
G75*
G02*
X139162500Y-85000000I-237500J0D01*
G01*
X138587500Y-85000000D01*
G75*
G02*
X138350000Y-84762500I0J237500D01*
G01*
X138350000Y-84287500D01*
G75*
G02*
X138587500Y-84050000I237500J0D01*
G01*
X139162500Y-84050000D01*
G75*
G02*
X139400000Y-84287500I0J-237500D01*
G01*
G37*
G36*
G01*
X135401600Y-105477300D02*
X135401600Y-105952300D01*
G75*
G02*
X135164100Y-106189800I-237500J0D01*
G01*
X134589100Y-106189800D01*
G75*
G02*
X134351600Y-105952300I0J237500D01*
G01*
X134351600Y-105477300D01*
G75*
G02*
X134589100Y-105239800I237500J0D01*
G01*
X135164100Y-105239800D01*
G75*
G02*
X135401600Y-105477300I0J-237500D01*
G01*
G37*
G36*
G01*
X137151600Y-105477300D02*
X137151600Y-105952300D01*
G75*
G02*
X136914100Y-106189800I-237500J0D01*
G01*
X136339100Y-106189800D01*
G75*
G02*
X136101600Y-105952300I0J237500D01*
G01*
X136101600Y-105477300D01*
G75*
G02*
X136339100Y-105239800I237500J0D01*
G01*
X136914100Y-105239800D01*
G75*
G02*
X137151600Y-105477300I0J-237500D01*
G01*
G37*
G36*
G01*
X133750000Y-84762500D02*
X133750000Y-84287500D01*
G75*
G02*
X133987500Y-84050000I237500J0D01*
G01*
X134562500Y-84050000D01*
G75*
G02*
X134800000Y-84287500I0J-237500D01*
G01*
X134800000Y-84762500D01*
G75*
G02*
X134562500Y-85000000I-237500J0D01*
G01*
X133987500Y-85000000D01*
G75*
G02*
X133750000Y-84762500I0J237500D01*
G01*
G37*
G36*
G01*
X132000000Y-84762500D02*
X132000000Y-84287500D01*
G75*
G02*
X132237500Y-84050000I237500J0D01*
G01*
X132812500Y-84050000D01*
G75*
G02*
X133050000Y-84287500I0J-237500D01*
G01*
X133050000Y-84762500D01*
G75*
G02*
X132812500Y-85000000I-237500J0D01*
G01*
X132237500Y-85000000D01*
G75*
G02*
X132000000Y-84762500I0J237500D01*
G01*
G37*
G36*
G01*
X140408140Y-94992200D02*
X140408140Y-94517200D01*
G75*
G02*
X140645640Y-94279700I237500J0D01*
G01*
X141220640Y-94279700D01*
G75*
G02*
X141458140Y-94517200I0J-237500D01*
G01*
X141458140Y-94992200D01*
G75*
G02*
X141220640Y-95229700I-237500J0D01*
G01*
X140645640Y-95229700D01*
G75*
G02*
X140408140Y-94992200I0J237500D01*
G01*
G37*
G36*
G01*
X138658140Y-94992200D02*
X138658140Y-94517200D01*
G75*
G02*
X138895640Y-94279700I237500J0D01*
G01*
X139470640Y-94279700D01*
G75*
G02*
X139708140Y-94517200I0J-237500D01*
G01*
X139708140Y-94992200D01*
G75*
G02*
X139470640Y-95229700I-237500J0D01*
G01*
X138895640Y-95229700D01*
G75*
G02*
X138658140Y-94992200I0J237500D01*
G01*
G37*
G36*
G01*
X126254500Y-97304200D02*
X126729500Y-97304200D01*
G75*
G02*
X126967000Y-97541700I0J-237500D01*
G01*
X126967000Y-98116700D01*
G75*
G02*
X126729500Y-98354200I-237500J0D01*
G01*
X126254500Y-98354200D01*
G75*
G02*
X126017000Y-98116700I0J237500D01*
G01*
X126017000Y-97541700D01*
G75*
G02*
X126254500Y-97304200I237500J0D01*
G01*
G37*
G36*
G01*
X126254500Y-95554200D02*
X126729500Y-95554200D01*
G75*
G02*
X126967000Y-95791700I0J-237500D01*
G01*
X126967000Y-96366700D01*
G75*
G02*
X126729500Y-96604200I-237500J0D01*
G01*
X126254500Y-96604200D01*
G75*
G02*
X126017000Y-96366700I0J237500D01*
G01*
X126017000Y-95791700D01*
G75*
G02*
X126254500Y-95554200I237500J0D01*
G01*
G37*
G36*
G01*
X141493960Y-96902280D02*
X141493960Y-96427280D01*
G75*
G02*
X141731460Y-96189780I237500J0D01*
G01*
X142306460Y-96189780D01*
G75*
G02*
X142543960Y-96427280I0J-237500D01*
G01*
X142543960Y-96902280D01*
G75*
G02*
X142306460Y-97139780I-237500J0D01*
G01*
X141731460Y-97139780D01*
G75*
G02*
X141493960Y-96902280I0J237500D01*
G01*
G37*
G36*
G01*
X139743960Y-96902280D02*
X139743960Y-96427280D01*
G75*
G02*
X139981460Y-96189780I237500J0D01*
G01*
X140556460Y-96189780D01*
G75*
G02*
X140793960Y-96427280I0J-237500D01*
G01*
X140793960Y-96902280D01*
G75*
G02*
X140556460Y-97139780I-237500J0D01*
G01*
X139981460Y-97139780D01*
G75*
G02*
X139743960Y-96902280I0J237500D01*
G01*
G37*
G36*
G01*
X134800000Y-90637500D02*
X134800000Y-90162500D01*
G75*
G02*
X135037500Y-89925000I237500J0D01*
G01*
X135612500Y-89925000D01*
G75*
G02*
X135850000Y-90162500I0J-237500D01*
G01*
X135850000Y-90637500D01*
G75*
G02*
X135612500Y-90875000I-237500J0D01*
G01*
X135037500Y-90875000D01*
G75*
G02*
X134800000Y-90637500I0J237500D01*
G01*
G37*
G36*
G01*
X133050000Y-90637500D02*
X133050000Y-90162500D01*
G75*
G02*
X133287500Y-89925000I237500J0D01*
G01*
X133862500Y-89925000D01*
G75*
G02*
X134100000Y-90162500I0J-237500D01*
G01*
X134100000Y-90637500D01*
G75*
G02*
X133862500Y-90875000I-237500J0D01*
G01*
X133287500Y-90875000D01*
G75*
G02*
X133050000Y-90637500I0J237500D01*
G01*
G37*
G36*
G01*
X106162500Y-84725000D02*
X105687500Y-84725000D01*
G75*
G02*
X105450000Y-84487500I0J237500D01*
G01*
X105450000Y-83912500D01*
G75*
G02*
X105687500Y-83675000I237500J0D01*
G01*
X106162500Y-83675000D01*
G75*
G02*
X106400000Y-83912500I0J-237500D01*
G01*
X106400000Y-84487500D01*
G75*
G02*
X106162500Y-84725000I-237500J0D01*
G01*
G37*
G36*
G01*
X106162500Y-86475000D02*
X105687500Y-86475000D01*
G75*
G02*
X105450000Y-86237500I0J237500D01*
G01*
X105450000Y-85662500D01*
G75*
G02*
X105687500Y-85425000I237500J0D01*
G01*
X106162500Y-85425000D01*
G75*
G02*
X106400000Y-85662500I0J-237500D01*
G01*
X106400000Y-86237500D01*
G75*
G02*
X106162500Y-86475000I-237500J0D01*
G01*
G37*
G36*
G01*
X107200000Y-82837500D02*
X107200000Y-82362500D01*
G75*
G02*
X107437500Y-82125000I237500J0D01*
G01*
X108012500Y-82125000D01*
G75*
G02*
X108250000Y-82362500I0J-237500D01*
G01*
X108250000Y-82837500D01*
G75*
G02*
X108012500Y-83075000I-237500J0D01*
G01*
X107437500Y-83075000D01*
G75*
G02*
X107200000Y-82837500I0J237500D01*
G01*
G37*
G36*
G01*
X105450000Y-82837500D02*
X105450000Y-82362500D01*
G75*
G02*
X105687500Y-82125000I237500J0D01*
G01*
X106262500Y-82125000D01*
G75*
G02*
X106500000Y-82362500I0J-237500D01*
G01*
X106500000Y-82837500D01*
G75*
G02*
X106262500Y-83075000I-237500J0D01*
G01*
X105687500Y-83075000D01*
G75*
G02*
X105450000Y-82837500I0J237500D01*
G01*
G37*
G36*
G01*
X108012500Y-79700000D02*
X107537500Y-79700000D01*
G75*
G02*
X107300000Y-79462500I0J237500D01*
G01*
X107300000Y-78887500D01*
G75*
G02*
X107537500Y-78650000I237500J0D01*
G01*
X108012500Y-78650000D01*
G75*
G02*
X108250000Y-78887500I0J-237500D01*
G01*
X108250000Y-79462500D01*
G75*
G02*
X108012500Y-79700000I-237500J0D01*
G01*
G37*
G36*
G01*
X108012500Y-81450000D02*
X107537500Y-81450000D01*
G75*
G02*
X107300000Y-81212500I0J237500D01*
G01*
X107300000Y-80637500D01*
G75*
G02*
X107537500Y-80400000I237500J0D01*
G01*
X108012500Y-80400000D01*
G75*
G02*
X108250000Y-80637500I0J-237500D01*
G01*
X108250000Y-81212500D01*
G75*
G02*
X108012500Y-81450000I-237500J0D01*
G01*
G37*
G36*
G01*
X110600000Y-86191100D02*
X110600000Y-85716100D01*
G75*
G02*
X110837500Y-85478600I237500J0D01*
G01*
X111412500Y-85478600D01*
G75*
G02*
X111650000Y-85716100I0J-237500D01*
G01*
X111650000Y-86191100D01*
G75*
G02*
X111412500Y-86428600I-237500J0D01*
G01*
X110837500Y-86428600D01*
G75*
G02*
X110600000Y-86191100I0J237500D01*
G01*
G37*
G36*
G01*
X108850000Y-86191100D02*
X108850000Y-85716100D01*
G75*
G02*
X109087500Y-85478600I237500J0D01*
G01*
X109662500Y-85478600D01*
G75*
G02*
X109900000Y-85716100I0J-237500D01*
G01*
X109900000Y-86191100D01*
G75*
G02*
X109662500Y-86428600I-237500J0D01*
G01*
X109087500Y-86428600D01*
G75*
G02*
X108850000Y-86191100I0J237500D01*
G01*
G37*
G36*
G01*
X101427800Y-98060500D02*
X101427800Y-98535500D01*
G75*
G02*
X101190300Y-98773000I-237500J0D01*
G01*
X100615300Y-98773000D01*
G75*
G02*
X100377800Y-98535500I0J237500D01*
G01*
X100377800Y-98060500D01*
G75*
G02*
X100615300Y-97823000I237500J0D01*
G01*
X101190300Y-97823000D01*
G75*
G02*
X101427800Y-98060500I0J-237500D01*
G01*
G37*
G36*
G01*
X103177800Y-98060500D02*
X103177800Y-98535500D01*
G75*
G02*
X102940300Y-98773000I-237500J0D01*
G01*
X102365300Y-98773000D01*
G75*
G02*
X102127800Y-98535500I0J237500D01*
G01*
X102127800Y-98060500D01*
G75*
G02*
X102365300Y-97823000I237500J0D01*
G01*
X102940300Y-97823000D01*
G75*
G02*
X103177800Y-98060500I0J-237500D01*
G01*
G37*
G36*
G01*
X98484700Y-95269600D02*
X98009700Y-95269600D01*
G75*
G02*
X97772200Y-95032100I0J237500D01*
G01*
X97772200Y-94457100D01*
G75*
G02*
X98009700Y-94219600I237500J0D01*
G01*
X98484700Y-94219600D01*
G75*
G02*
X98722200Y-94457100I0J-237500D01*
G01*
X98722200Y-95032100D01*
G75*
G02*
X98484700Y-95269600I-237500J0D01*
G01*
G37*
G36*
G01*
X98484700Y-97019600D02*
X98009700Y-97019600D01*
G75*
G02*
X97772200Y-96782100I0J237500D01*
G01*
X97772200Y-96207100D01*
G75*
G02*
X98009700Y-95969600I237500J0D01*
G01*
X98484700Y-95969600D01*
G75*
G02*
X98722200Y-96207100I0J-237500D01*
G01*
X98722200Y-96782100D01*
G75*
G02*
X98484700Y-97019600I-237500J0D01*
G01*
G37*
G36*
G01*
X92150000Y-91887500D02*
X92150000Y-92362500D01*
G75*
G02*
X91912500Y-92600000I-237500J0D01*
G01*
X91337500Y-92600000D01*
G75*
G02*
X91100000Y-92362500I0J237500D01*
G01*
X91100000Y-91887500D01*
G75*
G02*
X91337500Y-91650000I237500J0D01*
G01*
X91912500Y-91650000D01*
G75*
G02*
X92150000Y-91887500I0J-237500D01*
G01*
G37*
G36*
G01*
X93900000Y-91887500D02*
X93900000Y-92362500D01*
G75*
G02*
X93662500Y-92600000I-237500J0D01*
G01*
X93087500Y-92600000D01*
G75*
G02*
X92850000Y-92362500I0J237500D01*
G01*
X92850000Y-91887500D01*
G75*
G02*
X93087500Y-91650000I237500J0D01*
G01*
X93662500Y-91650000D01*
G75*
G02*
X93900000Y-91887500I0J-237500D01*
G01*
G37*
G36*
G01*
X166658840Y-84400380D02*
X166658840Y-84875380D01*
G75*
G02*
X166421340Y-85112880I-237500J0D01*
G01*
X165846340Y-85112880D01*
G75*
G02*
X165608840Y-84875380I0J237500D01*
G01*
X165608840Y-84400380D01*
G75*
G02*
X165846340Y-84162880I237500J0D01*
G01*
X166421340Y-84162880D01*
G75*
G02*
X166658840Y-84400380I0J-237500D01*
G01*
G37*
G36*
G01*
X168408840Y-84400380D02*
X168408840Y-84875380D01*
G75*
G02*
X168171340Y-85112880I-237500J0D01*
G01*
X167596340Y-85112880D01*
G75*
G02*
X167358840Y-84875380I0J237500D01*
G01*
X167358840Y-84400380D01*
G75*
G02*
X167596340Y-84162880I237500J0D01*
G01*
X168171340Y-84162880D01*
G75*
G02*
X168408840Y-84400380I0J-237500D01*
G01*
G37*
G36*
G01*
X161270940Y-80861680D02*
X161745940Y-80861680D01*
G75*
G02*
X161983440Y-81099180I0J-237500D01*
G01*
X161983440Y-81674180D01*
G75*
G02*
X161745940Y-81911680I-237500J0D01*
G01*
X161270940Y-81911680D01*
G75*
G02*
X161033440Y-81674180I0J237500D01*
G01*
X161033440Y-81099180D01*
G75*
G02*
X161270940Y-80861680I237500J0D01*
G01*
G37*
G36*
G01*
X161270940Y-79111680D02*
X161745940Y-79111680D01*
G75*
G02*
X161983440Y-79349180I0J-237500D01*
G01*
X161983440Y-79924180D01*
G75*
G02*
X161745940Y-80161680I-237500J0D01*
G01*
X161270940Y-80161680D01*
G75*
G02*
X161033440Y-79924180I0J237500D01*
G01*
X161033440Y-79349180D01*
G75*
G02*
X161270940Y-79111680I237500J0D01*
G01*
G37*
G36*
G01*
X163278040Y-82876380D02*
X163278040Y-83351380D01*
G75*
G02*
X163040540Y-83588880I-237500J0D01*
G01*
X162465540Y-83588880D01*
G75*
G02*
X162228040Y-83351380I0J237500D01*
G01*
X162228040Y-82876380D01*
G75*
G02*
X162465540Y-82638880I237500J0D01*
G01*
X163040540Y-82638880D01*
G75*
G02*
X163278040Y-82876380I0J-237500D01*
G01*
G37*
G36*
G01*
X165028040Y-82876380D02*
X165028040Y-83351380D01*
G75*
G02*
X164790540Y-83588880I-237500J0D01*
G01*
X164215540Y-83588880D01*
G75*
G02*
X163978040Y-83351380I0J237500D01*
G01*
X163978040Y-82876380D01*
G75*
G02*
X164215540Y-82638880I237500J0D01*
G01*
X164790540Y-82638880D01*
G75*
G02*
X165028040Y-82876380I0J-237500D01*
G01*
G37*
G36*
G01*
X166430240Y-77694780D02*
X166430240Y-78169780D01*
G75*
G02*
X166192740Y-78407280I-237500J0D01*
G01*
X165617740Y-78407280D01*
G75*
G02*
X165380240Y-78169780I0J237500D01*
G01*
X165380240Y-77694780D01*
G75*
G02*
X165617740Y-77457280I237500J0D01*
G01*
X166192740Y-77457280D01*
G75*
G02*
X166430240Y-77694780I0J-237500D01*
G01*
G37*
G36*
G01*
X168180240Y-77694780D02*
X168180240Y-78169780D01*
G75*
G02*
X167942740Y-78407280I-237500J0D01*
G01*
X167367740Y-78407280D01*
G75*
G02*
X167130240Y-78169780I0J237500D01*
G01*
X167130240Y-77694780D01*
G75*
G02*
X167367740Y-77457280I237500J0D01*
G01*
X167942740Y-77457280D01*
G75*
G02*
X168180240Y-77694780I0J-237500D01*
G01*
G37*
G36*
G01*
X174921300Y-92727500D02*
X175396300Y-92727500D01*
G75*
G02*
X175633800Y-92965000I0J-237500D01*
G01*
X175633800Y-93540000D01*
G75*
G02*
X175396300Y-93777500I-237500J0D01*
G01*
X174921300Y-93777500D01*
G75*
G02*
X174683800Y-93540000I0J237500D01*
G01*
X174683800Y-92965000D01*
G75*
G02*
X174921300Y-92727500I237500J0D01*
G01*
G37*
G36*
G01*
X174921300Y-90977500D02*
X175396300Y-90977500D01*
G75*
G02*
X175633800Y-91215000I0J-237500D01*
G01*
X175633800Y-91790000D01*
G75*
G02*
X175396300Y-92027500I-237500J0D01*
G01*
X174921300Y-92027500D01*
G75*
G02*
X174683800Y-91790000I0J237500D01*
G01*
X174683800Y-91215000D01*
G75*
G02*
X174921300Y-90977500I237500J0D01*
G01*
G37*
G36*
G01*
X100449801Y-95146600D02*
X99549799Y-95146600D01*
G75*
G02*
X99299800Y-94896601I0J249999D01*
G01*
X99299800Y-94246599D01*
G75*
G02*
X99549799Y-93996600I249999J0D01*
G01*
X100449801Y-93996600D01*
G75*
G02*
X100699800Y-94246599I0J-249999D01*
G01*
X100699800Y-94896601D01*
G75*
G02*
X100449801Y-95146600I-249999J0D01*
G01*
G37*
G36*
G01*
X100449801Y-97196600D02*
X99549799Y-97196600D01*
G75*
G02*
X99299800Y-96946601I0J249999D01*
G01*
X99299800Y-96296599D01*
G75*
G02*
X99549799Y-96046600I249999J0D01*
G01*
X100449801Y-96046600D01*
G75*
G02*
X100699800Y-96296599I0J-249999D01*
G01*
X100699800Y-96946601D01*
G75*
G02*
X100449801Y-97196600I-249999J0D01*
G01*
G37*
G36*
G01*
X151553400Y-60087500D02*
X151553400Y-60562500D01*
G75*
G02*
X151315900Y-60800000I-237500J0D01*
G01*
X150740900Y-60800000D01*
G75*
G02*
X150503400Y-60562500I0J237500D01*
G01*
X150503400Y-60087500D01*
G75*
G02*
X150740900Y-59850000I237500J0D01*
G01*
X151315900Y-59850000D01*
G75*
G02*
X151553400Y-60087500I0J-237500D01*
G01*
G37*
G36*
G01*
X153303400Y-60087500D02*
X153303400Y-60562500D01*
G75*
G02*
X153065900Y-60800000I-237500J0D01*
G01*
X152490900Y-60800000D01*
G75*
G02*
X152253400Y-60562500I0J237500D01*
G01*
X152253400Y-60087500D01*
G75*
G02*
X152490900Y-59850000I237500J0D01*
G01*
X153065900Y-59850000D01*
G75*
G02*
X153303400Y-60087500I0J-237500D01*
G01*
G37*
G36*
G01*
X151556000Y-61662300D02*
X151556000Y-62137300D01*
G75*
G02*
X151318500Y-62374800I-237500J0D01*
G01*
X150743500Y-62374800D01*
G75*
G02*
X150506000Y-62137300I0J237500D01*
G01*
X150506000Y-61662300D01*
G75*
G02*
X150743500Y-61424800I237500J0D01*
G01*
X151318500Y-61424800D01*
G75*
G02*
X151556000Y-61662300I0J-237500D01*
G01*
G37*
G36*
G01*
X153306000Y-61662300D02*
X153306000Y-62137300D01*
G75*
G02*
X153068500Y-62374800I-237500J0D01*
G01*
X152493500Y-62374800D01*
G75*
G02*
X152256000Y-62137300I0J237500D01*
G01*
X152256000Y-61662300D01*
G75*
G02*
X152493500Y-61424800I237500J0D01*
G01*
X153068500Y-61424800D01*
G75*
G02*
X153306000Y-61662300I0J-237500D01*
G01*
G37*
G36*
G01*
X149596000Y-61288300D02*
X148346000Y-61288300D01*
G75*
G02*
X148096000Y-61038300I0J250000D01*
G01*
X148096000Y-60113300D01*
G75*
G02*
X148346000Y-59863300I250000J0D01*
G01*
X149596000Y-59863300D01*
G75*
G02*
X149846000Y-60113300I0J-250000D01*
G01*
X149846000Y-61038300D01*
G75*
G02*
X149596000Y-61288300I-250000J0D01*
G01*
G37*
G36*
G01*
X149596000Y-64263300D02*
X148346000Y-64263300D01*
G75*
G02*
X148096000Y-64013300I0J250000D01*
G01*
X148096000Y-63088300D01*
G75*
G02*
X148346000Y-62838300I250000J0D01*
G01*
X149596000Y-62838300D01*
G75*
G02*
X149846000Y-63088300I0J-250000D01*
G01*
X149846000Y-64013300D01*
G75*
G02*
X149596000Y-64263300I-250000J0D01*
G01*
G37*
G36*
G01*
X174949400Y-60493900D02*
X174949400Y-60968900D01*
G75*
G02*
X174711900Y-61206400I-237500J0D01*
G01*
X174136900Y-61206400D01*
G75*
G02*
X173899400Y-60968900I0J237500D01*
G01*
X173899400Y-60493900D01*
G75*
G02*
X174136900Y-60256400I237500J0D01*
G01*
X174711900Y-60256400D01*
G75*
G02*
X174949400Y-60493900I0J-237500D01*
G01*
G37*
G36*
G01*
X176699400Y-60493900D02*
X176699400Y-60968900D01*
G75*
G02*
X176461900Y-61206400I-237500J0D01*
G01*
X175886900Y-61206400D01*
G75*
G02*
X175649400Y-60968900I0J237500D01*
G01*
X175649400Y-60493900D01*
G75*
G02*
X175886900Y-60256400I237500J0D01*
G01*
X176461900Y-60256400D01*
G75*
G02*
X176699400Y-60493900I0J-237500D01*
G01*
G37*
G36*
G01*
X93000000Y-61737500D02*
X94250000Y-61737500D01*
G75*
G02*
X94500000Y-61987500I0J-250000D01*
G01*
X94500000Y-62912500D01*
G75*
G02*
X94250000Y-63162500I-250000J0D01*
G01*
X93000000Y-63162500D01*
G75*
G02*
X92750000Y-62912500I0J250000D01*
G01*
X92750000Y-61987500D01*
G75*
G02*
X93000000Y-61737500I250000J0D01*
G01*
G37*
G36*
G01*
X93000000Y-58762500D02*
X94250000Y-58762500D01*
G75*
G02*
X94500000Y-59012500I0J-250000D01*
G01*
X94500000Y-59937500D01*
G75*
G02*
X94250000Y-60187500I-250000J0D01*
G01*
X93000000Y-60187500D01*
G75*
G02*
X92750000Y-59937500I0J250000D01*
G01*
X92750000Y-59012500D01*
G75*
G02*
X93000000Y-58762500I250000J0D01*
G01*
G37*
G36*
G01*
X166823880Y-106086900D02*
X166823880Y-106561900D01*
G75*
G02*
X166586380Y-106799400I-237500J0D01*
G01*
X166011380Y-106799400D01*
G75*
G02*
X165773880Y-106561900I0J237500D01*
G01*
X165773880Y-106086900D01*
G75*
G02*
X166011380Y-105849400I237500J0D01*
G01*
X166586380Y-105849400D01*
G75*
G02*
X166823880Y-106086900I0J-237500D01*
G01*
G37*
G36*
G01*
X168573880Y-106086900D02*
X168573880Y-106561900D01*
G75*
G02*
X168336380Y-106799400I-237500J0D01*
G01*
X167761380Y-106799400D01*
G75*
G02*
X167523880Y-106561900I0J237500D01*
G01*
X167523880Y-106086900D01*
G75*
G02*
X167761380Y-105849400I237500J0D01*
G01*
X168336380Y-105849400D01*
G75*
G02*
X168573880Y-106086900I0J-237500D01*
G01*
G37*
G36*
G01*
X169749460Y-103228920D02*
X170224460Y-103228920D01*
G75*
G02*
X170461960Y-103466420I0J-237500D01*
G01*
X170461960Y-104041420D01*
G75*
G02*
X170224460Y-104278920I-237500J0D01*
G01*
X169749460Y-104278920D01*
G75*
G02*
X169511960Y-104041420I0J237500D01*
G01*
X169511960Y-103466420D01*
G75*
G02*
X169749460Y-103228920I237500J0D01*
G01*
G37*
G36*
G01*
X169749460Y-101478920D02*
X170224460Y-101478920D01*
G75*
G02*
X170461960Y-101716420I0J-237500D01*
G01*
X170461960Y-102291420D01*
G75*
G02*
X170224460Y-102528920I-237500J0D01*
G01*
X169749460Y-102528920D01*
G75*
G02*
X169511960Y-102291420I0J237500D01*
G01*
X169511960Y-101716420D01*
G75*
G02*
X169749460Y-101478920I237500J0D01*
G01*
G37*
G36*
G01*
X161768780Y-102599000D02*
X162243780Y-102599000D01*
G75*
G02*
X162481280Y-102836500I0J-237500D01*
G01*
X162481280Y-103411500D01*
G75*
G02*
X162243780Y-103649000I-237500J0D01*
G01*
X161768780Y-103649000D01*
G75*
G02*
X161531280Y-103411500I0J237500D01*
G01*
X161531280Y-102836500D01*
G75*
G02*
X161768780Y-102599000I237500J0D01*
G01*
G37*
G36*
G01*
X161768780Y-100849000D02*
X162243780Y-100849000D01*
G75*
G02*
X162481280Y-101086500I0J-237500D01*
G01*
X162481280Y-101661500D01*
G75*
G02*
X162243780Y-101899000I-237500J0D01*
G01*
X161768780Y-101899000D01*
G75*
G02*
X161531280Y-101661500I0J237500D01*
G01*
X161531280Y-101086500D01*
G75*
G02*
X161768780Y-100849000I237500J0D01*
G01*
G37*
G36*
G01*
X163458380Y-104562900D02*
X163458380Y-105037900D01*
G75*
G02*
X163220880Y-105275400I-237500J0D01*
G01*
X162645880Y-105275400D01*
G75*
G02*
X162408380Y-105037900I0J237500D01*
G01*
X162408380Y-104562900D01*
G75*
G02*
X162645880Y-104325400I237500J0D01*
G01*
X163220880Y-104325400D01*
G75*
G02*
X163458380Y-104562900I0J-237500D01*
G01*
G37*
G36*
G01*
X165208380Y-104562900D02*
X165208380Y-105037900D01*
G75*
G02*
X164970880Y-105275400I-237500J0D01*
G01*
X164395880Y-105275400D01*
G75*
G02*
X164158380Y-105037900I0J237500D01*
G01*
X164158380Y-104562900D01*
G75*
G02*
X164395880Y-104325400I237500J0D01*
G01*
X164970880Y-104325400D01*
G75*
G02*
X165208380Y-104562900I0J-237500D01*
G01*
G37*
G36*
G01*
X167187160Y-99411780D02*
X167187160Y-99886780D01*
G75*
G02*
X166949660Y-100124280I-237500J0D01*
G01*
X166374660Y-100124280D01*
G75*
G02*
X166137160Y-99886780I0J237500D01*
G01*
X166137160Y-99411780D01*
G75*
G02*
X166374660Y-99174280I237500J0D01*
G01*
X166949660Y-99174280D01*
G75*
G02*
X167187160Y-99411780I0J-237500D01*
G01*
G37*
G36*
G01*
X168937160Y-99411780D02*
X168937160Y-99886780D01*
G75*
G02*
X168699660Y-100124280I-237500J0D01*
G01*
X168124660Y-100124280D01*
G75*
G02*
X167887160Y-99886780I0J237500D01*
G01*
X167887160Y-99411780D01*
G75*
G02*
X168124660Y-99174280I237500J0D01*
G01*
X168699660Y-99174280D01*
G75*
G02*
X168937160Y-99411780I0J-237500D01*
G01*
G37*
G36*
G01*
X164002000Y-127651500D02*
X164002000Y-128126500D01*
G75*
G02*
X163764500Y-128364000I-237500J0D01*
G01*
X163189500Y-128364000D01*
G75*
G02*
X162952000Y-128126500I0J237500D01*
G01*
X162952000Y-127651500D01*
G75*
G02*
X163189500Y-127414000I237500J0D01*
G01*
X163764500Y-127414000D01*
G75*
G02*
X164002000Y-127651500I0J-237500D01*
G01*
G37*
G36*
G01*
X165752000Y-127651500D02*
X165752000Y-128126500D01*
G75*
G02*
X165514500Y-128364000I-237500J0D01*
G01*
X164939500Y-128364000D01*
G75*
G02*
X164702000Y-128126500I0J237500D01*
G01*
X164702000Y-127651500D01*
G75*
G02*
X164939500Y-127414000I237500J0D01*
G01*
X165514500Y-127414000D01*
G75*
G02*
X165752000Y-127651500I0J-237500D01*
G01*
G37*
G36*
G01*
X166403800Y-116010700D02*
X166403800Y-115535700D01*
G75*
G02*
X166641300Y-115298200I237500J0D01*
G01*
X167216300Y-115298200D01*
G75*
G02*
X167453800Y-115535700I0J-237500D01*
G01*
X167453800Y-116010700D01*
G75*
G02*
X167216300Y-116248200I-237500J0D01*
G01*
X166641300Y-116248200D01*
G75*
G02*
X166403800Y-116010700I0J237500D01*
G01*
G37*
G36*
G01*
X164653800Y-116010700D02*
X164653800Y-115535700D01*
G75*
G02*
X164891300Y-115298200I237500J0D01*
G01*
X165466300Y-115298200D01*
G75*
G02*
X165703800Y-115535700I0J-237500D01*
G01*
X165703800Y-116010700D01*
G75*
G02*
X165466300Y-116248200I-237500J0D01*
G01*
X164891300Y-116248200D01*
G75*
G02*
X164653800Y-116010700I0J237500D01*
G01*
G37*
G36*
G01*
X162325600Y-117059700D02*
X162325600Y-117534700D01*
G75*
G02*
X162088100Y-117772200I-237500J0D01*
G01*
X161513100Y-117772200D01*
G75*
G02*
X161275600Y-117534700I0J237500D01*
G01*
X161275600Y-117059700D01*
G75*
G02*
X161513100Y-116822200I237500J0D01*
G01*
X162088100Y-116822200D01*
G75*
G02*
X162325600Y-117059700I0J-237500D01*
G01*
G37*
G36*
G01*
X164075600Y-117059700D02*
X164075600Y-117534700D01*
G75*
G02*
X163838100Y-117772200I-237500J0D01*
G01*
X163263100Y-117772200D01*
G75*
G02*
X163025600Y-117534700I0J237500D01*
G01*
X163025600Y-117059700D01*
G75*
G02*
X163263100Y-116822200I237500J0D01*
G01*
X163838100Y-116822200D01*
G75*
G02*
X164075600Y-117059700I0J-237500D01*
G01*
G37*
G36*
G01*
X149868400Y-126348500D02*
X149868400Y-125873500D01*
G75*
G02*
X150105900Y-125636000I237500J0D01*
G01*
X150680900Y-125636000D01*
G75*
G02*
X150918400Y-125873500I0J-237500D01*
G01*
X150918400Y-126348500D01*
G75*
G02*
X150680900Y-126586000I-237500J0D01*
G01*
X150105900Y-126586000D01*
G75*
G02*
X149868400Y-126348500I0J237500D01*
G01*
G37*
G36*
G01*
X148118400Y-126348500D02*
X148118400Y-125873500D01*
G75*
G02*
X148355900Y-125636000I237500J0D01*
G01*
X148930900Y-125636000D01*
G75*
G02*
X149168400Y-125873500I0J-237500D01*
G01*
X149168400Y-126348500D01*
G75*
G02*
X148930900Y-126586000I-237500J0D01*
G01*
X148355900Y-126586000D01*
G75*
G02*
X148118400Y-126348500I0J237500D01*
G01*
G37*
G36*
G01*
X150537400Y-117923300D02*
X150537400Y-118398300D01*
G75*
G02*
X150299900Y-118635800I-237500J0D01*
G01*
X149724900Y-118635800D01*
G75*
G02*
X149487400Y-118398300I0J237500D01*
G01*
X149487400Y-117923300D01*
G75*
G02*
X149724900Y-117685800I237500J0D01*
G01*
X150299900Y-117685800D01*
G75*
G02*
X150537400Y-117923300I0J-237500D01*
G01*
G37*
G36*
G01*
X152287400Y-117923300D02*
X152287400Y-118398300D01*
G75*
G02*
X152049900Y-118635800I-237500J0D01*
G01*
X151474900Y-118635800D01*
G75*
G02*
X151237400Y-118398300I0J237500D01*
G01*
X151237400Y-117923300D01*
G75*
G02*
X151474900Y-117685800I237500J0D01*
G01*
X152049900Y-117685800D01*
G75*
G02*
X152287400Y-117923300I0J-237500D01*
G01*
G37*
G36*
G01*
X145050500Y-124011200D02*
X145525500Y-124011200D01*
G75*
G02*
X145763000Y-124248700I0J-237500D01*
G01*
X145763000Y-124823700D01*
G75*
G02*
X145525500Y-125061200I-237500J0D01*
G01*
X145050500Y-125061200D01*
G75*
G02*
X144813000Y-124823700I0J237500D01*
G01*
X144813000Y-124248700D01*
G75*
G02*
X145050500Y-124011200I237500J0D01*
G01*
G37*
G36*
G01*
X145050500Y-122261200D02*
X145525500Y-122261200D01*
G75*
G02*
X145763000Y-122498700I0J-237500D01*
G01*
X145763000Y-123073700D01*
G75*
G02*
X145525500Y-123311200I-237500J0D01*
G01*
X145050500Y-123311200D01*
G75*
G02*
X144813000Y-123073700I0J237500D01*
G01*
X144813000Y-122498700D01*
G75*
G02*
X145050500Y-122261200I237500J0D01*
G01*
G37*
G36*
G01*
X147861800Y-118398300D02*
X147861800Y-117923300D01*
G75*
G02*
X148099300Y-117685800I237500J0D01*
G01*
X148674300Y-117685800D01*
G75*
G02*
X148911800Y-117923300I0J-237500D01*
G01*
X148911800Y-118398300D01*
G75*
G02*
X148674300Y-118635800I-237500J0D01*
G01*
X148099300Y-118635800D01*
G75*
G02*
X147861800Y-118398300I0J237500D01*
G01*
G37*
G36*
G01*
X146111800Y-118398300D02*
X146111800Y-117923300D01*
G75*
G02*
X146349300Y-117685800I237500J0D01*
G01*
X146924300Y-117685800D01*
G75*
G02*
X147161800Y-117923300I0J-237500D01*
G01*
X147161800Y-118398300D01*
G75*
G02*
X146924300Y-118635800I-237500J0D01*
G01*
X146349300Y-118635800D01*
G75*
G02*
X146111800Y-118398300I0J237500D01*
G01*
G37*
G36*
G01*
X147151100Y-123311200D02*
X146676100Y-123311200D01*
G75*
G02*
X146438600Y-123073700I0J237500D01*
G01*
X146438600Y-122498700D01*
G75*
G02*
X146676100Y-122261200I237500J0D01*
G01*
X147151100Y-122261200D01*
G75*
G02*
X147388600Y-122498700I0J-237500D01*
G01*
X147388600Y-123073700D01*
G75*
G02*
X147151100Y-123311200I-237500J0D01*
G01*
G37*
G36*
G01*
X147151100Y-125061200D02*
X146676100Y-125061200D01*
G75*
G02*
X146438600Y-124823700I0J237500D01*
G01*
X146438600Y-124248700D01*
G75*
G02*
X146676100Y-124011200I237500J0D01*
G01*
X147151100Y-124011200D01*
G75*
G02*
X147388600Y-124248700I0J-237500D01*
G01*
X147388600Y-124823700D01*
G75*
G02*
X147151100Y-125061200I-237500J0D01*
G01*
G37*
G36*
G01*
X152332700Y-123031800D02*
X151857700Y-123031800D01*
G75*
G02*
X151620200Y-122794300I0J237500D01*
G01*
X151620200Y-122219300D01*
G75*
G02*
X151857700Y-121981800I237500J0D01*
G01*
X152332700Y-121981800D01*
G75*
G02*
X152570200Y-122219300I0J-237500D01*
G01*
X152570200Y-122794300D01*
G75*
G02*
X152332700Y-123031800I-237500J0D01*
G01*
G37*
G36*
G01*
X152332700Y-124781800D02*
X151857700Y-124781800D01*
G75*
G02*
X151620200Y-124544300I0J237500D01*
G01*
X151620200Y-123969300D01*
G75*
G02*
X151857700Y-123731800I237500J0D01*
G01*
X152332700Y-123731800D01*
G75*
G02*
X152570200Y-123969300I0J-237500D01*
G01*
X152570200Y-124544300D01*
G75*
G02*
X152332700Y-124781800I-237500J0D01*
G01*
G37*
D13*
X142951200Y-80619600D03*
X128776200Y-80619600D03*
D14*
X103775000Y-79250000D03*
X105975000Y-79250000D03*
X105975000Y-80950000D03*
X103775000Y-80950000D03*
D10*
X106501800Y-69937600D03*
X106501800Y-74537600D03*
X106501800Y-72237600D03*
D11*
X112801800Y-72237600D03*
D10*
X86740200Y-69912200D03*
X86740200Y-74512200D03*
X86740200Y-72212200D03*
D11*
X93040200Y-72212200D03*
D10*
X125916300Y-69878000D03*
X125916300Y-74478000D03*
X125916300Y-72178000D03*
D11*
X132216300Y-72178000D03*
G36*
G01*
X177837200Y-66019200D02*
X178087200Y-66019200D01*
G75*
G02*
X178212200Y-66144200I0J-125000D01*
G01*
X178212200Y-67519200D01*
G75*
G02*
X178087200Y-67644200I-125000J0D01*
G01*
X177837200Y-67644200D01*
G75*
G02*
X177712200Y-67519200I0J125000D01*
G01*
X177712200Y-66144200D01*
G75*
G02*
X177837200Y-66019200I125000J0D01*
G01*
G37*
G36*
G01*
X177187200Y-66019200D02*
X177437200Y-66019200D01*
G75*
G02*
X177562200Y-66144200I0J-125000D01*
G01*
X177562200Y-67519200D01*
G75*
G02*
X177437200Y-67644200I-125000J0D01*
G01*
X177187200Y-67644200D01*
G75*
G02*
X177062200Y-67519200I0J125000D01*
G01*
X177062200Y-66144200D01*
G75*
G02*
X177187200Y-66019200I125000J0D01*
G01*
G37*
G36*
G01*
X176537200Y-66019200D02*
X176787200Y-66019200D01*
G75*
G02*
X176912200Y-66144200I0J-125000D01*
G01*
X176912200Y-67519200D01*
G75*
G02*
X176787200Y-67644200I-125000J0D01*
G01*
X176537200Y-67644200D01*
G75*
G02*
X176412200Y-67519200I0J125000D01*
G01*
X176412200Y-66144200D01*
G75*
G02*
X176537200Y-66019200I125000J0D01*
G01*
G37*
G36*
G01*
X175887200Y-66019200D02*
X176137200Y-66019200D01*
G75*
G02*
X176262200Y-66144200I0J-125000D01*
G01*
X176262200Y-67519200D01*
G75*
G02*
X176137200Y-67644200I-125000J0D01*
G01*
X175887200Y-67644200D01*
G75*
G02*
X175762200Y-67519200I0J125000D01*
G01*
X175762200Y-66144200D01*
G75*
G02*
X175887200Y-66019200I125000J0D01*
G01*
G37*
G36*
G01*
X175887200Y-61794200D02*
X176137200Y-61794200D01*
G75*
G02*
X176262200Y-61919200I0J-125000D01*
G01*
X176262200Y-63294200D01*
G75*
G02*
X176137200Y-63419200I-125000J0D01*
G01*
X175887200Y-63419200D01*
G75*
G02*
X175762200Y-63294200I0J125000D01*
G01*
X175762200Y-61919200D01*
G75*
G02*
X175887200Y-61794200I125000J0D01*
G01*
G37*
G36*
G01*
X176537200Y-61794200D02*
X176787200Y-61794200D01*
G75*
G02*
X176912200Y-61919200I0J-125000D01*
G01*
X176912200Y-63294200D01*
G75*
G02*
X176787200Y-63419200I-125000J0D01*
G01*
X176537200Y-63419200D01*
G75*
G02*
X176412200Y-63294200I0J125000D01*
G01*
X176412200Y-61919200D01*
G75*
G02*
X176537200Y-61794200I125000J0D01*
G01*
G37*
G36*
G01*
X177187200Y-61794200D02*
X177437200Y-61794200D01*
G75*
G02*
X177562200Y-61919200I0J-125000D01*
G01*
X177562200Y-63294200D01*
G75*
G02*
X177437200Y-63419200I-125000J0D01*
G01*
X177187200Y-63419200D01*
G75*
G02*
X177062200Y-63294200I0J125000D01*
G01*
X177062200Y-61919200D01*
G75*
G02*
X177187200Y-61794200I125000J0D01*
G01*
G37*
G36*
G01*
X177837200Y-61794200D02*
X178087200Y-61794200D01*
G75*
G02*
X178212200Y-61919200I0J-125000D01*
G01*
X178212200Y-63294200D01*
G75*
G02*
X178087200Y-63419200I-125000J0D01*
G01*
X177837200Y-63419200D01*
G75*
G02*
X177712200Y-63294200I0J125000D01*
G01*
X177712200Y-61919200D01*
G75*
G02*
X177837200Y-61794200I125000J0D01*
G01*
G37*
D10*
X146989400Y-69797900D03*
X146989400Y-74397900D03*
X146989400Y-72097900D03*
D11*
X153289400Y-72097900D03*
G36*
G01*
X100018001Y-118286000D02*
X99117999Y-118286000D01*
G75*
G02*
X98868000Y-118036001I0J249999D01*
G01*
X98868000Y-117385999D01*
G75*
G02*
X99117999Y-117136000I249999J0D01*
G01*
X100018001Y-117136000D01*
G75*
G02*
X100268000Y-117385999I0J-249999D01*
G01*
X100268000Y-118036001D01*
G75*
G02*
X100018001Y-118286000I-249999J0D01*
G01*
G37*
G36*
G01*
X100018001Y-120336000D02*
X99117999Y-120336000D01*
G75*
G02*
X98868000Y-120086001I0J249999D01*
G01*
X98868000Y-119435999D01*
G75*
G02*
X99117999Y-119186000I249999J0D01*
G01*
X100018001Y-119186000D01*
G75*
G02*
X100268000Y-119435999I0J-249999D01*
G01*
X100268000Y-120086001D01*
G75*
G02*
X100018001Y-120336000I-249999J0D01*
G01*
G37*
G36*
G01*
X109035001Y-118286000D02*
X108134999Y-118286000D01*
G75*
G02*
X107885000Y-118036001I0J249999D01*
G01*
X107885000Y-117385999D01*
G75*
G02*
X108134999Y-117136000I249999J0D01*
G01*
X109035001Y-117136000D01*
G75*
G02*
X109285000Y-117385999I0J-249999D01*
G01*
X109285000Y-118036001D01*
G75*
G02*
X109035001Y-118286000I-249999J0D01*
G01*
G37*
G36*
G01*
X109035001Y-120336000D02*
X108134999Y-120336000D01*
G75*
G02*
X107885000Y-120086001I0J249999D01*
G01*
X107885000Y-119435999D01*
G75*
G02*
X108134999Y-119186000I249999J0D01*
G01*
X109035001Y-119186000D01*
G75*
G02*
X109285000Y-119435999I0J-249999D01*
G01*
X109285000Y-120086001D01*
G75*
G02*
X109035001Y-120336000I-249999J0D01*
G01*
G37*
G36*
G01*
X126755739Y-111162140D02*
X127655741Y-111162140D01*
G75*
G02*
X127905740Y-111412139I0J-249999D01*
G01*
X127905740Y-112062141D01*
G75*
G02*
X127655741Y-112312140I-249999J0D01*
G01*
X126755739Y-112312140D01*
G75*
G02*
X126505740Y-112062141I0J249999D01*
G01*
X126505740Y-111412139D01*
G75*
G02*
X126755739Y-111162140I249999J0D01*
G01*
G37*
G36*
G01*
X126755739Y-109112140D02*
X127655741Y-109112140D01*
G75*
G02*
X127905740Y-109362139I0J-249999D01*
G01*
X127905740Y-110012141D01*
G75*
G02*
X127655741Y-110262140I-249999J0D01*
G01*
X126755739Y-110262140D01*
G75*
G02*
X126505740Y-110012141I0J249999D01*
G01*
X126505740Y-109362139D01*
G75*
G02*
X126755739Y-109112140I249999J0D01*
G01*
G37*
G36*
G01*
X120278739Y-111162140D02*
X121178741Y-111162140D01*
G75*
G02*
X121428740Y-111412139I0J-249999D01*
G01*
X121428740Y-112062141D01*
G75*
G02*
X121178741Y-112312140I-249999J0D01*
G01*
X120278739Y-112312140D01*
G75*
G02*
X120028740Y-112062141I0J249999D01*
G01*
X120028740Y-111412139D01*
G75*
G02*
X120278739Y-111162140I249999J0D01*
G01*
G37*
G36*
G01*
X120278739Y-109112140D02*
X121178741Y-109112140D01*
G75*
G02*
X121428740Y-109362139I0J-249999D01*
G01*
X121428740Y-110012141D01*
G75*
G02*
X121178741Y-110262140I-249999J0D01*
G01*
X120278739Y-110262140D01*
G75*
G02*
X120028740Y-110012141I0J249999D01*
G01*
X120028740Y-109362139D01*
G75*
G02*
X120278739Y-109112140I249999J0D01*
G01*
G37*
G36*
G01*
X133296239Y-111098640D02*
X134196241Y-111098640D01*
G75*
G02*
X134446240Y-111348639I0J-249999D01*
G01*
X134446240Y-111998641D01*
G75*
G02*
X134196241Y-112248640I-249999J0D01*
G01*
X133296239Y-112248640D01*
G75*
G02*
X133046240Y-111998641I0J249999D01*
G01*
X133046240Y-111348639D01*
G75*
G02*
X133296239Y-111098640I249999J0D01*
G01*
G37*
G36*
G01*
X133296239Y-109048640D02*
X134196241Y-109048640D01*
G75*
G02*
X134446240Y-109298639I0J-249999D01*
G01*
X134446240Y-109948641D01*
G75*
G02*
X134196241Y-110198640I-249999J0D01*
G01*
X133296239Y-110198640D01*
G75*
G02*
X133046240Y-109948641I0J249999D01*
G01*
X133046240Y-109298639D01*
G75*
G02*
X133296239Y-109048640I249999J0D01*
G01*
G37*
G36*
G01*
X85868200Y-89516799D02*
X85868200Y-90416801D01*
G75*
G02*
X85618201Y-90666800I-249999J0D01*
G01*
X84968199Y-90666800D01*
G75*
G02*
X84718200Y-90416801I0J249999D01*
G01*
X84718200Y-89516799D01*
G75*
G02*
X84968199Y-89266800I249999J0D01*
G01*
X85618201Y-89266800D01*
G75*
G02*
X85868200Y-89516799I0J-249999D01*
G01*
G37*
G36*
G01*
X87918200Y-89516799D02*
X87918200Y-90416801D01*
G75*
G02*
X87668201Y-90666800I-249999J0D01*
G01*
X87018199Y-90666800D01*
G75*
G02*
X86768200Y-90416801I0J249999D01*
G01*
X86768200Y-89516799D01*
G75*
G02*
X87018199Y-89266800I249999J0D01*
G01*
X87668201Y-89266800D01*
G75*
G02*
X87918200Y-89516799I0J-249999D01*
G01*
G37*
G36*
G01*
X120521200Y-57487399D02*
X120521200Y-58387401D01*
G75*
G02*
X120271201Y-58637400I-249999J0D01*
G01*
X119621199Y-58637400D01*
G75*
G02*
X119371200Y-58387401I0J249999D01*
G01*
X119371200Y-57487399D01*
G75*
G02*
X119621199Y-57237400I249999J0D01*
G01*
X120271201Y-57237400D01*
G75*
G02*
X120521200Y-57487399I0J-249999D01*
G01*
G37*
G36*
G01*
X122571200Y-57487399D02*
X122571200Y-58387401D01*
G75*
G02*
X122321201Y-58637400I-249999J0D01*
G01*
X121671199Y-58637400D01*
G75*
G02*
X121421200Y-58387401I0J249999D01*
G01*
X121421200Y-57487399D01*
G75*
G02*
X121671199Y-57237400I249999J0D01*
G01*
X122321201Y-57237400D01*
G75*
G02*
X122571200Y-57487399I0J-249999D01*
G01*
G37*
G36*
G01*
X175813000Y-58944500D02*
X175813000Y-59419500D01*
G75*
G02*
X175575500Y-59657000I-237500J0D01*
G01*
X175000500Y-59657000D01*
G75*
G02*
X174763000Y-59419500I0J237500D01*
G01*
X174763000Y-58944500D01*
G75*
G02*
X175000500Y-58707000I237500J0D01*
G01*
X175575500Y-58707000D01*
G75*
G02*
X175813000Y-58944500I0J-237500D01*
G01*
G37*
G36*
G01*
X177563000Y-58944500D02*
X177563000Y-59419500D01*
G75*
G02*
X177325500Y-59657000I-237500J0D01*
G01*
X176750500Y-59657000D01*
G75*
G02*
X176513000Y-59419500I0J237500D01*
G01*
X176513000Y-58944500D01*
G75*
G02*
X176750500Y-58707000I237500J0D01*
G01*
X177325500Y-58707000D01*
G75*
G02*
X177563000Y-58944500I0J-237500D01*
G01*
G37*
G36*
G01*
X178325000Y-60493900D02*
X178325000Y-60968900D01*
G75*
G02*
X178087500Y-61206400I-237500J0D01*
G01*
X177512500Y-61206400D01*
G75*
G02*
X177275000Y-60968900I0J237500D01*
G01*
X177275000Y-60493900D01*
G75*
G02*
X177512500Y-60256400I237500J0D01*
G01*
X178087500Y-60256400D01*
G75*
G02*
X178325000Y-60493900I0J-237500D01*
G01*
G37*
G36*
G01*
X180075000Y-60493900D02*
X180075000Y-60968900D01*
G75*
G02*
X179837500Y-61206400I-237500J0D01*
G01*
X179262500Y-61206400D01*
G75*
G02*
X179025000Y-60968900I0J237500D01*
G01*
X179025000Y-60493900D01*
G75*
G02*
X179262500Y-60256400I237500J0D01*
G01*
X179837500Y-60256400D01*
G75*
G02*
X180075000Y-60493900I0J-237500D01*
G01*
G37*
D15*
X137067400Y-94201800D03*
X137067400Y-94701800D03*
X137067400Y-95201800D03*
X137067400Y-95701800D03*
X137067400Y-96201800D03*
X137067400Y-96701800D03*
X137067400Y-97201800D03*
X137067400Y-97701800D03*
X137067400Y-98201800D03*
X137067400Y-98701800D03*
X137067400Y-99201800D03*
X137067400Y-99701800D03*
D16*
X135617400Y-101151800D03*
X135117400Y-101151800D03*
X134617400Y-101151800D03*
X134117400Y-101151800D03*
X133617400Y-101151800D03*
X133117400Y-101151800D03*
X132617400Y-101151800D03*
X132117400Y-101151800D03*
X131617400Y-101151800D03*
X131117400Y-101151800D03*
X130617400Y-101151800D03*
X130117400Y-101151800D03*
D15*
X128667400Y-99701800D03*
X128667400Y-99201800D03*
X128667400Y-98701800D03*
X128667400Y-98201800D03*
X128667400Y-97701800D03*
X128667400Y-97201800D03*
X128667400Y-96701800D03*
X128667400Y-96201800D03*
X128667400Y-95701800D03*
X128667400Y-95201800D03*
X128667400Y-94701800D03*
X128667400Y-94201800D03*
D16*
X130117400Y-92751800D03*
X130617400Y-92751800D03*
X131117400Y-92751800D03*
X131617400Y-92751800D03*
X132117400Y-92751800D03*
X132617400Y-92751800D03*
X133117400Y-92751800D03*
X133617400Y-92751800D03*
X134117400Y-92751800D03*
X134617400Y-92751800D03*
X135117400Y-92751800D03*
X135617400Y-92751800D03*
D17*
X110270400Y-89021000D03*
X110270400Y-89821000D03*
X110270400Y-90621000D03*
X110270400Y-91421000D03*
X110270400Y-92221000D03*
X110270400Y-93021000D03*
X110270400Y-93821000D03*
X110270400Y-94621000D03*
D18*
X108870400Y-96021000D03*
X108070400Y-96021000D03*
X107270400Y-96021000D03*
X106470400Y-96021000D03*
X105670400Y-96021000D03*
X104870400Y-96021000D03*
X104070400Y-96021000D03*
X103270400Y-96021000D03*
D17*
X101870400Y-94621000D03*
X101870400Y-93821000D03*
X101870400Y-93021000D03*
X101870400Y-92221000D03*
X101870400Y-91421000D03*
X101870400Y-90621000D03*
X101870400Y-89821000D03*
X101870400Y-89021000D03*
D18*
X103270400Y-87621000D03*
X104070400Y-87621000D03*
X104870400Y-87621000D03*
X105670400Y-87621000D03*
X106470400Y-87621000D03*
X107270400Y-87621000D03*
X108070400Y-87621000D03*
X108870400Y-87621000D03*
D19*
X163283540Y-81498080D03*
X163283540Y-80848080D03*
X163283540Y-80198080D03*
X163283540Y-79548080D03*
X167683540Y-79548080D03*
X167683540Y-80198080D03*
X167683540Y-80848080D03*
X167683540Y-81498080D03*
X163806780Y-103197300D03*
X163806780Y-102547300D03*
X163806780Y-101897300D03*
X163806780Y-101247300D03*
X168206780Y-101247300D03*
X168206780Y-101897300D03*
X168206780Y-102547300D03*
X168206780Y-103197300D03*
D20*
X166255700Y-124531100D03*
X164985700Y-124531100D03*
X163715700Y-124531100D03*
X162445700Y-124531100D03*
X162445700Y-119131100D03*
X163715700Y-119131100D03*
X164985700Y-119131100D03*
X166255700Y-119131100D03*
D21*
X150492100Y-124348600D03*
X149842100Y-124348600D03*
X149192100Y-124348600D03*
X148542100Y-124348600D03*
X148542100Y-119948600D03*
X149192100Y-119948600D03*
X149842100Y-119948600D03*
X150492100Y-119948600D03*
G36*
G01*
X118170000Y-62375201D02*
X118170000Y-61475199D01*
G75*
G02*
X118419999Y-61225200I249999J0D01*
G01*
X119070001Y-61225200D01*
G75*
G02*
X119320000Y-61475199I0J-249999D01*
G01*
X119320000Y-62375201D01*
G75*
G02*
X119070001Y-62625200I-249999J0D01*
G01*
X118419999Y-62625200D01*
G75*
G02*
X118170000Y-62375201I0J249999D01*
G01*
G37*
G36*
G01*
X116120000Y-62375201D02*
X116120000Y-61475199D01*
G75*
G02*
X116369999Y-61225200I249999J0D01*
G01*
X117020001Y-61225200D01*
G75*
G02*
X117270000Y-61475199I0J-249999D01*
G01*
X117270000Y-62375201D01*
G75*
G02*
X117020001Y-62625200I-249999J0D01*
G01*
X116369999Y-62625200D01*
G75*
G02*
X116120000Y-62375201I0J249999D01*
G01*
G37*
G36*
G01*
X119846400Y-65347001D02*
X119846400Y-64446999D01*
G75*
G02*
X120096399Y-64197000I249999J0D01*
G01*
X120746401Y-64197000D01*
G75*
G02*
X120996400Y-64446999I0J-249999D01*
G01*
X120996400Y-65347001D01*
G75*
G02*
X120746401Y-65597000I-249999J0D01*
G01*
X120096399Y-65597000D01*
G75*
G02*
X119846400Y-65347001I0J249999D01*
G01*
G37*
G36*
G01*
X117796400Y-65347001D02*
X117796400Y-64446999D01*
G75*
G02*
X118046399Y-64197000I249999J0D01*
G01*
X118696401Y-64197000D01*
G75*
G02*
X118946400Y-64446999I0J-249999D01*
G01*
X118946400Y-65347001D01*
G75*
G02*
X118696401Y-65597000I-249999J0D01*
G01*
X118046399Y-65597000D01*
G75*
G02*
X117796400Y-65347001I0J249999D01*
G01*
G37*
G36*
G01*
X111083400Y-60063801D02*
X111083400Y-59163799D01*
G75*
G02*
X111333399Y-58913800I249999J0D01*
G01*
X111983401Y-58913800D01*
G75*
G02*
X112233400Y-59163799I0J-249999D01*
G01*
X112233400Y-60063801D01*
G75*
G02*
X111983401Y-60313800I-249999J0D01*
G01*
X111333399Y-60313800D01*
G75*
G02*
X111083400Y-60063801I0J249999D01*
G01*
G37*
G36*
G01*
X109033400Y-60063801D02*
X109033400Y-59163799D01*
G75*
G02*
X109283399Y-58913800I249999J0D01*
G01*
X109933401Y-58913800D01*
G75*
G02*
X110183400Y-59163799I0J-249999D01*
G01*
X110183400Y-60063801D01*
G75*
G02*
X109933401Y-60313800I-249999J0D01*
G01*
X109283399Y-60313800D01*
G75*
G02*
X109033400Y-60063801I0J249999D01*
G01*
G37*
G36*
G01*
X108552401Y-63472800D02*
X107652399Y-63472800D01*
G75*
G02*
X107402400Y-63222801I0J249999D01*
G01*
X107402400Y-62572799D01*
G75*
G02*
X107652399Y-62322800I249999J0D01*
G01*
X108552401Y-62322800D01*
G75*
G02*
X108802400Y-62572799I0J-249999D01*
G01*
X108802400Y-63222801D01*
G75*
G02*
X108552401Y-63472800I-249999J0D01*
G01*
G37*
G36*
G01*
X108552401Y-65522800D02*
X107652399Y-65522800D01*
G75*
G02*
X107402400Y-65272801I0J249999D01*
G01*
X107402400Y-64622799D01*
G75*
G02*
X107652399Y-64372800I249999J0D01*
G01*
X108552401Y-64372800D01*
G75*
G02*
X108802400Y-64622799I0J-249999D01*
G01*
X108802400Y-65272801D01*
G75*
G02*
X108552401Y-65522800I-249999J0D01*
G01*
G37*
G36*
G01*
X98943000Y-124182500D02*
X100193000Y-124182500D01*
G75*
G02*
X100443000Y-124432500I0J-250000D01*
G01*
X100443000Y-125357500D01*
G75*
G02*
X100193000Y-125607500I-250000J0D01*
G01*
X98943000Y-125607500D01*
G75*
G02*
X98693000Y-125357500I0J250000D01*
G01*
X98693000Y-124432500D01*
G75*
G02*
X98943000Y-124182500I250000J0D01*
G01*
G37*
G36*
G01*
X98943000Y-121207500D02*
X100193000Y-121207500D01*
G75*
G02*
X100443000Y-121457500I0J-250000D01*
G01*
X100443000Y-122382500D01*
G75*
G02*
X100193000Y-122632500I-250000J0D01*
G01*
X98943000Y-122632500D01*
G75*
G02*
X98693000Y-122382500I0J250000D01*
G01*
X98693000Y-121457500D01*
G75*
G02*
X98943000Y-121207500I250000J0D01*
G01*
G37*
G36*
G01*
X107960000Y-124182500D02*
X109210000Y-124182500D01*
G75*
G02*
X109460000Y-124432500I0J-250000D01*
G01*
X109460000Y-125357500D01*
G75*
G02*
X109210000Y-125607500I-250000J0D01*
G01*
X107960000Y-125607500D01*
G75*
G02*
X107710000Y-125357500I0J250000D01*
G01*
X107710000Y-124432500D01*
G75*
G02*
X107960000Y-124182500I250000J0D01*
G01*
G37*
G36*
G01*
X107960000Y-121207500D02*
X109210000Y-121207500D01*
G75*
G02*
X109460000Y-121457500I0J-250000D01*
G01*
X109460000Y-122382500D01*
G75*
G02*
X109210000Y-122632500I-250000J0D01*
G01*
X107960000Y-122632500D01*
G75*
G02*
X107710000Y-122382500I0J250000D01*
G01*
X107710000Y-121457500D01*
G75*
G02*
X107960000Y-121207500I250000J0D01*
G01*
G37*
G36*
G01*
X127843440Y-114481640D02*
X126593440Y-114481640D01*
G75*
G02*
X126343440Y-114231640I0J250000D01*
G01*
X126343440Y-113306640D01*
G75*
G02*
X126593440Y-113056640I250000J0D01*
G01*
X127843440Y-113056640D01*
G75*
G02*
X128093440Y-113306640I0J-250000D01*
G01*
X128093440Y-114231640D01*
G75*
G02*
X127843440Y-114481640I-250000J0D01*
G01*
G37*
G36*
G01*
X127843440Y-117456640D02*
X126593440Y-117456640D01*
G75*
G02*
X126343440Y-117206640I0J250000D01*
G01*
X126343440Y-116281640D01*
G75*
G02*
X126593440Y-116031640I250000J0D01*
G01*
X127843440Y-116031640D01*
G75*
G02*
X128093440Y-116281640I0J-250000D01*
G01*
X128093440Y-117206640D01*
G75*
G02*
X127843440Y-117456640I-250000J0D01*
G01*
G37*
G36*
G01*
X121353740Y-114481640D02*
X120103740Y-114481640D01*
G75*
G02*
X119853740Y-114231640I0J250000D01*
G01*
X119853740Y-113306640D01*
G75*
G02*
X120103740Y-113056640I250000J0D01*
G01*
X121353740Y-113056640D01*
G75*
G02*
X121603740Y-113306640I0J-250000D01*
G01*
X121603740Y-114231640D01*
G75*
G02*
X121353740Y-114481640I-250000J0D01*
G01*
G37*
G36*
G01*
X121353740Y-117456640D02*
X120103740Y-117456640D01*
G75*
G02*
X119853740Y-117206640I0J250000D01*
G01*
X119853740Y-116281640D01*
G75*
G02*
X120103740Y-116031640I250000J0D01*
G01*
X121353740Y-116031640D01*
G75*
G02*
X121603740Y-116281640I0J-250000D01*
G01*
X121603740Y-117206640D01*
G75*
G02*
X121353740Y-117456640I-250000J0D01*
G01*
G37*
G36*
G01*
X134371240Y-114481640D02*
X133121240Y-114481640D01*
G75*
G02*
X132871240Y-114231640I0J250000D01*
G01*
X132871240Y-113306640D01*
G75*
G02*
X133121240Y-113056640I250000J0D01*
G01*
X134371240Y-113056640D01*
G75*
G02*
X134621240Y-113306640I0J-250000D01*
G01*
X134621240Y-114231640D01*
G75*
G02*
X134371240Y-114481640I-250000J0D01*
G01*
G37*
G36*
G01*
X134371240Y-117456640D02*
X133121240Y-117456640D01*
G75*
G02*
X132871240Y-117206640I0J250000D01*
G01*
X132871240Y-116281640D01*
G75*
G02*
X133121240Y-116031640I250000J0D01*
G01*
X134371240Y-116031640D01*
G75*
G02*
X134621240Y-116281640I0J-250000D01*
G01*
X134621240Y-117206640D01*
G75*
G02*
X134371240Y-117456640I-250000J0D01*
G01*
G37*
G36*
G01*
X123606400Y-60399900D02*
X124856400Y-60399900D01*
G75*
G02*
X125106400Y-60649900I0J-250000D01*
G01*
X125106400Y-61574900D01*
G75*
G02*
X124856400Y-61824900I-250000J0D01*
G01*
X123606400Y-61824900D01*
G75*
G02*
X123356400Y-61574900I0J250000D01*
G01*
X123356400Y-60649900D01*
G75*
G02*
X123606400Y-60399900I250000J0D01*
G01*
G37*
G36*
G01*
X123606400Y-57424900D02*
X124856400Y-57424900D01*
G75*
G02*
X125106400Y-57674900I0J-250000D01*
G01*
X125106400Y-58599900D01*
G75*
G02*
X124856400Y-58849900I-250000J0D01*
G01*
X123606400Y-58849900D01*
G75*
G02*
X123356400Y-58599900I0J250000D01*
G01*
X123356400Y-57674900D01*
G75*
G02*
X123606400Y-57424900I250000J0D01*
G01*
G37*
G36*
G01*
X140399280Y-93470740D02*
X140399280Y-92995740D01*
G75*
G02*
X140636780Y-92758240I237500J0D01*
G01*
X141211780Y-92758240D01*
G75*
G02*
X141449280Y-92995740I0J-237500D01*
G01*
X141449280Y-93470740D01*
G75*
G02*
X141211780Y-93708240I-237500J0D01*
G01*
X140636780Y-93708240D01*
G75*
G02*
X140399280Y-93470740I0J237500D01*
G01*
G37*
G36*
G01*
X138649280Y-93470740D02*
X138649280Y-92995740D01*
G75*
G02*
X138886780Y-92758240I237500J0D01*
G01*
X139461780Y-92758240D01*
G75*
G02*
X139699280Y-92995740I0J-237500D01*
G01*
X139699280Y-93470740D01*
G75*
G02*
X139461780Y-93708240I-237500J0D01*
G01*
X138886780Y-93708240D01*
G75*
G02*
X138649280Y-93470740I0J237500D01*
G01*
G37*
G36*
G01*
X163278040Y-84400380D02*
X163278040Y-84875380D01*
G75*
G02*
X163040540Y-85112880I-237500J0D01*
G01*
X162465540Y-85112880D01*
G75*
G02*
X162228040Y-84875380I0J237500D01*
G01*
X162228040Y-84400380D01*
G75*
G02*
X162465540Y-84162880I237500J0D01*
G01*
X163040540Y-84162880D01*
G75*
G02*
X163278040Y-84400380I0J-237500D01*
G01*
G37*
G36*
G01*
X165028040Y-84400380D02*
X165028040Y-84875380D01*
G75*
G02*
X164790540Y-85112880I-237500J0D01*
G01*
X164215540Y-85112880D01*
G75*
G02*
X163978040Y-84875380I0J237500D01*
G01*
X163978040Y-84400380D01*
G75*
G02*
X164215540Y-84162880I237500J0D01*
G01*
X164790540Y-84162880D01*
G75*
G02*
X165028040Y-84400380I0J-237500D01*
G01*
G37*
G36*
G01*
X104656900Y-73626200D02*
X104181900Y-73626200D01*
G75*
G02*
X103944400Y-73388700I0J237500D01*
G01*
X103944400Y-72813700D01*
G75*
G02*
X104181900Y-72576200I237500J0D01*
G01*
X104656900Y-72576200D01*
G75*
G02*
X104894400Y-72813700I0J-237500D01*
G01*
X104894400Y-73388700D01*
G75*
G02*
X104656900Y-73626200I-237500J0D01*
G01*
G37*
G36*
G01*
X104656900Y-75376200D02*
X104181900Y-75376200D01*
G75*
G02*
X103944400Y-75138700I0J237500D01*
G01*
X103944400Y-74563700D01*
G75*
G02*
X104181900Y-74326200I237500J0D01*
G01*
X104656900Y-74326200D01*
G75*
G02*
X104894400Y-74563700I0J-237500D01*
G01*
X104894400Y-75138700D01*
G75*
G02*
X104656900Y-75376200I-237500J0D01*
G01*
G37*
G36*
G01*
X84946500Y-73501800D02*
X84471500Y-73501800D01*
G75*
G02*
X84234000Y-73264300I0J237500D01*
G01*
X84234000Y-72689300D01*
G75*
G02*
X84471500Y-72451800I237500J0D01*
G01*
X84946500Y-72451800D01*
G75*
G02*
X85184000Y-72689300I0J-237500D01*
G01*
X85184000Y-73264300D01*
G75*
G02*
X84946500Y-73501800I-237500J0D01*
G01*
G37*
G36*
G01*
X84946500Y-75251800D02*
X84471500Y-75251800D01*
G75*
G02*
X84234000Y-75014300I0J237500D01*
G01*
X84234000Y-74439300D01*
G75*
G02*
X84471500Y-74201800I237500J0D01*
G01*
X84946500Y-74201800D01*
G75*
G02*
X85184000Y-74439300I0J-237500D01*
G01*
X85184000Y-75014300D01*
G75*
G02*
X84946500Y-75251800I-237500J0D01*
G01*
G37*
G36*
G01*
X124087900Y-73473800D02*
X123612900Y-73473800D01*
G75*
G02*
X123375400Y-73236300I0J237500D01*
G01*
X123375400Y-72661300D01*
G75*
G02*
X123612900Y-72423800I237500J0D01*
G01*
X124087900Y-72423800D01*
G75*
G02*
X124325400Y-72661300I0J-237500D01*
G01*
X124325400Y-73236300D01*
G75*
G02*
X124087900Y-73473800I-237500J0D01*
G01*
G37*
G36*
G01*
X124087900Y-75223800D02*
X123612900Y-75223800D01*
G75*
G02*
X123375400Y-74986300I0J237500D01*
G01*
X123375400Y-74411300D01*
G75*
G02*
X123612900Y-74173800I237500J0D01*
G01*
X124087900Y-74173800D01*
G75*
G02*
X124325400Y-74411300I0J-237500D01*
G01*
X124325400Y-74986300D01*
G75*
G02*
X124087900Y-75223800I-237500J0D01*
G01*
G37*
G36*
G01*
X104181900Y-70950600D02*
X104656900Y-70950600D01*
G75*
G02*
X104894400Y-71188100I0J-237500D01*
G01*
X104894400Y-71763100D01*
G75*
G02*
X104656900Y-72000600I-237500J0D01*
G01*
X104181900Y-72000600D01*
G75*
G02*
X103944400Y-71763100I0J237500D01*
G01*
X103944400Y-71188100D01*
G75*
G02*
X104181900Y-70950600I237500J0D01*
G01*
G37*
G36*
G01*
X104181900Y-69200600D02*
X104656900Y-69200600D01*
G75*
G02*
X104894400Y-69438100I0J-237500D01*
G01*
X104894400Y-70013100D01*
G75*
G02*
X104656900Y-70250600I-237500J0D01*
G01*
X104181900Y-70250600D01*
G75*
G02*
X103944400Y-70013100I0J237500D01*
G01*
X103944400Y-69438100D01*
G75*
G02*
X104181900Y-69200600I237500J0D01*
G01*
G37*
G36*
G01*
X84471500Y-70798200D02*
X84946500Y-70798200D01*
G75*
G02*
X85184000Y-71035700I0J-237500D01*
G01*
X85184000Y-71610700D01*
G75*
G02*
X84946500Y-71848200I-237500J0D01*
G01*
X84471500Y-71848200D01*
G75*
G02*
X84234000Y-71610700I0J237500D01*
G01*
X84234000Y-71035700D01*
G75*
G02*
X84471500Y-70798200I237500J0D01*
G01*
G37*
G36*
G01*
X84471500Y-69048200D02*
X84946500Y-69048200D01*
G75*
G02*
X85184000Y-69285700I0J-237500D01*
G01*
X85184000Y-69860700D01*
G75*
G02*
X84946500Y-70098200I-237500J0D01*
G01*
X84471500Y-70098200D01*
G75*
G02*
X84234000Y-69860700I0J237500D01*
G01*
X84234000Y-69285700D01*
G75*
G02*
X84471500Y-69048200I237500J0D01*
G01*
G37*
G36*
G01*
X123612900Y-70798200D02*
X124087900Y-70798200D01*
G75*
G02*
X124325400Y-71035700I0J-237500D01*
G01*
X124325400Y-71610700D01*
G75*
G02*
X124087900Y-71848200I-237500J0D01*
G01*
X123612900Y-71848200D01*
G75*
G02*
X123375400Y-71610700I0J237500D01*
G01*
X123375400Y-71035700D01*
G75*
G02*
X123612900Y-70798200I237500J0D01*
G01*
G37*
G36*
G01*
X123612900Y-69048200D02*
X124087900Y-69048200D01*
G75*
G02*
X124325400Y-69285700I0J-237500D01*
G01*
X124325400Y-69860700D01*
G75*
G02*
X124087900Y-70098200I-237500J0D01*
G01*
X123612900Y-70098200D01*
G75*
G02*
X123375400Y-69860700I0J237500D01*
G01*
X123375400Y-69285700D01*
G75*
G02*
X123612900Y-69048200I237500J0D01*
G01*
G37*
G36*
G01*
X122334600Y-60653300D02*
X120184600Y-60653300D01*
G75*
G02*
X119934600Y-60403300I0J250000D01*
G01*
X119934600Y-59478300D01*
G75*
G02*
X120184600Y-59228300I250000J0D01*
G01*
X122334600Y-59228300D01*
G75*
G02*
X122584600Y-59478300I0J-250000D01*
G01*
X122584600Y-60403300D01*
G75*
G02*
X122334600Y-60653300I-250000J0D01*
G01*
G37*
G36*
G01*
X122334600Y-63628300D02*
X120184600Y-63628300D01*
G75*
G02*
X119934600Y-63378300I0J250000D01*
G01*
X119934600Y-62453300D01*
G75*
G02*
X120184600Y-62203300I250000J0D01*
G01*
X122334600Y-62203300D01*
G75*
G02*
X122584600Y-62453300I0J-250000D01*
G01*
X122584600Y-63378300D01*
G75*
G02*
X122334600Y-63628300I-250000J0D01*
G01*
G37*
G36*
G01*
X115273400Y-62637700D02*
X113123400Y-62637700D01*
G75*
G02*
X112873400Y-62387700I0J250000D01*
G01*
X112873400Y-61462700D01*
G75*
G02*
X113123400Y-61212700I250000J0D01*
G01*
X115273400Y-61212700D01*
G75*
G02*
X115523400Y-61462700I0J-250000D01*
G01*
X115523400Y-62387700D01*
G75*
G02*
X115273400Y-62637700I-250000J0D01*
G01*
G37*
G36*
G01*
X115273400Y-65612700D02*
X113123400Y-65612700D01*
G75*
G02*
X112873400Y-65362700I0J250000D01*
G01*
X112873400Y-64437700D01*
G75*
G02*
X113123400Y-64187700I250000J0D01*
G01*
X115273400Y-64187700D01*
G75*
G02*
X115523400Y-64437700I0J-250000D01*
G01*
X115523400Y-65362700D01*
G75*
G02*
X115273400Y-65612700I-250000J0D01*
G01*
G37*
G36*
G01*
X179315800Y-64768700D02*
X181465800Y-64768700D01*
G75*
G02*
X181715800Y-65018700I0J-250000D01*
G01*
X181715800Y-65943700D01*
G75*
G02*
X181465800Y-66193700I-250000J0D01*
G01*
X179315800Y-66193700D01*
G75*
G02*
X179065800Y-65943700I0J250000D01*
G01*
X179065800Y-65018700D01*
G75*
G02*
X179315800Y-64768700I250000J0D01*
G01*
G37*
G36*
G01*
X179315800Y-61793700D02*
X181465800Y-61793700D01*
G75*
G02*
X181715800Y-62043700I0J-250000D01*
G01*
X181715800Y-62968700D01*
G75*
G02*
X181465800Y-63218700I-250000J0D01*
G01*
X179315800Y-63218700D01*
G75*
G02*
X179065800Y-62968700I0J250000D01*
G01*
X179065800Y-62043700D01*
G75*
G02*
X179315800Y-61793700I250000J0D01*
G01*
G37*
G36*
G01*
X108136700Y-59963600D02*
X107661700Y-59963600D01*
G75*
G02*
X107424200Y-59726100I0J237500D01*
G01*
X107424200Y-59151100D01*
G75*
G02*
X107661700Y-58913600I237500J0D01*
G01*
X108136700Y-58913600D01*
G75*
G02*
X108374200Y-59151100I0J-237500D01*
G01*
X108374200Y-59726100D01*
G75*
G02*
X108136700Y-59963600I-237500J0D01*
G01*
G37*
G36*
G01*
X108136700Y-61713600D02*
X107661700Y-61713600D01*
G75*
G02*
X107424200Y-61476100I0J237500D01*
G01*
X107424200Y-60901100D01*
G75*
G02*
X107661700Y-60663600I237500J0D01*
G01*
X108136700Y-60663600D01*
G75*
G02*
X108374200Y-60901100I0J-237500D01*
G01*
X108374200Y-61476100D01*
G75*
G02*
X108136700Y-61713600I-237500J0D01*
G01*
G37*
G36*
G01*
X145144500Y-73424300D02*
X144669500Y-73424300D01*
G75*
G02*
X144432000Y-73186800I0J237500D01*
G01*
X144432000Y-72611800D01*
G75*
G02*
X144669500Y-72374300I237500J0D01*
G01*
X145144500Y-72374300D01*
G75*
G02*
X145382000Y-72611800I0J-237500D01*
G01*
X145382000Y-73186800D01*
G75*
G02*
X145144500Y-73424300I-237500J0D01*
G01*
G37*
G36*
G01*
X145144500Y-75174300D02*
X144669500Y-75174300D01*
G75*
G02*
X144432000Y-74936800I0J237500D01*
G01*
X144432000Y-74361800D01*
G75*
G02*
X144669500Y-74124300I237500J0D01*
G01*
X145144500Y-74124300D01*
G75*
G02*
X145382000Y-74361800I0J-237500D01*
G01*
X145382000Y-74936800D01*
G75*
G02*
X145144500Y-75174300I-237500J0D01*
G01*
G37*
G36*
G01*
X144669500Y-70709300D02*
X145144500Y-70709300D01*
G75*
G02*
X145382000Y-70946800I0J-237500D01*
G01*
X145382000Y-71521800D01*
G75*
G02*
X145144500Y-71759300I-237500J0D01*
G01*
X144669500Y-71759300D01*
G75*
G02*
X144432000Y-71521800I0J237500D01*
G01*
X144432000Y-70946800D01*
G75*
G02*
X144669500Y-70709300I237500J0D01*
G01*
G37*
G36*
G01*
X144669500Y-68959300D02*
X145144500Y-68959300D01*
G75*
G02*
X145382000Y-69196800I0J-237500D01*
G01*
X145382000Y-69771800D01*
G75*
G02*
X145144500Y-70009300I-237500J0D01*
G01*
X144669500Y-70009300D01*
G75*
G02*
X144432000Y-69771800I0J237500D01*
G01*
X144432000Y-69196800D01*
G75*
G02*
X144669500Y-68959300I237500J0D01*
G01*
G37*
G36*
G01*
X174633900Y-64380600D02*
X174158900Y-64380600D01*
G75*
G02*
X173921400Y-64143100I0J237500D01*
G01*
X173921400Y-63568100D01*
G75*
G02*
X174158900Y-63330600I237500J0D01*
G01*
X174633900Y-63330600D01*
G75*
G02*
X174871400Y-63568100I0J-237500D01*
G01*
X174871400Y-64143100D01*
G75*
G02*
X174633900Y-64380600I-237500J0D01*
G01*
G37*
G36*
G01*
X174633900Y-66130600D02*
X174158900Y-66130600D01*
G75*
G02*
X173921400Y-65893100I0J237500D01*
G01*
X173921400Y-65318100D01*
G75*
G02*
X174158900Y-65080600I237500J0D01*
G01*
X174633900Y-65080600D01*
G75*
G02*
X174871400Y-65318100I0J-237500D01*
G01*
X174871400Y-65893100D01*
G75*
G02*
X174633900Y-66130600I-237500J0D01*
G01*
G37*
G36*
G01*
X163458380Y-106086900D02*
X163458380Y-106561900D01*
G75*
G02*
X163220880Y-106799400I-237500J0D01*
G01*
X162645880Y-106799400D01*
G75*
G02*
X162408380Y-106561900I0J237500D01*
G01*
X162408380Y-106086900D01*
G75*
G02*
X162645880Y-105849400I237500J0D01*
G01*
X163220880Y-105849400D01*
G75*
G02*
X163458380Y-106086900I0J-237500D01*
G01*
G37*
G36*
G01*
X165208380Y-106086900D02*
X165208380Y-106561900D01*
G75*
G02*
X164970880Y-106799400I-237500J0D01*
G01*
X164395880Y-106799400D01*
G75*
G02*
X164158380Y-106561900I0J237500D01*
G01*
X164158380Y-106086900D01*
G75*
G02*
X164395880Y-105849400I237500J0D01*
G01*
X164970880Y-105849400D01*
G75*
G02*
X165208380Y-106086900I0J-237500D01*
G01*
G37*
G36*
G01*
X168131500Y-123590600D02*
X167656500Y-123590600D01*
G75*
G02*
X167419000Y-123353100I0J237500D01*
G01*
X167419000Y-122778100D01*
G75*
G02*
X167656500Y-122540600I237500J0D01*
G01*
X168131500Y-122540600D01*
G75*
G02*
X168369000Y-122778100I0J-237500D01*
G01*
X168369000Y-123353100D01*
G75*
G02*
X168131500Y-123590600I-237500J0D01*
G01*
G37*
G36*
G01*
X168131500Y-125340600D02*
X167656500Y-125340600D01*
G75*
G02*
X167419000Y-125103100I0J237500D01*
G01*
X167419000Y-124528100D01*
G75*
G02*
X167656500Y-124290600I237500J0D01*
G01*
X168131500Y-124290600D01*
G75*
G02*
X168369000Y-124528100I0J-237500D01*
G01*
X168369000Y-125103100D01*
G75*
G02*
X168131500Y-125340600I-237500J0D01*
G01*
G37*
G36*
G01*
X171394700Y-122337200D02*
X169244700Y-122337200D01*
G75*
G02*
X168994700Y-122087200I0J250000D01*
G01*
X168994700Y-121162200D01*
G75*
G02*
X169244700Y-120912200I250000J0D01*
G01*
X171394700Y-120912200D01*
G75*
G02*
X171644700Y-121162200I0J-250000D01*
G01*
X171644700Y-122087200D01*
G75*
G02*
X171394700Y-122337200I-250000J0D01*
G01*
G37*
G36*
G01*
X171394700Y-125312200D02*
X169244700Y-125312200D01*
G75*
G02*
X168994700Y-125062200I0J250000D01*
G01*
X168994700Y-124137200D01*
G75*
G02*
X169244700Y-123887200I250000J0D01*
G01*
X171394700Y-123887200D01*
G75*
G02*
X171644700Y-124137200I0J-250000D01*
G01*
X171644700Y-125062200D01*
G75*
G02*
X171394700Y-125312200I-250000J0D01*
G01*
G37*
G36*
G01*
X153856700Y-123031800D02*
X153381700Y-123031800D01*
G75*
G02*
X153144200Y-122794300I0J237500D01*
G01*
X153144200Y-122219300D01*
G75*
G02*
X153381700Y-121981800I237500J0D01*
G01*
X153856700Y-121981800D01*
G75*
G02*
X154094200Y-122219300I0J-237500D01*
G01*
X154094200Y-122794300D01*
G75*
G02*
X153856700Y-123031800I-237500J0D01*
G01*
G37*
G36*
G01*
X153856700Y-124781800D02*
X153381700Y-124781800D01*
G75*
G02*
X153144200Y-124544300I0J237500D01*
G01*
X153144200Y-123969300D01*
G75*
G02*
X153381700Y-123731800I237500J0D01*
G01*
X153856700Y-123731800D01*
G75*
G02*
X154094200Y-123969300I0J-237500D01*
G01*
X154094200Y-124544300D01*
G75*
G02*
X153856700Y-124781800I-237500J0D01*
G01*
G37*
M02*
