G04 #@! TF.GenerationSoftware,KiCad,Pcbnew,5.1.6-c6e7f7d~86~ubuntu18.04.1*
G04 #@! TF.CreationDate,2020-06-04T01:08:26+01:00*
G04 #@! TF.ProjectId,scot-resolver,73636f74-2d72-4657-936f-6c7665722e6b,rev?*
G04 #@! TF.SameCoordinates,Original*
G04 #@! TF.FileFunction,Soldermask,Bot*
G04 #@! TF.FilePolarity,Negative*
%FSLAX46Y46*%
G04 Gerber Fmt 4.6, Leading zero omitted, Abs format (unit mm)*
G04 Created by KiCad (PCBNEW 5.1.6-c6e7f7d~86~ubuntu18.04.1) date 2020-06-04 01:08:26*
%MOMM*%
%LPD*%
G01*
G04 APERTURE LIST*
%ADD10C,0.100000*%
G04 APERTURE END LIST*
D10*
G36*
X135397849Y-122248226D02*
G01*
X135919821Y-122352052D01*
X136493085Y-122589506D01*
X137009008Y-122934235D01*
X137447765Y-123372992D01*
X137792494Y-123888915D01*
X138029948Y-124462179D01*
X138125656Y-124943339D01*
X138151000Y-125070751D01*
X138151000Y-125691249D01*
X138143760Y-125727648D01*
X138029948Y-126299821D01*
X137792494Y-126873085D01*
X137447765Y-127389008D01*
X137009008Y-127827765D01*
X136493085Y-128172494D01*
X135919821Y-128409948D01*
X135397849Y-128513774D01*
X135311249Y-128531000D01*
X134690751Y-128531000D01*
X134604151Y-128513774D01*
X134082179Y-128409948D01*
X133508915Y-128172494D01*
X132992992Y-127827765D01*
X132554235Y-127389008D01*
X132209506Y-126873085D01*
X131972052Y-126299821D01*
X131858240Y-125727648D01*
X131851000Y-125691249D01*
X131851000Y-125070751D01*
X131876344Y-124943339D01*
X131972052Y-124462179D01*
X132209506Y-123888915D01*
X132554235Y-123372992D01*
X132992992Y-122934235D01*
X133508915Y-122589506D01*
X134082179Y-122352052D01*
X134604151Y-122248226D01*
X134690751Y-122231000D01*
X135311249Y-122231000D01*
X135397849Y-122248226D01*
G37*
G36*
X87158051Y-121509480D02*
G01*
X87208920Y-121530551D01*
X87259786Y-121551620D01*
X87351342Y-121612796D01*
X87429204Y-121690658D01*
X87490380Y-121782214D01*
X87514516Y-121840485D01*
X87526068Y-121862095D01*
X87541613Y-121881037D01*
X87560555Y-121896582D01*
X87582166Y-121908133D01*
X87605615Y-121915246D01*
X87630001Y-121917648D01*
X87654387Y-121915246D01*
X87677836Y-121908133D01*
X87699446Y-121896581D01*
X87718388Y-121881036D01*
X87733933Y-121862094D01*
X87745484Y-121840485D01*
X87769620Y-121782214D01*
X87830796Y-121690658D01*
X87908658Y-121612796D01*
X88000214Y-121551620D01*
X88051080Y-121530551D01*
X88101949Y-121509480D01*
X88209941Y-121488000D01*
X88320059Y-121488000D01*
X88428051Y-121509480D01*
X88478920Y-121530551D01*
X88529786Y-121551620D01*
X88621342Y-121612796D01*
X88699204Y-121690658D01*
X88760380Y-121782214D01*
X88781449Y-121833080D01*
X88802520Y-121883949D01*
X88824000Y-121991941D01*
X88824000Y-122102059D01*
X88802520Y-122210051D01*
X88793467Y-122231906D01*
X88760380Y-122311786D01*
X88699204Y-122403342D01*
X88621342Y-122481204D01*
X88529786Y-122542380D01*
X88471515Y-122566516D01*
X88449905Y-122578068D01*
X88430963Y-122593613D01*
X88415418Y-122612555D01*
X88403867Y-122634166D01*
X88396754Y-122657615D01*
X88394352Y-122682001D01*
X88396754Y-122706387D01*
X88403867Y-122729836D01*
X88415419Y-122751446D01*
X88430964Y-122770388D01*
X88449906Y-122785933D01*
X88471513Y-122797483D01*
X88529786Y-122821620D01*
X88621342Y-122882796D01*
X88699204Y-122960658D01*
X88699206Y-122960661D01*
X88757071Y-123047261D01*
X88760380Y-123052214D01*
X88781449Y-123103080D01*
X88802520Y-123153949D01*
X88824000Y-123261941D01*
X88824000Y-123372059D01*
X88802520Y-123480051D01*
X88793467Y-123501906D01*
X88760380Y-123581786D01*
X88699204Y-123673342D01*
X88621342Y-123751204D01*
X88529786Y-123812380D01*
X88471515Y-123836516D01*
X88449905Y-123848068D01*
X88430963Y-123863613D01*
X88415418Y-123882555D01*
X88403867Y-123904166D01*
X88396754Y-123927615D01*
X88394352Y-123952001D01*
X88396754Y-123976387D01*
X88403867Y-123999836D01*
X88415419Y-124021446D01*
X88430964Y-124040388D01*
X88449906Y-124055933D01*
X88471513Y-124067483D01*
X88529786Y-124091620D01*
X88621342Y-124152796D01*
X88699204Y-124230658D01*
X88760380Y-124322214D01*
X88781449Y-124373080D01*
X88802520Y-124423949D01*
X88824000Y-124531941D01*
X88824000Y-124642059D01*
X88802520Y-124750051D01*
X88793467Y-124771906D01*
X88760380Y-124851786D01*
X88699204Y-124943342D01*
X88621342Y-125021204D01*
X88529786Y-125082380D01*
X88471515Y-125106516D01*
X88449905Y-125118068D01*
X88430963Y-125133613D01*
X88415418Y-125152555D01*
X88403867Y-125174166D01*
X88396754Y-125197615D01*
X88394352Y-125222001D01*
X88396754Y-125246387D01*
X88403867Y-125269836D01*
X88415419Y-125291446D01*
X88430964Y-125310388D01*
X88449906Y-125325933D01*
X88471513Y-125337483D01*
X88529786Y-125361620D01*
X88621342Y-125422796D01*
X88699204Y-125500658D01*
X88760380Y-125592214D01*
X88765572Y-125604749D01*
X88802520Y-125693949D01*
X88824000Y-125801941D01*
X88824000Y-125912059D01*
X88802520Y-126020051D01*
X88793467Y-126041906D01*
X88760380Y-126121786D01*
X88699204Y-126213342D01*
X88621342Y-126291204D01*
X88529786Y-126352380D01*
X88471515Y-126376516D01*
X88449905Y-126388068D01*
X88430963Y-126403613D01*
X88415418Y-126422555D01*
X88403867Y-126444166D01*
X88396754Y-126467615D01*
X88394352Y-126492001D01*
X88396754Y-126516387D01*
X88403867Y-126539836D01*
X88415419Y-126561446D01*
X88430964Y-126580388D01*
X88449906Y-126595933D01*
X88471513Y-126607483D01*
X88529786Y-126631620D01*
X88621342Y-126692796D01*
X88699204Y-126770658D01*
X88760380Y-126862214D01*
X88779494Y-126908361D01*
X88802520Y-126963949D01*
X88824000Y-127071941D01*
X88824000Y-127182059D01*
X88802520Y-127290051D01*
X88793467Y-127311906D01*
X88760380Y-127391786D01*
X88699204Y-127483342D01*
X88621342Y-127561204D01*
X88529786Y-127622380D01*
X88478920Y-127643449D01*
X88428051Y-127664520D01*
X88320059Y-127686000D01*
X88209941Y-127686000D01*
X88101949Y-127664520D01*
X88051080Y-127643449D01*
X88000214Y-127622380D01*
X87908658Y-127561204D01*
X87830796Y-127483342D01*
X87769620Y-127391786D01*
X87745483Y-127333513D01*
X87733932Y-127311905D01*
X87718387Y-127292963D01*
X87699445Y-127277418D01*
X87677834Y-127265867D01*
X87654385Y-127258754D01*
X87629999Y-127256352D01*
X87605613Y-127258754D01*
X87582164Y-127265867D01*
X87560554Y-127277419D01*
X87541612Y-127292964D01*
X87526067Y-127311906D01*
X87514517Y-127333513D01*
X87490380Y-127391786D01*
X87429204Y-127483342D01*
X87351342Y-127561204D01*
X87259786Y-127622380D01*
X87208920Y-127643449D01*
X87158051Y-127664520D01*
X87050059Y-127686000D01*
X86939941Y-127686000D01*
X86831949Y-127664520D01*
X86781080Y-127643449D01*
X86730214Y-127622380D01*
X86638658Y-127561204D01*
X86560796Y-127483342D01*
X86499620Y-127391786D01*
X86466533Y-127311906D01*
X86457480Y-127290051D01*
X86436000Y-127182059D01*
X86436000Y-127071941D01*
X86457480Y-126963949D01*
X86480506Y-126908361D01*
X86499620Y-126862214D01*
X86560796Y-126770658D01*
X86638658Y-126692796D01*
X86730214Y-126631620D01*
X86788487Y-126607483D01*
X86810095Y-126595932D01*
X86829037Y-126580387D01*
X86844582Y-126561445D01*
X86856133Y-126539834D01*
X86863246Y-126516385D01*
X86865647Y-126492001D01*
X87124352Y-126492001D01*
X87126754Y-126516387D01*
X87133867Y-126539836D01*
X87145419Y-126561446D01*
X87160964Y-126580388D01*
X87179906Y-126595933D01*
X87201513Y-126607483D01*
X87259786Y-126631620D01*
X87351342Y-126692796D01*
X87429204Y-126770658D01*
X87490380Y-126862214D01*
X87509494Y-126908361D01*
X87514516Y-126920485D01*
X87526068Y-126942095D01*
X87541613Y-126961037D01*
X87560555Y-126976582D01*
X87582166Y-126988133D01*
X87605615Y-126995246D01*
X87630001Y-126997648D01*
X87654387Y-126995246D01*
X87677836Y-126988133D01*
X87699446Y-126976581D01*
X87718388Y-126961036D01*
X87733933Y-126942094D01*
X87745484Y-126920485D01*
X87750506Y-126908361D01*
X87769620Y-126862214D01*
X87830796Y-126770658D01*
X87908658Y-126692796D01*
X88000214Y-126631620D01*
X88058487Y-126607483D01*
X88080095Y-126595932D01*
X88099037Y-126580387D01*
X88114582Y-126561445D01*
X88126133Y-126539834D01*
X88133246Y-126516385D01*
X88135648Y-126491999D01*
X88133246Y-126467613D01*
X88126133Y-126444164D01*
X88114581Y-126422554D01*
X88099036Y-126403612D01*
X88080094Y-126388067D01*
X88058485Y-126376516D01*
X88000214Y-126352380D01*
X87908658Y-126291204D01*
X87830796Y-126213342D01*
X87769620Y-126121786D01*
X87745483Y-126063513D01*
X87733932Y-126041905D01*
X87718387Y-126022963D01*
X87699445Y-126007418D01*
X87677834Y-125995867D01*
X87654385Y-125988754D01*
X87629999Y-125986352D01*
X87605613Y-125988754D01*
X87582164Y-125995867D01*
X87560554Y-126007419D01*
X87541612Y-126022964D01*
X87526067Y-126041906D01*
X87514517Y-126063513D01*
X87490380Y-126121786D01*
X87429204Y-126213342D01*
X87351342Y-126291204D01*
X87259786Y-126352380D01*
X87201515Y-126376516D01*
X87179905Y-126388068D01*
X87160963Y-126403613D01*
X87145418Y-126422555D01*
X87133867Y-126444166D01*
X87126754Y-126467615D01*
X87124352Y-126492001D01*
X86865647Y-126492001D01*
X86865648Y-126491999D01*
X86863246Y-126467613D01*
X86856133Y-126444164D01*
X86844581Y-126422554D01*
X86829036Y-126403612D01*
X86810094Y-126388067D01*
X86788485Y-126376516D01*
X86730214Y-126352380D01*
X86638658Y-126291204D01*
X86560796Y-126213342D01*
X86499620Y-126121786D01*
X86466533Y-126041906D01*
X86457480Y-126020051D01*
X86436000Y-125912059D01*
X86436000Y-125801941D01*
X86457480Y-125693949D01*
X86494428Y-125604749D01*
X86499620Y-125592214D01*
X86560796Y-125500658D01*
X86638658Y-125422796D01*
X86730214Y-125361620D01*
X86788487Y-125337483D01*
X86810095Y-125325932D01*
X86829037Y-125310387D01*
X86844582Y-125291445D01*
X86856133Y-125269834D01*
X86863246Y-125246385D01*
X86865647Y-125222001D01*
X87124352Y-125222001D01*
X87126754Y-125246387D01*
X87133867Y-125269836D01*
X87145419Y-125291446D01*
X87160964Y-125310388D01*
X87179906Y-125325933D01*
X87201513Y-125337483D01*
X87259786Y-125361620D01*
X87351342Y-125422796D01*
X87429204Y-125500658D01*
X87490380Y-125592214D01*
X87514516Y-125650485D01*
X87526068Y-125672095D01*
X87541613Y-125691037D01*
X87560555Y-125706582D01*
X87582166Y-125718133D01*
X87605615Y-125725246D01*
X87630001Y-125727648D01*
X87654387Y-125725246D01*
X87677836Y-125718133D01*
X87699446Y-125706581D01*
X87718388Y-125691036D01*
X87733933Y-125672094D01*
X87745484Y-125650485D01*
X87769620Y-125592214D01*
X87830796Y-125500658D01*
X87908658Y-125422796D01*
X88000214Y-125361620D01*
X88058487Y-125337483D01*
X88080095Y-125325932D01*
X88099037Y-125310387D01*
X88114582Y-125291445D01*
X88126133Y-125269834D01*
X88133246Y-125246385D01*
X88135648Y-125221999D01*
X88133246Y-125197613D01*
X88126133Y-125174164D01*
X88114581Y-125152554D01*
X88099036Y-125133612D01*
X88080094Y-125118067D01*
X88058485Y-125106516D01*
X88000214Y-125082380D01*
X87908658Y-125021204D01*
X87830796Y-124943342D01*
X87769620Y-124851786D01*
X87745483Y-124793513D01*
X87733932Y-124771905D01*
X87718387Y-124752963D01*
X87699445Y-124737418D01*
X87677834Y-124725867D01*
X87654385Y-124718754D01*
X87629999Y-124716352D01*
X87605613Y-124718754D01*
X87582164Y-124725867D01*
X87560554Y-124737419D01*
X87541612Y-124752964D01*
X87526067Y-124771906D01*
X87514517Y-124793513D01*
X87490380Y-124851786D01*
X87429204Y-124943342D01*
X87351342Y-125021204D01*
X87259786Y-125082380D01*
X87201515Y-125106516D01*
X87179905Y-125118068D01*
X87160963Y-125133613D01*
X87145418Y-125152555D01*
X87133867Y-125174166D01*
X87126754Y-125197615D01*
X87124352Y-125222001D01*
X86865647Y-125222001D01*
X86865648Y-125221999D01*
X86863246Y-125197613D01*
X86856133Y-125174164D01*
X86844581Y-125152554D01*
X86829036Y-125133612D01*
X86810094Y-125118067D01*
X86788485Y-125106516D01*
X86730214Y-125082380D01*
X86638658Y-125021204D01*
X86560796Y-124943342D01*
X86499620Y-124851786D01*
X86466533Y-124771906D01*
X86457480Y-124750051D01*
X86436000Y-124642059D01*
X86436000Y-124531941D01*
X86457480Y-124423949D01*
X86478551Y-124373080D01*
X86499620Y-124322214D01*
X86560796Y-124230658D01*
X86638658Y-124152796D01*
X86730214Y-124091620D01*
X86788487Y-124067483D01*
X86810095Y-124055932D01*
X86829037Y-124040387D01*
X86844582Y-124021445D01*
X86856133Y-123999834D01*
X86863246Y-123976385D01*
X86865647Y-123952001D01*
X87124352Y-123952001D01*
X87126754Y-123976387D01*
X87133867Y-123999836D01*
X87145419Y-124021446D01*
X87160964Y-124040388D01*
X87179906Y-124055933D01*
X87201513Y-124067483D01*
X87259786Y-124091620D01*
X87351342Y-124152796D01*
X87429204Y-124230658D01*
X87490380Y-124322214D01*
X87514516Y-124380485D01*
X87526068Y-124402095D01*
X87541613Y-124421037D01*
X87560555Y-124436582D01*
X87582166Y-124448133D01*
X87605615Y-124455246D01*
X87630001Y-124457648D01*
X87654387Y-124455246D01*
X87677836Y-124448133D01*
X87699446Y-124436581D01*
X87718388Y-124421036D01*
X87733933Y-124402094D01*
X87745484Y-124380485D01*
X87769620Y-124322214D01*
X87830796Y-124230658D01*
X87908658Y-124152796D01*
X88000214Y-124091620D01*
X88058487Y-124067483D01*
X88080095Y-124055932D01*
X88099037Y-124040387D01*
X88114582Y-124021445D01*
X88126133Y-123999834D01*
X88133246Y-123976385D01*
X88135648Y-123951999D01*
X88133246Y-123927613D01*
X88126133Y-123904164D01*
X88114581Y-123882554D01*
X88099036Y-123863612D01*
X88080094Y-123848067D01*
X88058485Y-123836516D01*
X88000214Y-123812380D01*
X87908658Y-123751204D01*
X87830796Y-123673342D01*
X87769620Y-123581786D01*
X87745483Y-123523513D01*
X87733932Y-123501905D01*
X87718387Y-123482963D01*
X87699445Y-123467418D01*
X87677834Y-123455867D01*
X87654385Y-123448754D01*
X87629999Y-123446352D01*
X87605613Y-123448754D01*
X87582164Y-123455867D01*
X87560554Y-123467419D01*
X87541612Y-123482964D01*
X87526067Y-123501906D01*
X87514517Y-123523513D01*
X87490380Y-123581786D01*
X87429204Y-123673342D01*
X87351342Y-123751204D01*
X87259786Y-123812380D01*
X87201515Y-123836516D01*
X87179905Y-123848068D01*
X87160963Y-123863613D01*
X87145418Y-123882555D01*
X87133867Y-123904166D01*
X87126754Y-123927615D01*
X87124352Y-123952001D01*
X86865647Y-123952001D01*
X86865648Y-123951999D01*
X86863246Y-123927613D01*
X86856133Y-123904164D01*
X86844581Y-123882554D01*
X86829036Y-123863612D01*
X86810094Y-123848067D01*
X86788485Y-123836516D01*
X86730214Y-123812380D01*
X86638658Y-123751204D01*
X86560796Y-123673342D01*
X86499620Y-123581786D01*
X86466533Y-123501906D01*
X86457480Y-123480051D01*
X86436000Y-123372059D01*
X86436000Y-123261941D01*
X86457480Y-123153949D01*
X86478551Y-123103080D01*
X86499620Y-123052214D01*
X86502930Y-123047261D01*
X86560794Y-122960661D01*
X86560796Y-122960658D01*
X86638658Y-122882796D01*
X86730214Y-122821620D01*
X86788487Y-122797483D01*
X86810095Y-122785932D01*
X86829037Y-122770387D01*
X86844582Y-122751445D01*
X86856133Y-122729834D01*
X86863246Y-122706385D01*
X86865647Y-122682001D01*
X87124352Y-122682001D01*
X87126754Y-122706387D01*
X87133867Y-122729836D01*
X87145419Y-122751446D01*
X87160964Y-122770388D01*
X87179906Y-122785933D01*
X87201513Y-122797483D01*
X87259786Y-122821620D01*
X87351342Y-122882796D01*
X87429204Y-122960658D01*
X87490380Y-123052214D01*
X87512140Y-123104749D01*
X87514516Y-123110485D01*
X87526068Y-123132095D01*
X87541613Y-123151037D01*
X87560555Y-123166582D01*
X87582166Y-123178133D01*
X87605615Y-123185246D01*
X87630001Y-123187648D01*
X87654387Y-123185246D01*
X87677836Y-123178133D01*
X87699446Y-123166581D01*
X87718388Y-123151036D01*
X87733933Y-123132094D01*
X87745484Y-123110485D01*
X87747860Y-123104749D01*
X87769620Y-123052214D01*
X87830796Y-122960658D01*
X87908658Y-122882796D01*
X88000214Y-122821620D01*
X88058487Y-122797483D01*
X88080095Y-122785932D01*
X88099037Y-122770387D01*
X88114582Y-122751445D01*
X88126133Y-122729834D01*
X88133246Y-122706385D01*
X88135648Y-122681999D01*
X88133246Y-122657613D01*
X88126133Y-122634164D01*
X88114581Y-122612554D01*
X88099036Y-122593612D01*
X88080094Y-122578067D01*
X88058485Y-122566516D01*
X88000214Y-122542380D01*
X87908658Y-122481204D01*
X87830796Y-122403342D01*
X87769620Y-122311786D01*
X87745483Y-122253513D01*
X87733932Y-122231905D01*
X87718387Y-122212963D01*
X87699445Y-122197418D01*
X87677834Y-122185867D01*
X87654385Y-122178754D01*
X87629999Y-122176352D01*
X87605613Y-122178754D01*
X87582164Y-122185867D01*
X87560554Y-122197419D01*
X87541612Y-122212964D01*
X87526067Y-122231906D01*
X87514517Y-122253513D01*
X87490380Y-122311786D01*
X87429204Y-122403342D01*
X87351342Y-122481204D01*
X87259786Y-122542380D01*
X87201515Y-122566516D01*
X87179905Y-122578068D01*
X87160963Y-122593613D01*
X87145418Y-122612555D01*
X87133867Y-122634166D01*
X87126754Y-122657615D01*
X87124352Y-122682001D01*
X86865647Y-122682001D01*
X86865648Y-122681999D01*
X86863246Y-122657613D01*
X86856133Y-122634164D01*
X86844581Y-122612554D01*
X86829036Y-122593612D01*
X86810094Y-122578067D01*
X86788485Y-122566516D01*
X86730214Y-122542380D01*
X86638658Y-122481204D01*
X86560796Y-122403342D01*
X86499620Y-122311786D01*
X86466533Y-122231906D01*
X86457480Y-122210051D01*
X86436000Y-122102059D01*
X86436000Y-121991941D01*
X86457480Y-121883949D01*
X86478551Y-121833080D01*
X86499620Y-121782214D01*
X86560796Y-121690658D01*
X86638658Y-121612796D01*
X86730214Y-121551620D01*
X86781080Y-121530551D01*
X86831949Y-121509480D01*
X86939941Y-121488000D01*
X87050059Y-121488000D01*
X87158051Y-121509480D01*
G37*
G36*
X181123500Y-126132500D02*
G01*
X178921500Y-126132500D01*
X178921500Y-123930500D01*
X181123500Y-123930500D01*
X181123500Y-126132500D01*
G37*
G36*
X180237295Y-121411656D02*
G01*
X180343650Y-121432811D01*
X180443834Y-121474309D01*
X180544020Y-121515807D01*
X180724344Y-121636295D01*
X180877705Y-121789656D01*
X180998193Y-121969980D01*
X181007290Y-121991943D01*
X181081189Y-122170350D01*
X181086573Y-122197418D01*
X181123500Y-122383060D01*
X181123500Y-122599940D01*
X181107177Y-122681999D01*
X181081189Y-122812650D01*
X181067197Y-122846430D01*
X180998193Y-123013020D01*
X180877705Y-123193344D01*
X180724344Y-123346705D01*
X180544020Y-123467193D01*
X180505945Y-123482964D01*
X180343650Y-123550189D01*
X180237295Y-123571344D01*
X180130940Y-123592500D01*
X179914060Y-123592500D01*
X179807705Y-123571344D01*
X179701350Y-123550189D01*
X179539055Y-123482964D01*
X179500980Y-123467193D01*
X179320656Y-123346705D01*
X179167295Y-123193344D01*
X179046807Y-123013020D01*
X178977803Y-122846430D01*
X178963811Y-122812650D01*
X178937823Y-122681999D01*
X178921500Y-122599940D01*
X178921500Y-122383060D01*
X178958427Y-122197418D01*
X178963811Y-122170350D01*
X179037710Y-121991943D01*
X179046807Y-121969980D01*
X179167295Y-121789656D01*
X179320656Y-121636295D01*
X179500980Y-121515807D01*
X179601166Y-121474309D01*
X179701350Y-121432811D01*
X179807705Y-121411656D01*
X179914060Y-121390500D01*
X180130940Y-121390500D01*
X180237295Y-121411656D01*
G37*
G36*
X180237295Y-118871656D02*
G01*
X180343650Y-118892811D01*
X180443834Y-118934309D01*
X180544020Y-118975807D01*
X180724344Y-119096295D01*
X180877705Y-119249656D01*
X180998193Y-119429980D01*
X181081189Y-119630351D01*
X181123500Y-119843060D01*
X181123500Y-120059940D01*
X181081189Y-120272649D01*
X180998193Y-120473020D01*
X180877705Y-120653344D01*
X180724344Y-120806705D01*
X180544020Y-120927193D01*
X180343650Y-121010189D01*
X180237294Y-121031345D01*
X180130940Y-121052500D01*
X179914060Y-121052500D01*
X179807706Y-121031345D01*
X179701350Y-121010189D01*
X179500980Y-120927193D01*
X179320656Y-120806705D01*
X179167295Y-120653344D01*
X179046807Y-120473020D01*
X178963811Y-120272649D01*
X178921500Y-120059940D01*
X178921500Y-119843060D01*
X178963811Y-119630351D01*
X179046807Y-119429980D01*
X179167295Y-119249656D01*
X179320656Y-119096295D01*
X179500980Y-118975807D01*
X179601166Y-118934309D01*
X179701350Y-118892811D01*
X179807705Y-118871656D01*
X179914060Y-118850500D01*
X180130940Y-118850500D01*
X180237295Y-118871656D01*
G37*
G36*
X88531000Y-115328000D02*
G01*
X86729000Y-115328000D01*
X86729000Y-113526000D01*
X88531000Y-113526000D01*
X88531000Y-115328000D01*
G37*
G36*
X87743512Y-110990927D02*
G01*
X87892812Y-111020624D01*
X88056784Y-111088544D01*
X88204354Y-111187147D01*
X88329853Y-111312646D01*
X88428456Y-111460216D01*
X88496376Y-111624188D01*
X88531000Y-111798259D01*
X88531000Y-111975741D01*
X88496376Y-112149812D01*
X88428456Y-112313784D01*
X88329853Y-112461354D01*
X88204354Y-112586853D01*
X88056784Y-112685456D01*
X87892812Y-112753376D01*
X87743512Y-112783073D01*
X87718742Y-112788000D01*
X87541258Y-112788000D01*
X87516488Y-112783073D01*
X87367188Y-112753376D01*
X87203216Y-112685456D01*
X87055646Y-112586853D01*
X86930147Y-112461354D01*
X86831544Y-112313784D01*
X86763624Y-112149812D01*
X86729000Y-111975741D01*
X86729000Y-111798259D01*
X86763624Y-111624188D01*
X86831544Y-111460216D01*
X86930147Y-111312646D01*
X87055646Y-111187147D01*
X87203216Y-111088544D01*
X87367188Y-111020624D01*
X87516488Y-110990927D01*
X87541258Y-110986000D01*
X87718742Y-110986000D01*
X87743512Y-110990927D01*
G37*
G36*
X87743512Y-108450927D02*
G01*
X87892812Y-108480624D01*
X88056784Y-108548544D01*
X88204354Y-108647147D01*
X88329853Y-108772646D01*
X88428456Y-108920216D01*
X88496376Y-109084188D01*
X88531000Y-109258259D01*
X88531000Y-109435741D01*
X88496376Y-109609812D01*
X88428456Y-109773784D01*
X88329853Y-109921354D01*
X88204354Y-110046853D01*
X88056784Y-110145456D01*
X87892812Y-110213376D01*
X87743512Y-110243073D01*
X87718742Y-110248000D01*
X87541258Y-110248000D01*
X87516488Y-110243073D01*
X87367188Y-110213376D01*
X87203216Y-110145456D01*
X87055646Y-110046853D01*
X86930147Y-109921354D01*
X86831544Y-109773784D01*
X86763624Y-109609812D01*
X86729000Y-109435741D01*
X86729000Y-109258259D01*
X86763624Y-109084188D01*
X86831544Y-108920216D01*
X86930147Y-108772646D01*
X87055646Y-108647147D01*
X87203216Y-108548544D01*
X87367188Y-108480624D01*
X87516488Y-108450927D01*
X87541258Y-108446000D01*
X87718742Y-108446000D01*
X87743512Y-108450927D01*
G37*
G36*
X180806000Y-105698200D02*
G01*
X178604000Y-105698200D01*
X178604000Y-103496200D01*
X180806000Y-103496200D01*
X180806000Y-105698200D01*
G37*
G36*
X179919794Y-100977355D02*
G01*
X180026150Y-100998511D01*
X180226520Y-101081507D01*
X180406844Y-101201995D01*
X180560205Y-101355356D01*
X180680693Y-101535680D01*
X180680693Y-101535681D01*
X180745671Y-101692550D01*
X180763689Y-101736051D01*
X180806000Y-101948760D01*
X180806000Y-102165640D01*
X180763689Y-102378349D01*
X180680693Y-102578720D01*
X180560205Y-102759044D01*
X180406844Y-102912405D01*
X180226520Y-103032893D01*
X180126334Y-103074391D01*
X180026150Y-103115889D01*
X179919795Y-103137044D01*
X179813440Y-103158200D01*
X179596560Y-103158200D01*
X179490206Y-103137045D01*
X179383850Y-103115889D01*
X179183480Y-103032893D01*
X179003156Y-102912405D01*
X178849795Y-102759044D01*
X178729307Y-102578720D01*
X178646311Y-102378349D01*
X178604000Y-102165640D01*
X178604000Y-101948760D01*
X178646311Y-101736051D01*
X178664330Y-101692550D01*
X178729307Y-101535681D01*
X178729307Y-101535680D01*
X178849795Y-101355356D01*
X179003156Y-101201995D01*
X179183480Y-101081507D01*
X179383850Y-100998511D01*
X179490206Y-100977355D01*
X179596560Y-100956200D01*
X179813440Y-100956200D01*
X179919794Y-100977355D01*
G37*
G36*
X86244594Y-100291555D02*
G01*
X86350950Y-100312711D01*
X86551320Y-100395707D01*
X86731644Y-100516195D01*
X86885005Y-100669556D01*
X87005493Y-100849880D01*
X87088489Y-101050251D01*
X87130800Y-101262960D01*
X87130800Y-101479840D01*
X87119692Y-101535681D01*
X87088489Y-101692550D01*
X87070470Y-101736051D01*
X87005493Y-101892920D01*
X86885005Y-102073244D01*
X86731644Y-102226605D01*
X86551320Y-102347093D01*
X86451134Y-102388591D01*
X86350950Y-102430089D01*
X86244594Y-102451245D01*
X86138240Y-102472400D01*
X85921360Y-102472400D01*
X85815006Y-102451245D01*
X85708650Y-102430089D01*
X85508280Y-102347093D01*
X85327956Y-102226605D01*
X85174595Y-102073244D01*
X85054107Y-101892920D01*
X84989130Y-101736051D01*
X84971111Y-101692550D01*
X84939908Y-101535681D01*
X84928800Y-101479840D01*
X84928800Y-101262960D01*
X84971111Y-101050251D01*
X85054107Y-100849880D01*
X85174595Y-100669556D01*
X85327956Y-100516195D01*
X85508280Y-100395707D01*
X85708650Y-100312711D01*
X85815006Y-100291555D01*
X85921360Y-100270400D01*
X86138240Y-100270400D01*
X86244594Y-100291555D01*
G37*
G36*
X86244595Y-97751556D02*
G01*
X86350950Y-97772711D01*
X86551320Y-97855707D01*
X86731644Y-97976195D01*
X86885005Y-98129556D01*
X87005493Y-98309880D01*
X87088489Y-98510251D01*
X87130800Y-98722960D01*
X87130800Y-98939840D01*
X87088489Y-99152549D01*
X87005493Y-99352920D01*
X86885005Y-99533244D01*
X86731644Y-99686605D01*
X86551320Y-99807093D01*
X86350950Y-99890089D01*
X86244595Y-99911244D01*
X86138240Y-99932400D01*
X85921360Y-99932400D01*
X85815005Y-99911244D01*
X85708650Y-99890089D01*
X85608466Y-99848591D01*
X85508280Y-99807093D01*
X85327956Y-99686605D01*
X85174595Y-99533244D01*
X85054107Y-99352920D01*
X84971111Y-99152549D01*
X84928800Y-98939840D01*
X84928800Y-98722960D01*
X84971111Y-98510251D01*
X85054107Y-98309880D01*
X85174595Y-98129556D01*
X85327956Y-97976195D01*
X85508280Y-97855707D01*
X85608466Y-97814209D01*
X85708650Y-97772711D01*
X85815005Y-97751556D01*
X85921360Y-97730400D01*
X86138240Y-97730400D01*
X86244595Y-97751556D01*
G37*
G36*
X87130800Y-97392400D02*
G01*
X84928800Y-97392400D01*
X84928800Y-95190400D01*
X87130800Y-95190400D01*
X87130800Y-97392400D01*
G37*
G36*
X160274372Y-92515818D02*
G01*
X160520239Y-92617659D01*
X160741512Y-92765510D01*
X160929690Y-92953688D01*
X161077541Y-93174961D01*
X161179382Y-93420828D01*
X161231300Y-93681838D01*
X161231300Y-93947962D01*
X161179382Y-94208972D01*
X161077541Y-94454839D01*
X160929690Y-94676112D01*
X160741512Y-94864290D01*
X160520239Y-95012141D01*
X160520238Y-95012142D01*
X160520237Y-95012142D01*
X160274372Y-95113982D01*
X160013363Y-95165900D01*
X159747237Y-95165900D01*
X159486228Y-95113982D01*
X159240363Y-95012142D01*
X159240362Y-95012142D01*
X159240361Y-95012141D01*
X159019088Y-94864290D01*
X158830910Y-94676112D01*
X158683059Y-94454839D01*
X158581218Y-94208972D01*
X158529300Y-93947962D01*
X158529300Y-93681838D01*
X158581218Y-93420828D01*
X158683059Y-93174961D01*
X158830910Y-92953688D01*
X159019088Y-92765510D01*
X159240361Y-92617659D01*
X159486228Y-92515818D01*
X159747237Y-92463900D01*
X160013363Y-92463900D01*
X160274372Y-92515818D01*
G37*
G36*
X167894372Y-92515818D02*
G01*
X168140239Y-92617659D01*
X168361512Y-92765510D01*
X168549690Y-92953688D01*
X168697541Y-93174961D01*
X168799382Y-93420828D01*
X168851300Y-93681838D01*
X168851300Y-93947962D01*
X168799382Y-94208972D01*
X168697541Y-94454839D01*
X168549690Y-94676112D01*
X168361512Y-94864290D01*
X168140239Y-95012141D01*
X168140238Y-95012142D01*
X168140237Y-95012142D01*
X167894372Y-95113982D01*
X167633363Y-95165900D01*
X167367237Y-95165900D01*
X167106228Y-95113982D01*
X166860363Y-95012142D01*
X166860362Y-95012142D01*
X166860361Y-95012141D01*
X166639088Y-94864290D01*
X166450910Y-94676112D01*
X166303059Y-94454839D01*
X166201218Y-94208972D01*
X166149300Y-93947962D01*
X166149300Y-93681838D01*
X166201218Y-93420828D01*
X166303059Y-93174961D01*
X166450910Y-92953688D01*
X166639088Y-92765510D01*
X166860361Y-92617659D01*
X167106228Y-92515818D01*
X167367237Y-92463900D01*
X167633363Y-92463900D01*
X167894372Y-92515818D01*
G37*
G36*
X180958800Y-94747200D02*
G01*
X178756800Y-94747200D01*
X178756800Y-92545200D01*
X180958800Y-92545200D01*
X180958800Y-94747200D01*
G37*
G36*
X180072594Y-90026355D02*
G01*
X180178950Y-90047511D01*
X180379320Y-90130507D01*
X180559644Y-90250995D01*
X180713005Y-90404356D01*
X180833493Y-90584680D01*
X180916489Y-90785051D01*
X180958800Y-90997760D01*
X180958800Y-91214640D01*
X180916489Y-91427349D01*
X180833493Y-91627720D01*
X180713005Y-91808044D01*
X180559644Y-91961405D01*
X180379320Y-92081893D01*
X180178950Y-92164889D01*
X180072595Y-92186044D01*
X179966240Y-92207200D01*
X179749360Y-92207200D01*
X179643005Y-92186044D01*
X179536650Y-92164889D01*
X179436466Y-92123391D01*
X179336280Y-92081893D01*
X179155956Y-91961405D01*
X179002595Y-91808044D01*
X178882107Y-91627720D01*
X178799111Y-91427349D01*
X178756800Y-91214640D01*
X178756800Y-90997760D01*
X178799111Y-90785051D01*
X178882107Y-90584680D01*
X179002595Y-90404356D01*
X179155956Y-90250995D01*
X179336280Y-90130507D01*
X179436466Y-90089009D01*
X179536650Y-90047511D01*
X179643006Y-90026355D01*
X179749360Y-90005200D01*
X179966240Y-90005200D01*
X180072594Y-90026355D01*
G37*
G36*
X86244595Y-85635756D02*
G01*
X86350950Y-85656911D01*
X86451134Y-85698409D01*
X86551320Y-85739907D01*
X86731644Y-85860395D01*
X86885005Y-86013756D01*
X87005493Y-86194080D01*
X87088489Y-86394451D01*
X87130800Y-86607160D01*
X87130800Y-86824040D01*
X87088489Y-87036749D01*
X87005493Y-87237120D01*
X86885005Y-87417444D01*
X86731644Y-87570805D01*
X86551320Y-87691293D01*
X86350950Y-87774289D01*
X86244595Y-87795444D01*
X86138240Y-87816600D01*
X85921360Y-87816600D01*
X85815005Y-87795444D01*
X85708650Y-87774289D01*
X85508280Y-87691293D01*
X85327956Y-87570805D01*
X85174595Y-87417444D01*
X85054107Y-87237120D01*
X84971111Y-87036749D01*
X84928800Y-86824040D01*
X84928800Y-86607160D01*
X84971111Y-86394451D01*
X85054107Y-86194080D01*
X85174595Y-86013756D01*
X85327956Y-85860395D01*
X85508280Y-85739907D01*
X85608466Y-85698409D01*
X85708650Y-85656911D01*
X85815005Y-85635756D01*
X85921360Y-85614600D01*
X86138240Y-85614600D01*
X86244595Y-85635756D01*
G37*
G36*
X86244594Y-83095755D02*
G01*
X86350950Y-83116911D01*
X86451134Y-83158409D01*
X86551320Y-83199907D01*
X86731644Y-83320395D01*
X86885005Y-83473756D01*
X87005493Y-83654080D01*
X87088489Y-83854451D01*
X87130800Y-84067160D01*
X87130800Y-84284040D01*
X87088489Y-84496749D01*
X87005493Y-84697120D01*
X86885005Y-84877444D01*
X86731644Y-85030805D01*
X86551320Y-85151293D01*
X86350950Y-85234289D01*
X86244594Y-85255445D01*
X86138240Y-85276600D01*
X85921360Y-85276600D01*
X85815006Y-85255445D01*
X85708650Y-85234289D01*
X85608466Y-85192791D01*
X85508280Y-85151293D01*
X85327956Y-85030805D01*
X85174595Y-84877444D01*
X85054107Y-84697120D01*
X84971111Y-84496749D01*
X84928800Y-84284040D01*
X84928800Y-84067160D01*
X84971111Y-83854451D01*
X85054107Y-83654080D01*
X85174595Y-83473756D01*
X85327956Y-83320395D01*
X85508280Y-83199907D01*
X85608466Y-83158409D01*
X85708650Y-83116911D01*
X85815006Y-83095755D01*
X85921360Y-83074600D01*
X86138240Y-83074600D01*
X86244594Y-83095755D01*
G37*
G36*
X180874580Y-84230120D02*
G01*
X178672580Y-84230120D01*
X178672580Y-82028120D01*
X180874580Y-82028120D01*
X180874580Y-84230120D01*
G37*
G36*
X87130800Y-82736600D02*
G01*
X84928800Y-82736600D01*
X84928800Y-80534600D01*
X87130800Y-80534600D01*
X87130800Y-82736600D01*
G37*
G36*
X179988374Y-79509275D02*
G01*
X180094730Y-79530431D01*
X180295100Y-79613427D01*
X180475424Y-79733915D01*
X180628785Y-79887276D01*
X180749273Y-80067600D01*
X180832269Y-80267971D01*
X180874580Y-80480680D01*
X180874580Y-80697560D01*
X180832269Y-80910269D01*
X180749273Y-81110640D01*
X180628785Y-81290964D01*
X180475424Y-81444325D01*
X180295100Y-81564813D01*
X180194914Y-81606311D01*
X180094730Y-81647809D01*
X179988375Y-81668964D01*
X179882020Y-81690120D01*
X179665140Y-81690120D01*
X179558785Y-81668964D01*
X179452430Y-81647809D01*
X179352246Y-81606311D01*
X179252060Y-81564813D01*
X179071736Y-81444325D01*
X178918375Y-81290964D01*
X178797887Y-81110640D01*
X178714891Y-80910269D01*
X178672580Y-80697560D01*
X178672580Y-80480680D01*
X178714891Y-80267971D01*
X178797887Y-80067600D01*
X178918375Y-79887276D01*
X179071736Y-79733915D01*
X179252060Y-79613427D01*
X179452430Y-79530431D01*
X179558786Y-79509275D01*
X179665140Y-79488120D01*
X179882020Y-79488120D01*
X179988374Y-79509275D01*
G37*
G36*
X135397849Y-57271226D02*
G01*
X135919821Y-57375052D01*
X136493085Y-57612506D01*
X137009008Y-57957235D01*
X137447765Y-58395992D01*
X137792494Y-58911915D01*
X138029948Y-59485179D01*
X138151000Y-60093752D01*
X138151000Y-60714248D01*
X138029948Y-61322821D01*
X137792494Y-61896085D01*
X137447765Y-62412008D01*
X137009008Y-62850765D01*
X136493085Y-63195494D01*
X135919821Y-63432948D01*
X135397849Y-63536774D01*
X135311249Y-63554000D01*
X134690751Y-63554000D01*
X134604151Y-63536774D01*
X134082179Y-63432948D01*
X133508915Y-63195494D01*
X132992992Y-62850765D01*
X132554235Y-62412008D01*
X132209506Y-61896085D01*
X131972052Y-61322821D01*
X131851000Y-60714248D01*
X131851000Y-60093752D01*
X131972052Y-59485179D01*
X132209506Y-58911915D01*
X132554235Y-58395992D01*
X132992992Y-57957235D01*
X133508915Y-57612506D01*
X134082179Y-57375052D01*
X134604151Y-57271226D01*
X134690751Y-57254000D01*
X135311249Y-57254000D01*
X135397849Y-57271226D01*
G37*
G36*
X87016500Y-61489500D02*
G01*
X84814500Y-61489500D01*
X84814500Y-59287500D01*
X87016500Y-59287500D01*
X87016500Y-61489500D01*
G37*
G36*
X101198642Y-59364281D02*
G01*
X101344414Y-59424662D01*
X101344416Y-59424663D01*
X101475608Y-59512322D01*
X101587178Y-59623892D01*
X101674837Y-59755084D01*
X101674838Y-59755086D01*
X101735219Y-59900858D01*
X101766000Y-60055607D01*
X101766000Y-60213393D01*
X101735219Y-60368142D01*
X101677957Y-60506383D01*
X101674837Y-60513916D01*
X101587178Y-60645108D01*
X101475608Y-60756678D01*
X101344416Y-60844337D01*
X101344415Y-60844338D01*
X101344414Y-60844338D01*
X101198642Y-60904719D01*
X101043893Y-60935500D01*
X100886107Y-60935500D01*
X100731358Y-60904719D01*
X100585586Y-60844338D01*
X100585585Y-60844338D01*
X100585584Y-60844337D01*
X100454392Y-60756678D01*
X100342822Y-60645108D01*
X100255163Y-60513916D01*
X100252043Y-60506383D01*
X100194781Y-60368142D01*
X100164000Y-60213393D01*
X100164000Y-60055607D01*
X100194781Y-59900858D01*
X100255162Y-59755086D01*
X100255163Y-59755084D01*
X100342822Y-59623892D01*
X100454392Y-59512322D01*
X100585584Y-59424663D01*
X100585586Y-59424662D01*
X100731358Y-59364281D01*
X100886107Y-59333500D01*
X101043893Y-59333500D01*
X101198642Y-59364281D01*
G37*
G36*
X98658642Y-59364281D02*
G01*
X98804414Y-59424662D01*
X98804416Y-59424663D01*
X98935608Y-59512322D01*
X99047178Y-59623892D01*
X99134837Y-59755084D01*
X99134838Y-59755086D01*
X99195219Y-59900858D01*
X99226000Y-60055607D01*
X99226000Y-60213393D01*
X99195219Y-60368142D01*
X99137957Y-60506383D01*
X99134837Y-60513916D01*
X99047178Y-60645108D01*
X98935608Y-60756678D01*
X98804416Y-60844337D01*
X98804415Y-60844338D01*
X98804414Y-60844338D01*
X98658642Y-60904719D01*
X98503893Y-60935500D01*
X98346107Y-60935500D01*
X98191358Y-60904719D01*
X98045586Y-60844338D01*
X98045585Y-60844338D01*
X98045584Y-60844337D01*
X97914392Y-60756678D01*
X97802822Y-60645108D01*
X97715163Y-60513916D01*
X97712043Y-60506383D01*
X97654781Y-60368142D01*
X97624000Y-60213393D01*
X97624000Y-60055607D01*
X97654781Y-59900858D01*
X97715162Y-59755086D01*
X97715163Y-59755084D01*
X97802822Y-59623892D01*
X97914392Y-59512322D01*
X98045584Y-59424663D01*
X98045586Y-59424662D01*
X98191358Y-59364281D01*
X98346107Y-59333500D01*
X98503893Y-59333500D01*
X98658642Y-59364281D01*
G37*
G36*
X103738642Y-59364281D02*
G01*
X103884414Y-59424662D01*
X103884416Y-59424663D01*
X104015608Y-59512322D01*
X104127178Y-59623892D01*
X104214837Y-59755084D01*
X104214838Y-59755086D01*
X104275219Y-59900858D01*
X104306000Y-60055607D01*
X104306000Y-60213393D01*
X104275219Y-60368142D01*
X104217957Y-60506383D01*
X104214837Y-60513916D01*
X104127178Y-60645108D01*
X104015608Y-60756678D01*
X103884416Y-60844337D01*
X103884415Y-60844338D01*
X103884414Y-60844338D01*
X103738642Y-60904719D01*
X103583893Y-60935500D01*
X103426107Y-60935500D01*
X103271358Y-60904719D01*
X103125586Y-60844338D01*
X103125585Y-60844338D01*
X103125584Y-60844337D01*
X102994392Y-60756678D01*
X102882822Y-60645108D01*
X102795163Y-60513916D01*
X102792043Y-60506383D01*
X102734781Y-60368142D01*
X102704000Y-60213393D01*
X102704000Y-60055607D01*
X102734781Y-59900858D01*
X102795162Y-59755086D01*
X102795163Y-59755084D01*
X102882822Y-59623892D01*
X102994392Y-59512322D01*
X103125584Y-59424663D01*
X103125586Y-59424662D01*
X103271358Y-59364281D01*
X103426107Y-59333500D01*
X103583893Y-59333500D01*
X103738642Y-59364281D01*
G37*
G36*
X86130294Y-56768655D02*
G01*
X86236650Y-56789811D01*
X86437020Y-56872807D01*
X86617344Y-56993295D01*
X86770705Y-57146656D01*
X86891193Y-57326980D01*
X86974189Y-57527351D01*
X87016500Y-57740060D01*
X87016500Y-57956940D01*
X86974189Y-58169649D01*
X86891193Y-58370020D01*
X86770705Y-58550344D01*
X86617344Y-58703705D01*
X86437020Y-58824193D01*
X86336834Y-58865691D01*
X86236650Y-58907189D01*
X86197120Y-58915052D01*
X86023940Y-58949500D01*
X85807060Y-58949500D01*
X85633880Y-58915052D01*
X85594350Y-58907189D01*
X85494166Y-58865691D01*
X85393980Y-58824193D01*
X85213656Y-58703705D01*
X85060295Y-58550344D01*
X84939807Y-58370020D01*
X84856811Y-58169649D01*
X84814500Y-57956940D01*
X84814500Y-57740060D01*
X84856811Y-57527351D01*
X84939807Y-57326980D01*
X85060295Y-57146656D01*
X85213656Y-56993295D01*
X85393980Y-56872807D01*
X85594350Y-56789811D01*
X85700706Y-56768655D01*
X85807060Y-56747500D01*
X86023940Y-56747500D01*
X86130294Y-56768655D01*
G37*
M02*
