M48
; DRILL file {KiCad 5.1.6-c6e7f7d~86~ubuntu18.04.1} date Thu Jun  4 01:08:18 2020
; FORMAT={-:-/ absolute / metric / decimal}
; #@! TF.CreationDate,2020-06-04T01:08:18+01:00
; #@! TF.GenerationSoftware,Kicad,Pcbnew,5.1.6-c6e7f7d~86~ubuntu18.04.1
; #@! TF.FileFunction,Plated,1,2,PTH
FMAT,2
METRIC
T1C0.400
T2C0.635
T3C0.800
T4C1.000
T5C1.100
T6C1.300
%
G90
G05
T1
X91.237Y-76.657
X95.733Y-76.987
X97.866Y-91.567
X98.247Y-93.167
X98.247Y-98.679
X99.06Y-77.013
X102.263Y-86.614
X102.489Y-99.377
X102.997Y-85.598
X103.378Y-84.592
X103.378Y-92.964
X103.657Y-82.626
X104.038Y-94.742
X104.584Y-91.504
X106.045Y-91.504
X106.172Y-97.968
X106.172Y-99.085
X107.315Y-90.043
X107.315Y-103.759
X107.378Y-91.313
X108.013Y-88.963
X108.966Y-83.185
X111.188Y-77.153
X112.547Y-95.758
X113.462Y-59.563
X114.046Y-83.185
X114.656Y-97.282
X114.884Y-59.563
X116.002Y-70.079
X116.002Y-72.187
X116.002Y-74.498
X116.586Y-89.891
X117.018Y-91.186
X117.119Y-59.944
X118.3Y-81.724
X118.821Y-59.944
X119.253Y-88.875
X120.968Y-90.614
X121.412Y-95.758
X121.666Y-97.282
X122.301Y-90.614
X124.993Y-96.418
X126.492Y-95.631
X126.746Y-93.027
X127.152Y-94.615
X127.432Y-104.191
X128.725Y-88.875
X129.032Y-92.202
X130.073Y-104.191
X130.378Y-99.644
X131.191Y-87.63
X131.343Y-98.73
X132.334Y-97.841
X132.588Y-94.932
X132.588Y-96.139
X133.731Y-104.191
X133.757Y-105.715
X133.858Y-87.63
X134.01Y-102.845
X134.429Y-96.647
X135.189Y-97.785
X135.826Y-85.292
X135.826Y-87.439
X136.525Y-101.092
X136.675Y-90.65
X137.277Y-93.261
X137.975Y-89.75
X140.716Y-100.012
X142.192Y-94.01
X142.199Y-92.456
X142.245Y-123.779
X142.265Y-112.116
X142.265Y-115.278
X142.265Y-118.3
X142.278Y-108.852
X142.494Y-63.602
X143.297Y-96.782
X143.358Y-127.787
X144.094Y-129.057
X144.145Y-63.551
X144.526Y-60.579
X145.021Y-118.339
X145.047Y-121.107
X145.91Y-129.337
X146.279Y-60.579
X146.66Y-114.744
X147.193Y-121.133
X147.218Y-119.99
X147.828Y-129.337
X148.298Y-123.038
X148.834Y-77.196
X149.504Y-121.514
X149.657Y-129.337
X150.457Y-122.593
X151.6Y-127.914
X151.6Y-129.337
X152.07Y-119.736
X152.705Y-120.802
X153.238Y-114.63
X153.238Y-119.71
X153.683Y-129.324
X153.797Y-127.94
X153.899Y-120.802
X154.978Y-124.765
X154.991Y-123.723
X156.286Y-72.06
X156.286Y-73.457
X156.312Y-70.536
X157.823Y-124.981
X157.988Y-117.234
X158.217Y-128.041
X158.407Y-114.44
X158.877Y-121.031
X159.563Y-129.464
X159.868Y-117.208
X160.82Y-114.44
X160.909Y-119.736
X160.96Y-128.041
X161.963Y-129.464
X162.123Y-85.761
X162.362Y-107.533
X162.458Y-121.361
X162.667Y-78.003
X162.687Y-114.44
X162.966Y-99.563
X163.154Y-85.75
X163.454Y-107.533
X164.084Y-121.768
X164.376Y-129.464
X164.389Y-114.44
X164.531Y-78.288
X164.577Y-76.512
X164.779Y-80.197
X164.871Y-99.715
X164.907Y-107.508
X165.019Y-85.771
X165.064Y-97.815
X165.269Y-101.688
X165.699Y-81.869
X165.993Y-103.594
X165.999Y-107.508
X166.014Y-122.403
X166.052Y-114.427
X166.131Y-85.75
X166.268Y-129.464
X166.302Y-80.936
X166.794Y-102.705
X167.018Y-126.378
X167.805Y-114.427
X168.567Y-117.221
X168.719Y-126.39
X169.037Y-129.464
X169.355Y-119.697
X170.129Y-114.427
X170.193Y-117.246
X171.386Y-119.697
X171.475Y-129.464
X171.831Y-117.246
X172.085Y-126.403
X172.428Y-114.427
X172.446Y-74.079
X173.037Y-123.571
X173.037Y-124.714
X173.101Y-121.666
X173.66Y-117.259
X174.015Y-129.438
X174.587Y-114.44
X174.727Y-118.402
X174.879Y-124.079
X175.87Y-119.532
X176.124Y-122.86
X177.051Y-129.451
X177.533Y-116.408
X177.584Y-121.234
X178.829Y-117.932
X180.569Y-114.859
X181.432Y-129.451
X182.74Y-122.542
X182.74Y-125.082
X182.766Y-118.999
X183.439Y-62.535
X183.464Y-65.405
T2
X86.995Y-122.047
X86.995Y-123.317
X86.995Y-124.587
X86.995Y-125.857
X86.995Y-127.127
X88.265Y-122.047
X88.265Y-123.317
X88.265Y-124.587
X88.265Y-125.857
X88.265Y-127.127
T3
X98.425Y-60.134
X100.965Y-60.134
X103.505Y-60.134
T4
X87.63Y-109.347
X87.63Y-111.887
X87.63Y-114.427
T5
X179.774Y-80.589
X179.774Y-83.129
X179.858Y-91.106
X179.858Y-93.646
X86.03Y-96.291
X86.03Y-98.831
X86.03Y-101.371
X179.705Y-102.057
X179.705Y-104.597
X85.915Y-57.848
X85.915Y-60.389
X86.03Y-81.636
X86.03Y-84.176
X86.03Y-86.716
X180.022Y-119.951
X180.022Y-122.491
X180.022Y-125.031
T6
X159.88Y-93.815
X167.5Y-93.815
T0
M30
