M48
; DRILL file {KiCad 5.1.5-52549c5~84~ubuntu18.04.1} date Wed 19 Feb 2020 21:22:18 GMT
; FORMAT={-:-/ absolute / metric / decimal}
; #@! TF.CreationDate,2020-02-19T21:22:18+00:00
; #@! TF.GenerationSoftware,Kicad,Pcbnew,5.1.5-52549c5~84~ubuntu18.04.1
; #@! TF.FileFunction,Plated,1,2,PTH
FMAT,2
METRIC
T1C0.400
T2C0.635
T3C0.800
T4C1.000
T5C1.100
%
G90
G05
T1
X88.392Y-92.989
X91.237Y-76.657
X95.453Y-96.342
X96.215Y-77.013
X97.536Y-91.567
X97.688Y-93.447
X99.06Y-77.013
X102.489Y-86.614
X102.489Y-99.377
X102.997Y-85.598
X103.378Y-84.592
X103.378Y-92.964
X104.038Y-94.742
X104.584Y-91.504
X105.156Y-83.312
X106.045Y-91.504
X106.172Y-97.968
X106.172Y-99.085
X107.315Y-90.043
X107.315Y-103.759
X107.378Y-91.313
X108.013Y-88.963
X108.966Y-83.185
X111.188Y-77.153
X114.046Y-83.185
X114.173Y-55.626
X114.173Y-62.103
X115.57Y-91.249
X117.602Y-95.758
X118.3Y-81.724
X118.872Y-97.282
X118.872Y-91.186
X120.968Y-90.614
X121.412Y-62.865
X121.412Y-95.758
X121.666Y-97.282
X122.301Y-90.614
X124.993Y-96.418
X126.492Y-67.564
X126.492Y-95.631
X126.746Y-93.027
X127.152Y-94.615
X127.432Y-104.191
X128.905Y-89.408
X129.032Y-92.202
X130.073Y-104.191
X131.191Y-87.63
X131.547Y-99.644
X132.588Y-94.932
X132.588Y-96.139
X133.02Y-98.603
X133.731Y-104.191
X133.757Y-105.19
X133.858Y-87.63
X134.391Y-97.765
X134.429Y-96.647
X135.826Y-85.292
X135.826Y-87.439
X136.271Y-90.995
X136.525Y-101.092
X137.224Y-90.106
X137.541Y-93.281
X140.716Y-100.012
X140.906Y-92.392
X140.97Y-97.917
X141.034Y-94.869
X142.113Y-118.618
X142.113Y-121.031
X142.113Y-123.952
X142.367Y-127.381
X143.383Y-124.46
X144.018Y-63.5
X144.018Y-66.04
X144.145Y-118.618
X144.399Y-91.313
X144.475Y-115.367
X145.034Y-127.381
X146.05Y-70.612
X146.05Y-120.015
X146.431Y-128.397
X147.13Y-123.063
X147.447Y-115.316
X147.574Y-94.488
X147.828Y-72.644
X148.336Y-121.539
X148.336Y-128.397
X149.288Y-122.618
X149.606Y-115.316
X149.86Y-127.381
X151.32Y-120.713
X152.4Y-115.316
X152.527Y-118.11
X152.781Y-127.381
X153.416Y-124.523
X153.416Y-123.507
X157.48Y-99.568
X157.734Y-78.74
X157.861Y-123.825
X157.988Y-73.406
X157.988Y-93.472
X157.988Y-117.983
X158.242Y-127.635
X158.293Y-115.164
X159.385Y-121.539
X159.512Y-126.492
X160.299Y-115.164
X160.655Y-128.524
X160.909Y-117.983
X162.179Y-115.164
X162.306Y-126.492
X162.433Y-121.158
X163.893Y-80.137
X163.893Y-100.266
X163.893Y-109.791
X163.906Y-89.764
X164.084Y-121.793
X164.236Y-115.164
X164.846Y-128.524
X164.887Y-89.764
X164.909Y-80.137
X164.909Y-100.266
X164.909Y-109.791
X165.887Y-89.764
X165.989Y-122.428
X166.052Y-104.711
X166.052Y-80.137
X166.052Y-94.678
X166.052Y-100.266
X166.052Y-109.791
X166.091Y-115.164
X166.179Y-74.93
X166.243Y-84.684
X166.37Y-73.343
X166.56Y-93.662
X166.56Y-103.695
X166.775Y-106.617
X166.903Y-89.764
X166.941Y-76.581
X166.941Y-96.329
X166.954Y-86.563
X167.069Y-80.137
X167.069Y-100.266
X167.069Y-109.791
X167.107Y-83.82
X167.576Y-105.727
X167.67Y-95.534
X167.716Y-85.801
X167.735Y-75.723
X167.767Y-117.983
X167.894Y-115.164
X168.021Y-128.524
X169.164Y-66.294
X169.355Y-119.697
X169.875Y-115.164
X170.942Y-117.983
X171.069Y-128.524
X171.386Y-119.697
X171.513Y-65.596
X172.085Y-115.164
X173.037Y-123.571
X173.037Y-124.714
X173.101Y-121.666
X174.015Y-115.164
X174.168Y-128.524
X174.371Y-117.983
X174.879Y-124.079
X175.87Y-119.532
X176.149Y-115.443
X176.251Y-122.657
X177.546Y-125.857
X177.673Y-121.285
X178.537Y-115.57
X178.816Y-117.983
X180.721Y-115.57
X183.134Y-118.237
X183.134Y-122.555
X183.134Y-125.857
X183.261Y-65.024
X183.325Y-62.039
T2
X86.995Y-122.047
X86.995Y-123.317
X86.995Y-124.587
X86.995Y-125.857
X86.995Y-127.127
X88.265Y-122.047
X88.265Y-123.317
X88.265Y-124.587
X88.265Y-125.857
X88.265Y-127.127
T3
X98.425Y-60.134
X100.965Y-60.134
X103.505Y-60.134
T4
X87.63Y-109.347
X87.63Y-111.887
X87.63Y-114.427
T5
X86.106Y-86.614
X86.106Y-89.154
X86.106Y-98.806
X86.106Y-101.346
X180.022Y-119.951
X180.022Y-122.491
X180.022Y-125.031
X85.915Y-57.848
X85.915Y-60.389
X179.578Y-96.901
X179.578Y-99.441
X179.578Y-101.981
X179.514Y-79.311
X179.514Y-81.852
X179.514Y-84.391
T0
M30
