G04 #@! TF.GenerationSoftware,KiCad,Pcbnew,5.1.5-52549c5~84~ubuntu18.04.1*
G04 #@! TF.CreationDate,2020-02-19T21:22:06+00:00*
G04 #@! TF.ProjectId,scot-resolver,73636f74-2d72-4657-936f-6c7665722e6b,rev?*
G04 #@! TF.SameCoordinates,Original*
G04 #@! TF.FileFunction,Copper,L2,Bot*
G04 #@! TF.FilePolarity,Positive*
%FSLAX46Y46*%
G04 Gerber Fmt 4.6, Leading zero omitted, Abs format (unit mm)*
G04 Created by KiCad (PCBNEW 5.1.5-52549c5~84~ubuntu18.04.1) date 2020-02-19 21:22:06*
%MOMM*%
%LPD*%
G04 APERTURE LIST*
%ADD10C,1.016000*%
%ADD11O,1.700000X1.700000*%
%ADD12R,1.700000X1.700000*%
%ADD13C,2.100000*%
%ADD14R,2.100000X2.100000*%
%ADD15C,1.500000*%
%ADD16C,0.800000*%
%ADD17C,1.000000*%
%ADD18C,1.200000*%
%ADD19C,1.400000*%
%ADD20C,2.000000*%
%ADD21C,1.600000*%
%ADD22C,0.700000*%
%ADD23C,0.400000*%
%ADD24C,0.300000*%
%ADD25C,0.500000*%
%ADD26C,0.350000*%
%ADD27C,0.254000*%
G04 APERTURE END LIST*
D10*
X86995000Y-122047000D03*
X88265000Y-122047000D03*
X86995000Y-123317000D03*
X88265000Y-123317000D03*
X86995000Y-124587000D03*
X88265000Y-124587000D03*
X86995000Y-125857000D03*
X88265000Y-125857000D03*
X86995000Y-127127000D03*
X88265000Y-127127000D03*
D11*
X87630000Y-109347000D03*
X87630000Y-111887000D03*
D12*
X87630000Y-114427000D03*
D13*
X179514500Y-79311500D03*
X179514500Y-81851500D03*
D14*
X179514500Y-84391500D03*
D13*
X179578000Y-101981000D03*
X179578000Y-99441000D03*
D14*
X179578000Y-96901000D03*
D13*
X180022500Y-119951500D03*
X180022500Y-122491500D03*
D14*
X180022500Y-125031500D03*
D13*
X86106000Y-89154000D03*
D14*
X86106000Y-86614000D03*
D13*
X86106000Y-101346000D03*
D14*
X86106000Y-98806000D03*
D13*
X85915500Y-57848500D03*
D14*
X85915500Y-60388500D03*
D15*
X103505000Y-60134500D03*
X100965000Y-60134500D03*
X98425000Y-60134500D03*
D16*
X166903400Y-89763600D03*
X165887400Y-89763600D03*
X166052500Y-80137000D03*
X167068500Y-80137000D03*
X166052500Y-109791500D03*
X167068500Y-109791500D03*
X166052500Y-100266500D03*
X167068500Y-100266500D03*
X114173000Y-62103000D03*
X169354500Y-119697500D03*
X171386500Y-119697500D03*
X151320500Y-120713500D03*
X140970000Y-97917000D03*
X141033500Y-94869000D03*
X140716000Y-100012500D03*
X140906500Y-92392500D03*
X183261000Y-65024000D03*
X174167800Y-128524000D03*
X171069000Y-128524000D03*
X168021000Y-128524000D03*
X164846000Y-128524000D03*
X162306000Y-126492000D03*
X158242000Y-127635000D03*
X160655000Y-128524000D03*
X159512000Y-126492000D03*
X157861000Y-123825000D03*
X157988000Y-117983000D03*
X160909000Y-117983000D03*
X162433000Y-121158000D03*
X164084000Y-121793000D03*
X165989000Y-122428000D03*
X167767000Y-117983000D03*
X170942000Y-117983000D03*
X174371000Y-117983000D03*
X177673000Y-121285000D03*
X174879000Y-124079000D03*
X178816000Y-117983000D03*
X176149000Y-115443000D03*
X180721000Y-115570000D03*
X183134000Y-118237000D03*
X183134000Y-122555000D03*
X183134000Y-125857000D03*
X177546000Y-125857000D03*
X159385000Y-121539000D03*
X173101000Y-121666000D03*
X158292800Y-115163600D03*
X160299400Y-115163600D03*
X164236400Y-115163600D03*
X167894000Y-115163600D03*
X172085000Y-115163600D03*
X169875200Y-115163600D03*
X162179000Y-115163600D03*
X166090600Y-115163600D03*
X174015400Y-115163600D03*
X175869600Y-119532400D03*
X176250600Y-122656600D03*
X178536600Y-115570000D03*
X152781000Y-127381000D03*
X149860000Y-127381000D03*
X148336000Y-128397000D03*
X146431000Y-128397000D03*
X145034000Y-127381000D03*
X142367000Y-127381000D03*
X143383000Y-124460000D03*
X142113000Y-123952000D03*
X149288500Y-122618500D03*
X146050000Y-120015000D03*
X152527000Y-118110000D03*
X152400000Y-115316000D03*
X144475200Y-115366800D03*
X147447000Y-115316000D03*
X149606000Y-115316000D03*
X144145000Y-118618000D03*
X142113000Y-118618000D03*
X142113000Y-121031000D03*
X147828000Y-72643998D03*
X144018000Y-66039996D03*
X169164010Y-66294000D03*
X164887397Y-89763600D03*
X163906200Y-89763600D03*
X163893500Y-80137000D03*
X164909500Y-80137000D03*
X164909500Y-109791500D03*
X163893500Y-109791500D03*
X163893500Y-100266500D03*
X164909500Y-100266500D03*
X153416000Y-123507500D03*
X153415992Y-124523500D03*
X146050000Y-70612000D03*
X134429500Y-96647000D03*
X167106600Y-83820000D03*
X167716200Y-85801200D03*
X167734986Y-75723486D03*
X167576500Y-105727500D03*
X166560500Y-103695500D03*
X167669541Y-95533541D03*
X166560500Y-93662500D03*
X147129500Y-123063000D03*
X148336000Y-121539000D03*
X166370002Y-73342500D03*
X137541000Y-93281500D03*
X147574000Y-94488000D03*
X157480000Y-99568000D03*
X157988000Y-93472000D03*
X157734000Y-78740000D03*
X157988000Y-73406000D03*
X144399000Y-91313000D03*
X173037500Y-123571000D03*
X173037500Y-124714000D03*
X183324500Y-62039500D03*
X166775500Y-106616500D03*
X166051698Y-104710706D03*
X114173000Y-55626000D03*
X171513500Y-65595500D03*
X144018000Y-63500000D03*
X108966000Y-83185000D03*
X126492000Y-67564000D03*
X121412000Y-62865000D03*
X114046000Y-83185000D03*
X105156000Y-83312000D03*
X120967500Y-90614500D03*
X124993400Y-96418400D03*
X133756632Y-105190474D03*
X127431800Y-104190800D03*
X135826500Y-87439500D03*
X135826500Y-85292500D03*
X133858000Y-87630000D03*
X131191000Y-87630000D03*
X97688400Y-93446600D03*
X91236800Y-76657200D03*
X96215200Y-77012800D03*
X99060000Y-77012794D03*
X104038400Y-94742004D03*
X103378000Y-92964000D03*
X111188500Y-77152500D03*
X122301000Y-90614500D03*
X118300500Y-81724498D03*
X126492000Y-95631000D03*
X130073400Y-104190800D03*
X133731000Y-104190800D03*
X102489000Y-99377500D03*
X132588000Y-96139000D03*
X166941500Y-96329500D03*
X166052500Y-94678500D03*
X166941500Y-76581000D03*
X166179500Y-74930000D03*
X166954200Y-86563200D03*
X166243000Y-84683600D03*
X88391992Y-92989400D03*
X106172000Y-97967800D03*
X97536000Y-91567000D03*
X106172000Y-99085400D03*
X95453200Y-96342200D03*
X126745996Y-93027500D03*
X129032000Y-92202000D03*
X132588000Y-94932500D03*
X127152400Y-94615002D03*
X104584500Y-91503504D03*
X117602000Y-95758000D03*
X121412000Y-95758000D03*
X133019800Y-98602804D03*
X106044998Y-91503500D03*
X121666000Y-97282000D03*
X118871994Y-97282000D03*
X131546600Y-99644200D03*
X115570000Y-91249498D03*
X107378494Y-91313000D03*
X118872000Y-91186000D03*
X134391400Y-97764600D03*
X107315000Y-90043000D03*
X136525000Y-101092000D03*
X102489000Y-86614004D03*
X136271000Y-90995500D03*
X102997000Y-85598000D03*
X137223500Y-90106500D03*
X103378000Y-84592097D03*
X128905000Y-89408000D03*
X108013500Y-88963500D03*
X107315000Y-103759002D03*
D17*
X176720500Y-125031500D02*
X171386500Y-119697500D01*
X180022500Y-125031500D02*
X176720500Y-125031500D01*
X167068500Y-109791500D02*
X166052500Y-109791500D01*
X166052500Y-100266500D02*
X167068500Y-100266500D01*
X167068500Y-80137000D02*
X166052500Y-80137000D01*
D18*
X169354500Y-119697500D02*
X171386500Y-119697500D01*
D19*
X128905000Y-66167000D02*
X129667000Y-66929000D01*
D17*
X166052500Y-79571315D02*
X166052500Y-80137000D01*
X166052500Y-79121000D02*
X166052500Y-79571315D01*
X163277499Y-76345999D02*
X166052500Y-79121000D01*
X166052500Y-79121000D02*
X167068500Y-80137000D01*
X166052500Y-99700815D02*
X166052500Y-100266500D01*
X166052500Y-99250500D02*
X166052500Y-99700815D01*
X164719000Y-97917000D02*
X166052500Y-99250500D01*
X149733000Y-97917000D02*
X164719000Y-97917000D01*
X167068500Y-100266500D02*
X166052500Y-99250500D01*
X140970000Y-97917000D02*
X149733000Y-97917000D01*
X141224000Y-97028000D02*
X140970000Y-96774000D01*
X165987409Y-89763600D02*
X165987409Y-89266540D01*
X166903400Y-89763600D02*
X165987409Y-89763600D01*
X165284459Y-88563590D02*
X155530410Y-88563590D01*
X165987409Y-89266540D02*
X165284459Y-88563590D01*
X147066000Y-97028000D02*
X141224000Y-97028000D01*
X155530410Y-88563590D02*
X147066000Y-97028000D01*
X157502998Y-76327000D02*
X159131000Y-76327000D01*
X159131000Y-76327000D02*
X163277499Y-76345999D01*
X140906500Y-92392500D02*
X141668500Y-92392500D01*
X143171999Y-90889001D02*
X143171999Y-90657999D01*
X141668500Y-92392500D02*
X143171999Y-90889001D01*
X143171999Y-90657999D02*
X157502998Y-76327000D01*
X140970000Y-90932000D02*
X140970000Y-92456000D01*
X148227999Y-83674001D02*
X140970000Y-90932000D01*
X147828000Y-72643998D02*
X148227999Y-73043997D01*
X147193000Y-104394000D02*
X145034000Y-104394000D01*
X151003000Y-108204000D02*
X147193000Y-104394000D01*
X165030685Y-108204000D02*
X151003000Y-108204000D01*
X166052500Y-109791500D02*
X166052500Y-109225815D01*
X166052500Y-109225815D02*
X165030685Y-108204000D01*
X151130000Y-110426500D02*
X151130000Y-116332000D01*
X145097500Y-104394000D02*
X151130000Y-110426500D01*
X145034000Y-104394000D02*
X145097500Y-104394000D01*
X140716000Y-100012500D02*
X145034000Y-104330500D01*
X145034000Y-104330500D02*
X145034000Y-104394000D01*
D20*
X140716000Y-92583000D02*
X140906500Y-92392500D01*
X140716000Y-100012500D02*
X140716000Y-92583000D01*
X140906500Y-92392500D02*
X139065000Y-94234000D01*
X139065000Y-98361500D02*
X140716000Y-100012500D01*
X139065000Y-94234000D02*
X139065000Y-98361500D01*
D17*
X148227999Y-73043997D02*
X148227999Y-83674001D01*
D18*
X185166000Y-65024000D02*
X183826685Y-65024000D01*
X175323500Y-119697500D02*
X178244500Y-116776500D01*
X171386500Y-119697500D02*
X175323500Y-119697500D01*
X183826685Y-65024000D02*
X183261000Y-65024000D01*
X186309000Y-66167000D02*
X185166000Y-65024000D01*
X178244500Y-116776500D02*
X182943500Y-116776500D01*
X182943500Y-116776500D02*
X186309000Y-113411000D01*
X186309000Y-113411000D02*
X186309000Y-66167000D01*
D21*
X128905000Y-66294000D02*
X166370000Y-66294000D01*
X114173000Y-62103000D02*
X115824000Y-60452000D01*
X166370000Y-66294000D02*
X169164010Y-66294000D01*
X123063000Y-60452000D02*
X128905000Y-66294000D01*
X115824000Y-60452000D02*
X123063000Y-60452000D01*
D17*
X164459185Y-109791500D02*
X164852490Y-109791500D01*
X163893500Y-109791500D02*
X164459185Y-109791500D01*
X164459185Y-100266500D02*
X164852490Y-100266500D01*
X163893500Y-100266500D02*
X164459185Y-100266500D01*
X163906200Y-89763600D02*
X164787399Y-89763600D01*
X163893500Y-80137000D02*
X164852490Y-80137000D01*
X165290500Y-81534000D02*
X171196000Y-81534000D01*
X163893500Y-80137000D02*
X165290500Y-81534000D01*
X165455600Y-91313000D02*
X171196000Y-91313000D01*
X163906200Y-89763600D02*
X165455600Y-91313000D01*
X171196000Y-81534000D02*
X171196000Y-91313000D01*
X165290500Y-101663500D02*
X163893500Y-100266500D01*
X171196000Y-91313000D02*
X171196000Y-101663500D01*
X171196000Y-101663500D02*
X165290500Y-101663500D01*
X169862500Y-111252000D02*
X165354000Y-111252000D01*
D18*
X153415992Y-123507508D02*
X153416000Y-123507500D01*
X153415992Y-124523500D02*
X153415992Y-123507508D01*
D17*
X171196000Y-101663500D02*
X171196000Y-109918500D01*
X171196000Y-109918500D02*
X169862500Y-111252000D01*
X165354000Y-111252000D02*
X164973000Y-111252000D01*
X164973000Y-110871000D02*
X163893500Y-109791500D01*
X164973000Y-111252000D02*
X164973000Y-110871000D01*
D22*
X134429500Y-96081315D02*
X134429500Y-96647000D01*
X134429500Y-94742000D02*
X134429500Y-96081315D01*
X146050000Y-83121500D02*
X134429500Y-94742000D01*
D17*
X146050000Y-83121500D02*
X146050000Y-70612000D01*
X171196000Y-72517000D02*
X171196000Y-81534000D01*
X146050000Y-70612000D02*
X169291000Y-70612000D01*
X169291000Y-70612000D02*
X171196000Y-72517000D01*
X155829000Y-111252000D02*
X164973000Y-111252000D01*
X154432000Y-112649000D02*
X155829000Y-111252000D01*
X153416000Y-123507500D02*
X154432000Y-122491500D01*
X153415992Y-124523500D02*
X153416000Y-124523492D01*
X154432000Y-122491500D02*
X154432000Y-112649000D01*
X153416000Y-124523492D02*
X153416000Y-123507500D01*
D23*
X167716200Y-84429600D02*
X167106600Y-83820000D01*
X167716200Y-85801200D02*
X167716200Y-84429600D01*
X167576500Y-105727500D02*
X167576500Y-104711500D01*
X167576500Y-104711500D02*
X166560500Y-103695500D01*
X167669541Y-95533541D02*
X167669541Y-94771541D01*
X167669541Y-94771541D02*
X166560500Y-93662500D01*
X148336000Y-121539000D02*
X148336000Y-121856500D01*
X148336000Y-121856500D02*
X147129500Y-123063000D01*
X167734986Y-75723486D02*
X167734986Y-74707484D01*
X167734986Y-74707484D02*
X166370002Y-73342500D01*
D24*
X143256000Y-120523000D02*
X143256000Y-114173000D01*
X147129500Y-123063000D02*
X145796000Y-123063000D01*
X145796000Y-123063000D02*
X143256000Y-120523000D01*
D25*
X157480000Y-99568000D02*
X158242000Y-99568000D01*
X162369500Y-103695500D02*
X166560500Y-103695500D01*
X158242000Y-99568000D02*
X162369500Y-103695500D01*
X166370000Y-93472000D02*
X166560500Y-93662500D01*
X157988000Y-93472000D02*
X166370000Y-93472000D01*
X163322000Y-83820000D02*
X167106600Y-83820000D01*
X157734000Y-78740000D02*
X158133999Y-79139999D01*
X158641999Y-79139999D02*
X163322000Y-83820000D01*
X158133999Y-79139999D02*
X158641999Y-79139999D01*
X166306502Y-73406000D02*
X166370002Y-73342500D01*
X157988000Y-73406000D02*
X166306502Y-73406000D01*
X147574000Y-94488000D02*
X144399000Y-91313000D01*
X143256000Y-113487200D02*
X143256000Y-114173000D01*
X142798800Y-113030000D02*
X143256000Y-113487200D01*
X139255500Y-113030000D02*
X142798800Y-113030000D01*
X138112500Y-111887000D02*
X139255500Y-113030000D01*
X135509000Y-95313500D02*
X135509000Y-99441000D01*
X135509000Y-99441000D02*
X136017000Y-99949000D01*
X137541000Y-93281500D02*
X135509000Y-95313500D01*
X136017000Y-99949000D02*
X136779000Y-99949000D01*
X138112500Y-101282500D02*
X138112500Y-111887000D01*
X136779000Y-99949000D02*
X138112500Y-101282500D01*
D18*
X173037500Y-123571000D02*
X173037500Y-124714000D01*
X187833000Y-65405000D02*
X184467500Y-62039500D01*
X184467500Y-62039500D02*
X183324500Y-62039500D01*
X187833000Y-123634500D02*
X187833000Y-65405000D01*
X183705500Y-127762000D02*
X187833000Y-123634500D01*
X173037500Y-124714000D02*
X176085500Y-127762000D01*
X176085500Y-127762000D02*
X183705500Y-127762000D01*
D23*
X166775500Y-106616500D02*
X166051698Y-105892698D01*
X166051698Y-105892698D02*
X166051698Y-104710706D01*
D21*
X170434000Y-63754000D02*
X171513500Y-64833500D01*
X130429000Y-63754000D02*
X170434000Y-63754000D01*
X123952000Y-57277000D02*
X130429000Y-63754000D01*
X171513500Y-64833500D02*
X171513500Y-65595500D01*
X114173000Y-55626000D02*
X115824000Y-57277000D01*
X115824000Y-57277000D02*
X123952000Y-57277000D01*
D19*
X126111000Y-67564000D02*
X121412000Y-62865000D01*
X126492000Y-67564000D02*
X126111000Y-67564000D01*
D22*
X108966000Y-83185000D02*
X114046000Y-83185000D01*
X105283000Y-83185000D02*
X105156000Y-83312000D01*
X108966000Y-83185000D02*
X105283000Y-83185000D01*
X123977400Y-95402400D02*
X124993400Y-96418400D01*
X123977400Y-94691200D02*
X123977400Y-95402400D01*
X120967500Y-90614500D02*
X120967500Y-91681300D01*
X120967500Y-91681300D02*
X123977400Y-94691200D01*
D23*
X133756632Y-105190474D02*
X129142674Y-105190474D01*
X129142674Y-105190474D02*
X128143000Y-104190800D01*
X128143000Y-104190800D02*
X127431800Y-104190800D01*
X135826500Y-87439500D02*
X135826500Y-85407500D01*
X135826500Y-85407500D02*
X135826500Y-85292500D01*
D25*
X88265000Y-125857000D02*
X89281000Y-125857000D01*
X89281000Y-125857000D02*
X89789000Y-125349000D01*
X88265000Y-122047000D02*
X89789000Y-122047000D01*
X88983420Y-124587000D02*
X89789000Y-124587000D01*
X88265000Y-124587000D02*
X88983420Y-124587000D01*
X89789000Y-125349000D02*
X89789000Y-124587000D01*
X89789000Y-124587000D02*
X89789000Y-122047000D01*
X89154000Y-114427000D02*
X87630000Y-114427000D01*
X89789000Y-122047000D02*
X89789000Y-115062000D01*
X89789000Y-115062000D02*
X89154000Y-114427000D01*
X133858000Y-87630000D02*
X131191000Y-87630000D01*
D22*
X97688400Y-93446600D02*
X91236800Y-86995000D01*
X91236800Y-77222885D02*
X91236800Y-76657200D01*
X91236800Y-86995000D02*
X91236800Y-77222885D01*
X99059994Y-77012800D02*
X99060000Y-77012794D01*
X96215200Y-77012800D02*
X99059994Y-77012800D01*
D25*
X103378000Y-94081604D02*
X103378000Y-92964000D01*
X104038400Y-94742004D02*
X103378000Y-94081604D01*
D22*
X111188500Y-77152500D02*
X113728502Y-77152500D01*
X117900501Y-81324499D02*
X118300500Y-81724498D01*
X113728502Y-77152500D02*
X117900501Y-81324499D01*
X126492000Y-95567500D02*
X126492000Y-95631000D01*
X122301000Y-90614500D02*
X122301000Y-91376500D01*
X122301000Y-91376500D02*
X126492000Y-95567500D01*
D23*
X130073400Y-104190800D02*
X133731000Y-104190800D01*
D25*
X126492000Y-95631000D02*
X127000000Y-96139000D01*
X127000000Y-96139000D02*
X132588000Y-96139000D01*
X96012000Y-127127000D02*
X88265000Y-127127000D01*
X99060000Y-127127000D02*
X96012000Y-127127000D01*
X102489000Y-99377500D02*
X102489000Y-123698000D01*
X102489000Y-123698000D02*
X99060000Y-127127000D01*
D23*
X166941500Y-96329500D02*
X166052500Y-95440500D01*
X166052500Y-95440500D02*
X166052500Y-94678500D01*
D26*
X166941500Y-76581000D02*
X166941500Y-75692000D01*
X166941500Y-75692000D02*
X166179500Y-74930000D01*
D24*
X166954200Y-86563200D02*
X166243000Y-85852000D01*
X166243000Y-85852000D02*
X166243000Y-84683600D01*
D17*
X86106000Y-95275392D02*
X87991993Y-93389399D01*
X87991993Y-93389399D02*
X88391992Y-92989400D01*
X86106000Y-98806000D02*
X86106000Y-95275392D01*
D25*
X105606315Y-97967800D02*
X99205515Y-91567000D01*
X99205515Y-91567000D02*
X98101685Y-91567000D01*
X106172000Y-97967800D02*
X105606315Y-97967800D01*
X98101685Y-91567000D02*
X97536000Y-91567000D01*
X105606315Y-99085400D02*
X102863115Y-96342200D01*
X106172000Y-99085400D02*
X105606315Y-99085400D01*
X102863115Y-96342200D02*
X95453200Y-96342200D01*
D24*
X128206500Y-93027500D02*
X129032000Y-92202000D01*
X126745996Y-93027500D02*
X128206500Y-93027500D01*
X127469898Y-94932500D02*
X127152400Y-94615002D01*
X132588000Y-94932500D02*
X127469898Y-94932500D01*
D25*
X104584500Y-91503504D02*
X108838996Y-95758000D01*
X117036315Y-95758000D02*
X117602000Y-95758000D01*
X108838996Y-95758000D02*
X117036315Y-95758000D01*
D24*
X125095000Y-98806000D02*
X124460000Y-98806000D01*
X124460000Y-98806000D02*
X121811999Y-96157999D01*
X121811999Y-96157999D02*
X121412000Y-95758000D01*
X130987796Y-98602804D02*
X133019800Y-98602804D01*
X125031500Y-98806000D02*
X130784600Y-98806000D01*
X130784600Y-98806000D02*
X130987796Y-98602804D01*
D25*
X108838998Y-94297500D02*
X118427500Y-94297500D01*
X118871994Y-94741994D02*
X118871994Y-96716315D01*
X118871994Y-96716315D02*
X118871994Y-97282000D01*
X118427500Y-94297500D02*
X118871994Y-94741994D01*
X106044998Y-91503500D02*
X108838998Y-94297500D01*
D24*
X124028200Y-99644200D02*
X130980915Y-99644200D01*
X121666000Y-97282000D02*
X124028200Y-99644200D01*
X130980915Y-99644200D02*
X131546600Y-99644200D01*
D25*
X107441996Y-91249498D02*
X107378494Y-91313000D01*
X115570000Y-91249498D02*
X107441996Y-91249498D01*
D24*
X131953000Y-97764600D02*
X134391400Y-97764600D01*
X125138915Y-98018600D02*
X131699000Y-98018600D01*
X118872000Y-91186000D02*
X118872000Y-91751685D01*
X131699000Y-98018600D02*
X131953000Y-97764600D01*
X118872000Y-91751685D02*
X125138915Y-98018600D01*
D25*
X135959315Y-101092000D02*
X136525000Y-101092000D01*
X120205500Y-97409000D02*
X123888500Y-101092000D01*
X123888500Y-101092000D02*
X135959315Y-101092000D01*
X120205500Y-94297500D02*
X120205500Y-97409000D01*
X115951000Y-90043000D02*
X120205500Y-94297500D01*
X107315000Y-90043000D02*
X115951000Y-90043000D01*
X102489000Y-86614004D02*
X115569996Y-86614004D01*
D24*
X121793004Y-86614004D02*
X115569996Y-86614004D01*
X136271000Y-90995500D02*
X126174500Y-90995500D01*
X126174500Y-90995500D02*
X121793004Y-86614004D01*
D25*
X102997000Y-85598000D02*
X115570000Y-85598000D01*
D24*
X122110500Y-85598000D02*
X126682498Y-90169998D01*
X115570000Y-85598000D02*
X122110500Y-85598000D01*
X126682498Y-90169998D02*
X136594317Y-90169998D01*
X136657815Y-90106500D02*
X137223500Y-90106500D01*
X136594317Y-90169998D02*
X136657815Y-90106500D01*
D25*
X103378000Y-84592097D02*
X115707097Y-84592097D01*
D24*
X122618500Y-84645500D02*
X115760500Y-84645500D01*
X128905000Y-89408000D02*
X127381000Y-89408000D01*
X127381000Y-89408000D02*
X122618500Y-84645500D01*
D25*
X107315000Y-103193317D02*
X107315000Y-103759002D01*
X107315000Y-95631000D02*
X107315000Y-103193317D01*
X108013500Y-88963500D02*
X105473500Y-88963500D01*
X105473500Y-88963500D02*
X103568500Y-90868500D01*
X103568500Y-91884500D02*
X107315000Y-95631000D01*
X103568500Y-90868500D02*
X103568500Y-91884500D01*
D27*
G36*
X180707237Y-114828237D02*
G01*
X180882523Y-114885924D01*
X181041755Y-114979195D01*
X181182799Y-115108458D01*
X183480642Y-117712679D01*
X183577970Y-117845682D01*
X183647021Y-117988899D01*
X183688933Y-118142259D01*
X183702810Y-118306484D01*
X183648882Y-126072065D01*
X183193947Y-126527000D01*
X181528351Y-126527000D01*
X181603037Y-126435994D01*
X181662002Y-126325680D01*
X181698312Y-126205982D01*
X181710572Y-126081500D01*
X181707500Y-125317250D01*
X181548750Y-125158500D01*
X180149500Y-125158500D01*
X180149500Y-125178500D01*
X179895500Y-125178500D01*
X179895500Y-125158500D01*
X178496250Y-125158500D01*
X178337500Y-125317250D01*
X178334428Y-126081500D01*
X178346688Y-126205982D01*
X178382998Y-126325680D01*
X178441963Y-126435994D01*
X178516649Y-126527000D01*
X176597054Y-126527000D01*
X174272500Y-124202447D01*
X174272500Y-123981500D01*
X178334428Y-123981500D01*
X178337500Y-124745750D01*
X178496250Y-124904500D01*
X179895500Y-124904500D01*
X179895500Y-124884500D01*
X180149500Y-124884500D01*
X180149500Y-124904500D01*
X181548750Y-124904500D01*
X181707500Y-124745750D01*
X181710572Y-123981500D01*
X181698312Y-123857018D01*
X181662002Y-123737320D01*
X181603037Y-123627006D01*
X181523685Y-123530315D01*
X181426994Y-123450963D01*
X181412954Y-123443458D01*
X181515728Y-123289647D01*
X181642746Y-122982996D01*
X181707500Y-122657458D01*
X181707500Y-122325542D01*
X181642746Y-122000004D01*
X181515728Y-121693353D01*
X181331325Y-121417375D01*
X181135450Y-121221500D01*
X181331325Y-121025625D01*
X181515728Y-120749647D01*
X181642746Y-120442996D01*
X181707500Y-120117458D01*
X181707500Y-119785542D01*
X181642746Y-119460004D01*
X181515728Y-119153353D01*
X181331325Y-118877375D01*
X181096625Y-118642675D01*
X180820647Y-118458272D01*
X180513996Y-118331254D01*
X180188458Y-118266500D01*
X179856542Y-118266500D01*
X179531004Y-118331254D01*
X179224353Y-118458272D01*
X178948375Y-118642675D01*
X178713675Y-118877375D01*
X178529272Y-119153353D01*
X178402254Y-119460004D01*
X178337500Y-119785542D01*
X178337500Y-120117458D01*
X178402254Y-120442996D01*
X178529272Y-120749647D01*
X178713675Y-121025625D01*
X178909550Y-121221500D01*
X178713675Y-121417375D01*
X178529272Y-121693353D01*
X178402254Y-122000004D01*
X178337500Y-122325542D01*
X178337500Y-122657458D01*
X178402254Y-122982996D01*
X178529272Y-123289647D01*
X178632046Y-123443458D01*
X178618006Y-123450963D01*
X178521315Y-123530315D01*
X178441963Y-123627006D01*
X178382998Y-123737320D01*
X178346688Y-123857018D01*
X178334428Y-123981500D01*
X174272500Y-123981500D01*
X174272500Y-123510335D01*
X174254630Y-123328898D01*
X174184011Y-123096099D01*
X174069333Y-122881551D01*
X173915002Y-122693498D01*
X173726948Y-122539167D01*
X173512400Y-122424489D01*
X173279601Y-122353870D01*
X173037500Y-122330025D01*
X172795398Y-122353870D01*
X172562599Y-122424489D01*
X172348051Y-122539167D01*
X172159998Y-122693498D01*
X172005667Y-122881552D01*
X171890989Y-123096100D01*
X171820370Y-123328899D01*
X171802500Y-123510336D01*
X171802500Y-124653335D01*
X171796525Y-124714000D01*
X171802500Y-124774665D01*
X171820370Y-124956102D01*
X171890989Y-125188901D01*
X172005668Y-125403449D01*
X172159999Y-125591502D01*
X172207121Y-125630174D01*
X175169326Y-128592380D01*
X175207998Y-128639502D01*
X175396051Y-128793833D01*
X175604030Y-128905000D01*
X158359234Y-128905000D01*
X158182811Y-128887624D01*
X158019150Y-128837978D01*
X157868328Y-128757362D01*
X157736130Y-128648870D01*
X157627638Y-128516672D01*
X157547022Y-128365850D01*
X157497376Y-128202189D01*
X157480000Y-128025766D01*
X157480000Y-115687234D01*
X157497376Y-115510811D01*
X157547022Y-115347150D01*
X157627638Y-115196328D01*
X157736130Y-115064130D01*
X157868328Y-114955638D01*
X158019150Y-114875022D01*
X158182811Y-114825376D01*
X158359234Y-114808000D01*
X180516990Y-114808000D01*
X180707237Y-114828237D01*
G37*
X180707237Y-114828237D02*
X180882523Y-114885924D01*
X181041755Y-114979195D01*
X181182799Y-115108458D01*
X183480642Y-117712679D01*
X183577970Y-117845682D01*
X183647021Y-117988899D01*
X183688933Y-118142259D01*
X183702810Y-118306484D01*
X183648882Y-126072065D01*
X183193947Y-126527000D01*
X181528351Y-126527000D01*
X181603037Y-126435994D01*
X181662002Y-126325680D01*
X181698312Y-126205982D01*
X181710572Y-126081500D01*
X181707500Y-125317250D01*
X181548750Y-125158500D01*
X180149500Y-125158500D01*
X180149500Y-125178500D01*
X179895500Y-125178500D01*
X179895500Y-125158500D01*
X178496250Y-125158500D01*
X178337500Y-125317250D01*
X178334428Y-126081500D01*
X178346688Y-126205982D01*
X178382998Y-126325680D01*
X178441963Y-126435994D01*
X178516649Y-126527000D01*
X176597054Y-126527000D01*
X174272500Y-124202447D01*
X174272500Y-123981500D01*
X178334428Y-123981500D01*
X178337500Y-124745750D01*
X178496250Y-124904500D01*
X179895500Y-124904500D01*
X179895500Y-124884500D01*
X180149500Y-124884500D01*
X180149500Y-124904500D01*
X181548750Y-124904500D01*
X181707500Y-124745750D01*
X181710572Y-123981500D01*
X181698312Y-123857018D01*
X181662002Y-123737320D01*
X181603037Y-123627006D01*
X181523685Y-123530315D01*
X181426994Y-123450963D01*
X181412954Y-123443458D01*
X181515728Y-123289647D01*
X181642746Y-122982996D01*
X181707500Y-122657458D01*
X181707500Y-122325542D01*
X181642746Y-122000004D01*
X181515728Y-121693353D01*
X181331325Y-121417375D01*
X181135450Y-121221500D01*
X181331325Y-121025625D01*
X181515728Y-120749647D01*
X181642746Y-120442996D01*
X181707500Y-120117458D01*
X181707500Y-119785542D01*
X181642746Y-119460004D01*
X181515728Y-119153353D01*
X181331325Y-118877375D01*
X181096625Y-118642675D01*
X180820647Y-118458272D01*
X180513996Y-118331254D01*
X180188458Y-118266500D01*
X179856542Y-118266500D01*
X179531004Y-118331254D01*
X179224353Y-118458272D01*
X178948375Y-118642675D01*
X178713675Y-118877375D01*
X178529272Y-119153353D01*
X178402254Y-119460004D01*
X178337500Y-119785542D01*
X178337500Y-120117458D01*
X178402254Y-120442996D01*
X178529272Y-120749647D01*
X178713675Y-121025625D01*
X178909550Y-121221500D01*
X178713675Y-121417375D01*
X178529272Y-121693353D01*
X178402254Y-122000004D01*
X178337500Y-122325542D01*
X178337500Y-122657458D01*
X178402254Y-122982996D01*
X178529272Y-123289647D01*
X178632046Y-123443458D01*
X178618006Y-123450963D01*
X178521315Y-123530315D01*
X178441963Y-123627006D01*
X178382998Y-123737320D01*
X178346688Y-123857018D01*
X178334428Y-123981500D01*
X174272500Y-123981500D01*
X174272500Y-123510335D01*
X174254630Y-123328898D01*
X174184011Y-123096099D01*
X174069333Y-122881551D01*
X173915002Y-122693498D01*
X173726948Y-122539167D01*
X173512400Y-122424489D01*
X173279601Y-122353870D01*
X173037500Y-122330025D01*
X172795398Y-122353870D01*
X172562599Y-122424489D01*
X172348051Y-122539167D01*
X172159998Y-122693498D01*
X172005667Y-122881552D01*
X171890989Y-123096100D01*
X171820370Y-123328899D01*
X171802500Y-123510336D01*
X171802500Y-124653335D01*
X171796525Y-124714000D01*
X171802500Y-124774665D01*
X171820370Y-124956102D01*
X171890989Y-125188901D01*
X172005668Y-125403449D01*
X172159999Y-125591502D01*
X172207121Y-125630174D01*
X175169326Y-128592380D01*
X175207998Y-128639502D01*
X175396051Y-128793833D01*
X175604030Y-128905000D01*
X158359234Y-128905000D01*
X158182811Y-128887624D01*
X158019150Y-128837978D01*
X157868328Y-128757362D01*
X157736130Y-128648870D01*
X157627638Y-128516672D01*
X157547022Y-128365850D01*
X157497376Y-128202189D01*
X157480000Y-128025766D01*
X157480000Y-115687234D01*
X157497376Y-115510811D01*
X157547022Y-115347150D01*
X157627638Y-115196328D01*
X157736130Y-115064130D01*
X157868328Y-114955638D01*
X158019150Y-114875022D01*
X158182811Y-114825376D01*
X158359234Y-114808000D01*
X180516990Y-114808000D01*
X180707237Y-114828237D01*
G36*
X141640235Y-114706188D02*
G01*
X142471001Y-114853880D01*
X142471000Y-120484447D01*
X142467203Y-120523000D01*
X142471000Y-120561553D01*
X142471000Y-120561560D01*
X142482359Y-120676886D01*
X142527246Y-120824859D01*
X142600138Y-120961232D01*
X142698236Y-121080764D01*
X142728190Y-121105347D01*
X145213658Y-123590816D01*
X145238236Y-123620764D01*
X145268184Y-123645342D01*
X145268187Y-123645345D01*
X145281524Y-123656290D01*
X145357767Y-123718862D01*
X145494140Y-123791754D01*
X145607672Y-123826194D01*
X145642112Y-123836641D01*
X145656490Y-123838057D01*
X145757439Y-123848000D01*
X145757446Y-123848000D01*
X145795999Y-123851797D01*
X145834552Y-123848000D01*
X146450789Y-123848000D01*
X146469726Y-123866937D01*
X146639244Y-123980205D01*
X146827602Y-124058226D01*
X147027561Y-124098000D01*
X147231439Y-124098000D01*
X147431398Y-124058226D01*
X147619756Y-123980205D01*
X147789274Y-123866937D01*
X147933437Y-123722774D01*
X148046705Y-123553256D01*
X148124726Y-123364898D01*
X148153592Y-123219775D01*
X148897432Y-122475937D01*
X148929291Y-122449791D01*
X148964296Y-122407138D01*
X149033636Y-122322646D01*
X149053813Y-122284898D01*
X149139937Y-122198774D01*
X149253205Y-122029256D01*
X149331226Y-121840898D01*
X149371000Y-121640939D01*
X149371000Y-121437061D01*
X149331226Y-121237102D01*
X149253205Y-121048744D01*
X149139937Y-120879226D01*
X148995774Y-120735063D01*
X148826256Y-120621795D01*
X148637898Y-120543774D01*
X148437939Y-120504000D01*
X148234061Y-120504000D01*
X148034102Y-120543774D01*
X147845744Y-120621795D01*
X147676226Y-120735063D01*
X147532063Y-120879226D01*
X147418795Y-121048744D01*
X147340774Y-121237102D01*
X147301000Y-121437061D01*
X147301000Y-121640939D01*
X147312563Y-121699069D01*
X146972725Y-122038908D01*
X146827602Y-122067774D01*
X146639244Y-122145795D01*
X146469726Y-122259063D01*
X146450789Y-122278000D01*
X146121158Y-122278000D01*
X144041000Y-120197843D01*
X144041000Y-114935000D01*
X152282766Y-114935000D01*
X152459189Y-114952376D01*
X152622850Y-115002022D01*
X152773672Y-115082638D01*
X152905870Y-115191130D01*
X153014362Y-115323328D01*
X153094978Y-115474150D01*
X153144624Y-115637811D01*
X153162000Y-115814234D01*
X153162000Y-122156368D01*
X152964468Y-122353900D01*
X152941100Y-122360989D01*
X152726551Y-122475668D01*
X152585620Y-122591327D01*
X152585613Y-122591334D01*
X152538491Y-122630006D01*
X152384160Y-122818059D01*
X152269481Y-123032607D01*
X152213580Y-123216887D01*
X152198862Y-123265406D01*
X152175017Y-123507508D01*
X152180992Y-123568173D01*
X152180992Y-124584164D01*
X152198862Y-124765601D01*
X152269481Y-124998400D01*
X152384159Y-125212948D01*
X152538490Y-125401002D01*
X152726543Y-125555333D01*
X152941091Y-125670011D01*
X153162000Y-125737023D01*
X153162000Y-128089266D01*
X153144624Y-128265689D01*
X153094978Y-128429350D01*
X153014362Y-128580172D01*
X152905870Y-128712370D01*
X152773672Y-128820862D01*
X152622850Y-128901478D01*
X152459189Y-128951124D01*
X152282766Y-128968500D01*
X142485508Y-128968500D01*
X142320541Y-128953327D01*
X142166740Y-128909908D01*
X142023433Y-128839160D01*
X141895442Y-128743464D01*
X141783087Y-128621729D01*
X140011152Y-126308370D01*
X139909269Y-126140200D01*
X139848379Y-125960568D01*
X139827000Y-125765104D01*
X139827000Y-115014375D01*
X139824560Y-114989599D01*
X139808851Y-114910623D01*
X139801624Y-114886799D01*
X139796709Y-114877603D01*
X141370071Y-114697790D01*
X141640235Y-114706188D01*
G37*
X141640235Y-114706188D02*
X142471001Y-114853880D01*
X142471000Y-120484447D01*
X142467203Y-120523000D01*
X142471000Y-120561553D01*
X142471000Y-120561560D01*
X142482359Y-120676886D01*
X142527246Y-120824859D01*
X142600138Y-120961232D01*
X142698236Y-121080764D01*
X142728190Y-121105347D01*
X145213658Y-123590816D01*
X145238236Y-123620764D01*
X145268184Y-123645342D01*
X145268187Y-123645345D01*
X145281524Y-123656290D01*
X145357767Y-123718862D01*
X145494140Y-123791754D01*
X145607672Y-123826194D01*
X145642112Y-123836641D01*
X145656490Y-123838057D01*
X145757439Y-123848000D01*
X145757446Y-123848000D01*
X145795999Y-123851797D01*
X145834552Y-123848000D01*
X146450789Y-123848000D01*
X146469726Y-123866937D01*
X146639244Y-123980205D01*
X146827602Y-124058226D01*
X147027561Y-124098000D01*
X147231439Y-124098000D01*
X147431398Y-124058226D01*
X147619756Y-123980205D01*
X147789274Y-123866937D01*
X147933437Y-123722774D01*
X148046705Y-123553256D01*
X148124726Y-123364898D01*
X148153592Y-123219775D01*
X148897432Y-122475937D01*
X148929291Y-122449791D01*
X148964296Y-122407138D01*
X149033636Y-122322646D01*
X149053813Y-122284898D01*
X149139937Y-122198774D01*
X149253205Y-122029256D01*
X149331226Y-121840898D01*
X149371000Y-121640939D01*
X149371000Y-121437061D01*
X149331226Y-121237102D01*
X149253205Y-121048744D01*
X149139937Y-120879226D01*
X148995774Y-120735063D01*
X148826256Y-120621795D01*
X148637898Y-120543774D01*
X148437939Y-120504000D01*
X148234061Y-120504000D01*
X148034102Y-120543774D01*
X147845744Y-120621795D01*
X147676226Y-120735063D01*
X147532063Y-120879226D01*
X147418795Y-121048744D01*
X147340774Y-121237102D01*
X147301000Y-121437061D01*
X147301000Y-121640939D01*
X147312563Y-121699069D01*
X146972725Y-122038908D01*
X146827602Y-122067774D01*
X146639244Y-122145795D01*
X146469726Y-122259063D01*
X146450789Y-122278000D01*
X146121158Y-122278000D01*
X144041000Y-120197843D01*
X144041000Y-114935000D01*
X152282766Y-114935000D01*
X152459189Y-114952376D01*
X152622850Y-115002022D01*
X152773672Y-115082638D01*
X152905870Y-115191130D01*
X153014362Y-115323328D01*
X153094978Y-115474150D01*
X153144624Y-115637811D01*
X153162000Y-115814234D01*
X153162000Y-122156368D01*
X152964468Y-122353900D01*
X152941100Y-122360989D01*
X152726551Y-122475668D01*
X152585620Y-122591327D01*
X152585613Y-122591334D01*
X152538491Y-122630006D01*
X152384160Y-122818059D01*
X152269481Y-123032607D01*
X152213580Y-123216887D01*
X152198862Y-123265406D01*
X152175017Y-123507508D01*
X152180992Y-123568173D01*
X152180992Y-124584164D01*
X152198862Y-124765601D01*
X152269481Y-124998400D01*
X152384159Y-125212948D01*
X152538490Y-125401002D01*
X152726543Y-125555333D01*
X152941091Y-125670011D01*
X153162000Y-125737023D01*
X153162000Y-128089266D01*
X153144624Y-128265689D01*
X153094978Y-128429350D01*
X153014362Y-128580172D01*
X152905870Y-128712370D01*
X152773672Y-128820862D01*
X152622850Y-128901478D01*
X152459189Y-128951124D01*
X152282766Y-128968500D01*
X142485508Y-128968500D01*
X142320541Y-128953327D01*
X142166740Y-128909908D01*
X142023433Y-128839160D01*
X141895442Y-128743464D01*
X141783087Y-128621729D01*
X140011152Y-126308370D01*
X139909269Y-126140200D01*
X139848379Y-125960568D01*
X139827000Y-125765104D01*
X139827000Y-115014375D01*
X139824560Y-114989599D01*
X139808851Y-114910623D01*
X139801624Y-114886799D01*
X139796709Y-114877603D01*
X141370071Y-114697790D01*
X141640235Y-114706188D01*
M02*
